<svg width="1007" height="204" viewBox="0 0 1007 204" fill="none" xmlns="http://www.w3.org/2000/svg">
<path fill-rule="evenodd" clip-rule="evenodd" d="M154.791 201.136H212.193L140.469 84.7614L209.443 0H155.822L50.413 132.869V0H0V201.136H45.6009L108.503 123.935L154.791 201.136ZM45.1257 200.136L108.627 122.198L155.357 200.136H210.402L139.245 84.6812L207.34 1H156.305L49.413 135.739V1H1V200.136H45.1257ZM268.793 116.49C272.574 110.075 278.646 105.264 287.01 102.057C295.489 98.8501 304.77 97.2465 315.196 97.0174V58.4166C314.394 58.1875 313.477 58.1875 312.561 58.1875H308.207C299.614 58.4166 291.479 61.1656 283.917 66.5491C276.762 71.4601 270.901 78.2616 266.241 86.861C265.902 87.4879 265.568 88.1244 265.241 88.7704V60.3638H225.827V200.907H268.793V116.49ZM267.793 199.907V116.217L267.932 115.982C271.849 109.335 278.122 104.395 286.652 101.124L286.657 101.122C294.993 97.9684 304.074 96.351 314.196 96.0432V59.2428C313.718 59.1906 313.178 59.1875 312.561 59.1875H308.22C299.841 59.4135 291.902 62.0923 284.497 67.3638L284.49 67.3688L284.483 67.3736C276.968 72.5316 270.884 79.8373 266.133 89.222L264.241 88.7704V61.3638H226.827V199.907H267.793ZM373.056 204C373.132 203.999 373.208 203.999 373.284 203.998C373.609 203.996 373.934 203.991 374.258 203.984C383.361 203.779 392.05 201.613 400.325 197.586C408.635 193.432 415.797 187.61 421.91 180.118C422.203 179.759 422.494 179.396 422.782 179.03L423.584 185.444C424.73 191.171 427.25 195.638 431.375 198.731C435.5 201.824 441.572 203.427 449.592 203.427C451.84 203.427 454.27 203.245 456.963 203.043C457.29 203.019 457.621 202.994 457.956 202.969C461.05 202.74 464.373 202.167 468.154 201.251V165.056C464.716 164.712 462.425 163.681 461.05 161.963C459.79 160.359 459.102 157.381 459.102 153.029V116.833C459.102 97.4756 453.373 82.8141 441.687 72.849C430 62.8838 413.616 57.8439 392.305 57.8439C380.962 57.8439 370.307 59.4475 360.339 62.4256C350.256 65.4037 340.632 69.9854 331.351 76.0561L343.954 102.859C344.235 102.67 344.516 102.484 344.796 102.298C352.167 97.4213 359.219 93.7138 365.953 91.1757C372.942 88.5413 380.275 87.2813 387.951 87.2813C406.741 87.2813 416.137 95.4138 416.137 111.679V118.093C415.809 117.925 415.476 117.761 415.137 117.602C411.318 115.809 406.751 114.573 401.7 113.626C396.086 112.595 390.357 112.137 384.514 112.137C375.577 112.137 367.442 113.282 360.109 115.573C352.777 117.864 346.475 121.071 341.09 125.195C335.705 129.318 331.58 134.244 328.601 139.971C325.622 145.698 324.133 151.998 324.133 158.985C324.133 165.399 325.393 171.355 327.914 176.853C330.434 182.351 333.757 187.048 338.111 191.057C342.465 195.066 347.621 198.273 353.579 200.449C359.244 202.479 365.208 203.613 371.657 203.755C371.969 203.762 372.282 203.767 372.597 203.769C372.673 203.77 372.75 203.77 372.827 203.771C372.904 203.771 372.98 203.771 373.056 203.771L372.827 204C372.904 204 372.98 204 373.056 204ZM375.291 202.951L375.471 202.771H373.056C366.182 202.771 359.881 201.645 353.919 199.509C348.088 197.378 343.046 194.241 338.788 190.321C334.539 186.409 331.292 181.823 328.823 176.437C326.366 171.077 325.133 165.264 325.133 158.985C325.133 152.146 326.589 146.006 329.488 140.432C332.398 134.838 336.427 130.025 341.698 125.989C346.98 121.944 353.174 118.787 360.408 116.528C367.63 114.272 375.662 113.137 384.514 113.137C390.304 113.137 395.97 113.591 401.516 114.609C406.976 115.632 411.794 116.985 415.679 118.983L417.137 119.732V111.679C417.137 103.352 414.725 96.9354 409.745 92.6246C404.792 88.3376 397.468 86.2813 387.951 86.2813C380.163 86.2813 372.71 87.5601 365.6 90.24C358.82 92.7955 351.742 96.514 344.366 101.384L332.627 76.4199C341.609 70.6319 350.905 66.2546 360.622 63.3846L360.625 63.3837C370.499 60.4338 381.058 58.8439 392.305 58.8439C413.466 58.8439 429.589 63.8476 441.038 73.6099C452.443 83.3346 458.102 97.6804 458.102 116.833V153.029C458.102 157.416 458.781 160.695 460.264 162.581L460.269 162.588C461.742 164.428 464.042 165.499 467.154 165.942V200.461C463.726 201.262 460.699 201.763 457.883 201.972C457.547 201.997 457.217 202.021 456.891 202.046C454.19 202.248 451.8 202.427 449.592 202.427C441.683 202.427 435.858 200.842 431.975 197.931C428.095 195.022 425.683 190.805 424.572 185.284L423.477 176.527L421.996 178.412C415.78 186.32 408.448 192.406 399.883 196.689C392.055 200.498 383.86 202.612 375.291 202.951ZM372.254 141.345C377.41 137.794 383.826 135.962 391.732 135.962C395.513 135.962 399.523 136.42 403.992 137.222C408.46 138.024 412.47 139.169 416.251 140.544V153.945C416.251 157.496 414.189 160.932 410.064 164.139C407.2 166.774 403.533 168.95 399.179 170.554C394.826 172.157 390.357 172.959 385.66 172.959H385.43C379.358 172.959 374.317 171.355 370.421 168.034C366.526 164.712 364.578 160.474 364.578 155.319C364.578 149.592 367.213 144.896 372.254 141.345ZM410.711 164.903C414.944 161.602 417.251 157.915 417.251 153.945V139.843L416.593 139.604C412.764 138.212 408.699 137.05 404.168 136.237C399.665 135.429 395.592 134.962 391.732 134.962C383.667 134.962 377.042 136.834 371.687 140.522L371.678 140.528C366.404 144.243 363.578 149.229 363.578 155.319C363.578 160.764 365.652 165.281 369.772 168.795C373.888 172.304 379.177 173.959 385.43 173.959H385.66C390.475 173.959 395.061 173.136 399.525 171.492C403.967 169.856 407.74 167.627 410.711 164.903ZM512.838 18.3268C508.484 23.2521 505.161 29.4374 502.87 36.539C500.578 43.6407 499.433 51.6586 499.433 60.3638V71.9326H481.444V104.348H499.433V201.136L499.547 201.251H542.513V104.463H575.281V72.0472H542.513V58.8748C542.513 45.7024 547.783 39.059 558.324 39.059C561.303 39.059 564.626 39.4026 568.063 40.2044C571.132 40.9202 574.018 41.8187 576.64 42.8998C576.955 43.0296 577.266 43.162 577.573 43.297L585.364 11.1106C572.302 5.49803 560.043 2.74902 548.585 2.74902C541.253 2.74902 534.493 4.12353 528.42 6.758C522.348 9.50702 517.192 13.2869 512.838 18.3268ZM528.825 7.67236C522.882 10.3639 517.848 14.057 513.595 18.9805L513.587 18.9891C509.341 23.7925 506.079 29.8495 503.822 36.8461C501.567 43.8324 500.433 51.7444 500.433 60.3638V72.9326H482.444V103.348H500.433V200.251H541.513V103.463H574.281V73.0472H541.513V58.8748C541.513 52.1815 542.848 46.9635 545.684 43.4041C548.554 39.8016 552.83 38.059 558.324 38.059C561.378 38.059 564.777 38.411 568.29 39.2305C571.347 39.9436 574.237 40.8379 576.878 41.9165L584.193 11.6987C571.522 6.35191 559.656 3.74902 548.585 3.74902C541.382 3.74902 534.761 5.09828 528.825 7.67236ZM696.876 193.906C696.923 193.886 696.97 193.866 697.017 193.846C697.138 193.795 697.26 193.743 697.381 193.691C697.461 193.657 697.542 193.622 697.622 193.588L697.647 193.691V193.577L697.622 193.588L697.619 193.577L689.283 159.672C688.98 159.81 688.671 159.95 688.357 160.091C686.064 161.118 683.484 162.202 680.461 163.108C677.024 164.139 673.701 164.712 670.493 164.712C666.941 164.712 663.962 163.681 661.671 161.619C659.379 159.558 658.234 156.236 658.234 151.54V92.7793H686.877V60.3638H658.234V15.5778H615.268V60.2493H597.28V92.6648H615.268V166.201C615.268 172.959 616.299 178.801 618.362 183.611C620.424 188.422 623.288 192.317 626.84 195.295C630.392 198.273 634.631 200.335 639.329 201.709C644.026 203.084 649.068 203.771 654.453 203.771C662.129 203.771 669.806 202.74 677.368 200.564C684.709 198.483 691.211 196.297 696.876 193.906ZM598.28 91.6648H616.268V166.201C616.268 172.863 617.285 178.563 619.281 183.217C621.286 187.897 624.061 191.659 627.483 194.529C630.907 197.399 635.014 199.405 639.61 200.749C644.207 202.095 649.153 202.771 654.453 202.771C662.039 202.771 669.622 201.752 677.091 199.603L677.095 199.602C684.394 197.532 690.842 195.365 696.448 193.001L688.599 161.078C686.331 162.09 683.757 163.164 680.748 164.066C677.241 165.118 673.82 165.712 670.493 165.712C666.739 165.712 663.508 164.617 661.002 162.363C658.412 160.033 657.234 156.376 657.234 151.54V91.7793H685.877V61.3638H657.234V16.5778H616.268V61.2493H598.28V91.6648ZM781.86 203.427C798.13 203.427 811.993 199.876 823.68 193.004C835.046 186.32 843.486 177.577 849 166.882C849.155 166.58 849.308 166.277 849.459 165.972L813.024 155.778C811.077 161.047 807.181 165.056 801.338 168.148C795.495 171.241 789.537 172.73 783.235 172.73C775.329 172.73 768.34 170.325 762.153 165.399C756.185 160.759 752.775 153.88 751.925 144.865C751.894 144.535 751.866 144.201 751.841 143.865H855.876C856.219 142.033 856.448 139.971 856.678 137.565C856.907 135.16 856.907 132.755 856.907 130.235C856.907 120.613 855.303 111.335 851.98 102.63C848.657 93.9248 843.731 86.1359 837.314 79.4924C830.898 72.849 822.993 67.4655 813.712 63.571C804.317 59.6766 793.776 57.7294 781.746 57.7294C769.715 57.7294 759.06 59.6766 749.664 63.571C740.269 67.4655 732.364 72.849 725.947 79.607C719.531 86.365 714.605 94.2684 711.167 103.317C707.73 112.366 706.011 121.988 706.011 132.182C706.011 141.689 707.73 150.738 711.167 159.443C714.605 168.148 719.531 175.708 726.062 182.351C732.593 188.995 740.499 194.149 749.894 198.044C759.289 201.824 769.83 203.771 781.631 203.771L781.86 203.427ZM781.097 202.77L781.325 202.427H781.86C797.98 202.427 811.663 198.911 823.173 192.142C834.325 185.584 842.594 177.038 848.016 166.607L813.624 156.984C811.476 162.11 807.498 166.02 801.806 169.032C795.823 172.199 789.705 173.73 783.235 173.73C775.109 173.73 767.901 171.251 761.536 166.186C755.078 161.163 751.547 153.657 750.844 143.937L750.767 142.865H855.036C855.295 141.284 855.487 139.515 855.682 137.471C855.906 135.121 855.907 132.763 855.907 130.235C855.907 120.725 854.322 111.569 851.046 102.987C847.77 94.4053 842.916 86.732 836.595 80.1871C830.279 73.647 822.488 68.3387 813.327 64.4938C804.072 60.658 793.665 58.7294 781.746 58.7294C769.824 58.7294 759.302 60.6588 750.047 64.4948C740.773 68.3392 732.986 73.6456 726.673 80.2955C720.351 86.9536 715.494 94.7425 712.102 103.672C708.71 112.602 707.011 122.102 707.011 132.182C707.011 141.564 708.707 150.489 712.097 159.076C715.485 167.656 720.338 175.102 726.775 181.65C733.2 188.186 740.987 193.269 750.273 197.118C759.392 200.786 769.626 202.712 781.097 202.77ZM750.925 117.406C750.96 117.07 750.998 116.737 751.039 116.406C752.081 108.056 755.145 101.398 760.435 96.3302C765.82 91.0612 772.923 88.4267 781.173 88.4267C789.422 88.4267 796.297 91.0612 801.796 96.2156C807.089 101.176 810.259 107.94 811.307 116.406C811.348 116.737 811.386 117.07 811.42 117.406H750.925ZM811.535 117.394L812.415 117.304C811.479 108.18 808.189 100.837 802.48 95.486C796.781 90.1442 789.655 87.4267 781.173 87.4267C772.703 87.4267 765.338 90.1368 759.741 95.6094C754.039 101.073 750.866 108.297 749.93 117.303L749.815 118.406H811.535V117.394ZM931.495 99.9955L906.059 60.3638H862.063L910.872 130.922L861.031 201.136H905.028L931.61 161.734L934.016 156.694L936.422 161.734L963.003 201.136H1007L957.16 130.922L1005.97 60.3638H961.972L936.766 99.9955L934.13 105.15L931.495 99.9955ZM937.635 100.492L934.13 107.347L930.627 100.495L905.513 61.3638H863.97L912.093 130.929L862.968 200.136H904.497L930.739 161.236L934.016 154.373L937.292 161.236L963.535 200.136H1005.06L955.939 130.929L1004.06 61.3638H962.521L937.635 100.492Z" fill="url(#paint0_linear_963_6)"/>
<defs>
<linearGradient id="paint0_linear_963_6" x1="-195.5" y1="-75.5" x2="1036.36" y2="213.458" gradientUnits="userSpaceOnUse">
<stop stop-color="#35682B"/>
<stop offset="0.275886" stop-color="#A6F696" stop-opacity="0.861638"/>
<stop offset="0.636023" stop-color="#BDFFB0" stop-opacity="0.818558"/>
<stop offset="0.821426" stop-color="#3B6E31" stop-opacity="0.794096"/>
<stop offset="0.922735" stop-color="#274D20" stop-opacity="0.740653"/>
<stop offset="1" stop-opacity="0"/>
</linearGradient>
</defs>
</svg>
