<svg width="285" height="21" viewBox="0 0 285 21" fill="none" xmlns="http://www.w3.org/2000/svg">
<path d="M14.083 15.8721V17H1.79395V15.8721H14.083ZM2.08398 15.8721V20.792H0.773438V15.8721H2.08398ZM15.2217 15.8721L15.2109 20.792H13.8896V15.8721H15.2217ZM12.4932 1.35938V2.49805H5.38184V1.35938H12.4932ZM13.5459 1.35938V17H12.2354V1.35938H13.5459ZM4.90918 1.35938H6.23047L5.95117 6.99902C5.90104 8.00879 5.80078 8.94336 5.65039 9.80273C5.50716 10.6621 5.32812 11.4499 5.11328 12.166C4.89844 12.8822 4.66211 13.5231 4.4043 14.0889C4.14648 14.6475 3.87793 15.1309 3.59863 15.5391C3.31934 15.9401 3.03646 16.266 2.75 16.5166C2.4707 16.7601 2.20215 16.9212 1.94434 17H1.12793V15.8721H1.81543C1.9873 15.693 2.21289 15.3994 2.49219 14.9912C2.77148 14.5758 3.05794 14.0208 3.35156 13.3262C3.65234 12.6243 3.91732 11.7542 4.14648 10.7158C4.38281 9.67025 4.54395 8.43131 4.62988 6.99902L4.90918 1.35938Z" fill="white"/>
<path d="M29.0297 9.55566L23.1645 1.35938H24.7543L29.6742 8.41699H32.2201L32.0912 9.55566H29.0297ZM29.8246 9.45898L24.4428 17H22.767L28.9975 8.32031L29.8246 9.45898ZM32.8861 1.35938V17H31.5756V1.35938H32.8861ZM41.2543 1.35938L35.3783 9.55566H32.3705L32.2416 8.41699H34.7338L39.6645 1.35938H41.2543ZM39.976 17L34.5834 9.45898L35.4213 8.32031L41.6518 17H39.976Z" fill="white"/>
<path d="M61.7332 8.3418V10.0176C61.7332 11.1133 61.59 12.1051 61.3035 12.9932C61.0242 13.874 60.616 14.6296 60.0789 15.2598C59.549 15.89 58.9116 16.3734 58.1668 16.71C57.422 17.0465 56.5841 17.2148 55.6531 17.2148C54.7436 17.2148 53.9129 17.0465 53.1609 16.71C52.4161 16.3734 51.7752 15.89 51.2381 15.2598C50.701 14.6296 50.2856 13.874 49.992 12.9932C49.6984 12.1051 49.5516 11.1133 49.5516 10.0176V8.3418C49.5516 7.24609 49.6948 6.25781 49.9813 5.37695C50.2749 4.48893 50.6902 3.72982 51.2273 3.09961C51.7645 2.4694 52.4054 1.986 53.1502 1.64941C53.895 1.31283 54.7221 1.14453 55.6316 1.14453C56.5626 1.14453 57.4005 1.31283 58.1453 1.64941C58.8901 1.986 59.5311 2.4694 60.0682 3.09961C60.6053 3.72982 61.0171 4.48893 61.3035 5.37695C61.59 6.25781 61.7332 7.24609 61.7332 8.3418ZM60.4227 10.0176V8.32031C60.4227 7.39648 60.3152 6.56576 60.1004 5.82812C59.8927 5.09049 59.5812 4.46029 59.1658 3.9375C58.7576 3.41471 58.2563 3.01367 57.6619 2.73438C57.0675 2.45508 56.3908 2.31543 55.6316 2.31543C54.894 2.31543 54.2316 2.45508 53.6443 2.73438C53.0571 3.01367 52.5558 3.41471 52.1404 3.9375C51.7322 4.46029 51.4171 5.09049 51.1951 5.82812C50.9803 6.56576 50.8729 7.39648 50.8729 8.32031V10.0176C50.8729 10.9486 50.9803 11.7865 51.1951 12.5312C51.4171 13.2689 51.7358 13.9027 52.1512 14.4326C52.5665 14.9554 53.0678 15.3564 53.6551 15.6357C54.2495 15.915 54.9155 16.0547 55.6531 16.0547C56.4194 16.0547 57.0962 15.915 57.6834 15.6357C58.2706 15.3564 58.7684 14.9554 59.1766 14.4326C59.5848 13.9027 59.8927 13.2689 60.1004 12.5312C60.3152 11.7865 60.4227 10.9486 60.4227 10.0176Z" fill="white"/>
<path d="M82.1906 8.37402V9.50195H72.6838V8.37402H82.1906ZM72.9953 1.35938V17H71.674V1.35938H72.9953ZM83.2541 1.35938V17H81.9328V1.35938H83.2541Z" fill="white"/>
<path d="M111.139 10.6299H106.681V9.50195H111.139C112.07 9.50195 112.825 9.35156 113.405 9.05078C113.993 8.74284 114.419 8.32747 114.684 7.80469C114.956 7.2819 115.092 6.69466 115.092 6.04297C115.092 5.4056 114.956 4.81836 114.684 4.28125C114.419 3.74414 113.993 3.31445 113.405 2.99219C112.825 2.66276 112.07 2.49805 111.139 2.49805H107.143V17H105.821V1.35938H111.139C112.285 1.35938 113.248 1.55632 114.028 1.9502C114.816 2.34408 115.41 2.89193 115.812 3.59375C116.213 4.29557 116.413 5.10482 116.413 6.02148C116.413 6.98112 116.213 7.80827 115.812 8.50293C115.41 9.19043 114.82 9.7168 114.039 10.082C113.258 10.4473 112.292 10.6299 111.139 10.6299Z" fill="white"/>
<path d="M137.526 8.3418V10.0176C137.526 11.1133 137.383 12.1051 137.096 12.9932C136.817 13.874 136.409 14.6296 135.871 15.2598C135.342 15.89 134.704 16.3734 133.959 16.71C133.215 17.0465 132.377 17.2148 131.446 17.2148C130.536 17.2148 129.705 17.0465 128.954 16.71C128.209 16.3734 127.568 15.89 127.031 15.2598C126.494 14.6296 126.078 13.874 125.785 12.9932C125.491 12.1051 125.344 11.1133 125.344 10.0176V8.3418C125.344 7.24609 125.487 6.25781 125.774 5.37695C126.067 4.48893 126.483 3.72982 127.02 3.09961C127.557 2.4694 128.198 1.986 128.943 1.64941C129.688 1.31283 130.515 1.14453 131.424 1.14453C132.355 1.14453 133.193 1.31283 133.938 1.64941C134.683 1.986 135.324 2.4694 135.861 3.09961C136.398 3.72982 136.81 4.48893 137.096 5.37695C137.383 6.25781 137.526 7.24609 137.526 8.3418ZM136.215 10.0176V8.32031C136.215 7.39648 136.108 6.56576 135.893 5.82812C135.685 5.09049 135.374 4.46029 134.958 3.9375C134.55 3.41471 134.049 3.01367 133.454 2.73438C132.86 2.45508 132.183 2.31543 131.424 2.31543C130.687 2.31543 130.024 2.45508 129.437 2.73438C128.85 3.01367 128.348 3.41471 127.933 3.9375C127.525 4.46029 127.21 5.09049 126.988 5.82812C126.773 6.56576 126.665 7.39648 126.665 8.32031V10.0176C126.665 10.9486 126.773 11.7865 126.988 12.5312C127.21 13.2689 127.528 13.9027 127.944 14.4326C128.359 14.9554 128.86 15.3564 129.448 15.6357C130.042 15.915 130.708 16.0547 131.446 16.0547C132.212 16.0547 132.889 15.915 133.476 15.6357C134.063 15.3564 134.561 14.9554 134.969 14.4326C135.377 13.9027 135.685 13.2689 135.893 12.5312C136.108 11.7865 136.215 10.9486 136.215 10.0176Z" fill="white"/>
<path d="M148.831 1.35938V17H147.51V1.35938H148.831ZM158.628 1.35938L151.688 9.66309H148.304L148.186 8.52441H150.915L156.973 1.35938H158.628ZM157.457 17L150.85 9.5127L151.613 8.35254L159.1 17H157.457Z" fill="white"/>
<path d="M173.392 2.94922H175.261C176.213 2.94922 177.084 3.10319 177.871 3.41113C178.659 3.71908 179.339 4.15234 179.912 4.71094C180.485 5.26953 180.926 5.9248 181.234 6.67676C181.542 7.42871 181.696 8.2487 181.696 9.13672C181.696 10.0247 181.542 10.8483 181.234 11.6074C180.926 12.3594 180.485 13.0182 179.912 13.584C179.339 14.1426 178.659 14.5794 177.871 14.8945C177.084 15.2025 176.213 15.3564 175.261 15.3564H173.392C172.425 15.3564 171.548 15.2025 170.76 14.8945C169.979 14.5794 169.303 14.1426 168.73 13.584C168.164 13.0254 167.727 12.3701 167.419 11.6182C167.111 10.8662 166.957 10.0462 166.957 9.1582C166.957 8.27018 167.111 7.4502 167.419 6.69824C167.727 5.94629 168.164 5.29102 168.73 4.73242C169.303 4.16667 169.979 3.72982 170.76 3.42188C171.548 3.10677 172.425 2.94922 173.392 2.94922ZM173.392 4.04492C172.303 4.04492 171.372 4.26693 170.599 4.71094C169.833 5.14779 169.245 5.75293 168.837 6.52637C168.436 7.29264 168.236 8.16992 168.236 9.1582C168.236 9.903 168.35 10.5869 168.579 11.21C168.808 11.833 169.145 12.3737 169.589 12.832C170.033 13.2832 170.574 13.6341 171.211 13.8848C171.849 14.1354 172.575 14.2607 173.392 14.2607H175.282C176.357 14.2607 177.277 14.0423 178.043 13.6055C178.809 13.1615 179.397 12.5563 179.805 11.79C180.213 11.0166 180.417 10.1322 180.417 9.13672C180.417 8.39909 180.299 7.71875 180.063 7.0957C179.834 6.47266 179.497 5.93555 179.053 5.48438C178.616 5.02604 178.079 4.67155 177.442 4.4209C176.811 4.17025 176.092 4.04492 175.282 4.04492H173.392ZM174.96 0.704102V17.6445H173.671V0.704102H174.96Z" fill="white"/>
<path d="M200.789 15.8721V17H191.991V15.8721H200.789ZM192.388 1.35938V17H191.067V1.35938H192.388ZM199.693 8.37402V9.50195H191.991V8.37402H199.693ZM200.735 1.35938V2.49805H191.991V1.35938H200.735Z" fill="white"/>
<path d="M220.602 1.35938V2.49805H212.942V1.35938H220.602ZM221.654 1.35938V17H220.333V1.35938H221.654ZM212.47 1.35938H213.78L213.383 8.58887C213.311 9.78483 213.218 10.8411 213.104 11.7578C212.996 12.6745 212.846 13.4658 212.652 14.1318C212.459 14.7907 212.205 15.3314 211.89 15.7539C211.582 16.1764 211.199 16.4915 210.74 16.6992C210.289 16.8997 209.741 17 209.097 17H208.646V15.8721L209.043 15.8506C209.465 15.8363 209.831 15.7539 210.139 15.6035C210.454 15.4531 210.719 15.2132 210.934 14.8838C211.156 14.5472 211.338 14.096 211.481 13.5303C211.632 12.9645 211.754 12.2627 211.847 11.4248C211.947 10.5869 212.029 9.58789 212.094 8.42773L212.47 1.35938Z" fill="white"/>
<path d="M242.864 1.35938V2.49805H235.204V1.35938H242.864ZM243.916 1.35938V17H242.595V1.35938H243.916ZM234.732 1.35938H236.042L235.645 8.58887C235.573 9.78483 235.48 10.8411 235.366 11.7578C235.258 12.6745 235.108 13.4658 234.914 14.1318C234.721 14.7907 234.467 15.3314 234.152 15.7539C233.844 16.1764 233.461 16.4915 233.002 16.6992C232.551 16.8997 232.003 17 231.359 17H230.908V15.8721L231.305 15.8506C231.728 15.8363 232.093 15.7539 232.401 15.6035C232.716 15.4531 232.981 15.2132 233.196 14.8838C233.418 14.5472 233.6 14.096 233.744 13.5303C233.894 12.9645 234.016 12.2627 234.109 11.4248C234.209 10.5869 234.291 9.58789 234.356 8.42773L234.732 1.35938Z" fill="white"/>
<path d="M264.245 15.8721V17H255.447V15.8721H264.245ZM255.845 1.35938V17H254.523V1.35938H255.845ZM263.149 8.37402V9.50195H255.447V8.37402H263.149ZM264.191 1.35938V2.49805H255.447V1.35938H264.191Z" fill="white"/>
<path d="M278.966 10.6299H274.508V9.50195H278.966C279.897 9.50195 280.653 9.35156 281.233 9.05078C281.82 8.74284 282.246 8.32747 282.511 7.80469C282.783 7.2819 282.919 6.69466 282.919 6.04297C282.919 5.4056 282.783 4.81836 282.511 4.28125C282.246 3.74414 281.82 3.31445 281.233 2.99219C280.653 2.66276 279.897 2.49805 278.966 2.49805H274.97V17H273.649V1.35938H278.966C280.112 1.35938 281.075 1.55632 281.856 1.9502C282.643 2.34408 283.238 2.89193 283.639 3.59375C284.04 4.29557 284.24 5.10482 284.24 6.02148C284.24 6.98112 284.04 7.80827 283.639 8.50293C283.238 9.19043 282.647 9.7168 281.866 10.082C281.086 10.4473 280.119 10.6299 278.966 10.6299Z" fill="white"/>
</svg>
