<svg width="449" height="60" viewBox="0 0 449 60" fill="none" xmlns="http://www.w3.org/2000/svg">
<path d="M0.184082 4.96191V3.65576C0.184082 3.1512 0.245117 2.6792 0.367188 2.23975C0.489258 1.80029 0.660156 1.39339 0.879883 1.01904C1.09961 0.644694 1.35189 0.315104 1.63672 0.0302734L2.25928 0.518555C1.88493 0.998698 1.60417 1.47884 1.41699 1.95898C1.23796 2.43913 1.14844 2.99658 1.14844 3.63135V4.96191H0.184082ZM2.75977 4.96191V3.65576C2.75977 3.1512 2.8208 2.6792 2.94287 2.23975C3.06494 1.80029 3.23584 1.39339 3.45557 1.01904C3.67529 0.644694 3.92757 0.315104 4.2124 0.0302734L4.83496 0.518555C4.46061 0.998698 4.17985 1.47884 3.99268 1.95898C3.81364 2.43913 3.72412 2.99658 3.72412 3.63135V4.96191H2.75977Z" fill="white"/>
<path d="M14.0146 10.3086H8.69238L8.66797 9.41748H13.1235C14.1164 9.41748 14.9546 9.2832 15.6382 9.01465C16.3218 8.74609 16.8385 8.34326 17.1885 7.80615C17.5384 7.2609 17.7134 6.58138 17.7134 5.76758C17.7134 4.95378 17.5343 4.27832 17.1763 3.74121C16.8182 3.2041 16.2811 2.80127 15.5649 2.53271C14.8569 2.26416 13.9699 2.12988 12.9038 2.12988H8.99756V19H8.00879V1.22656H12.9038C13.8071 1.22656 14.6169 1.31608 15.333 1.49512C16.0492 1.67415 16.6554 1.95492 17.1519 2.3374C17.6564 2.71175 18.043 3.18783 18.3115 3.76562C18.5801 4.34342 18.7144 5.02702 18.7144 5.81641C18.7144 6.54883 18.5679 7.20801 18.2749 7.79395C17.9819 8.37988 17.5588 8.86003 17.0054 9.23438C16.4601 9.60059 15.7928 9.82438 15.0034 9.90576L14.0146 10.3086ZM13.8926 19H8.48486L8.91211 18.0967H13.8926C14.8447 18.0967 15.6585 17.938 16.334 17.6206C17.0176 17.2951 17.5425 16.8353 17.9087 16.2412C18.283 15.639 18.4702 14.9188 18.4702 14.0806C18.4702 13.4051 18.3075 12.7826 17.9819 12.2129C17.6564 11.6351 17.1641 11.1753 16.5049 10.8335C15.8457 10.4836 15.0156 10.3086 14.0146 10.3086H11.0361L11.0605 9.41748H15.3452L15.4795 9.73486C16.2526 9.82438 16.9362 10.0726 17.5303 10.4795C18.1325 10.8864 18.6045 11.4032 18.9463 12.0298C19.2881 12.6483 19.459 13.3237 19.459 14.0562C19.459 15.1222 19.223 16.0215 18.751 16.7539C18.279 17.4863 17.6239 18.0438 16.7856 18.4263C15.9556 18.8088 14.9912 19 13.8926 19Z" fill="white"/>
<path d="M31.0435 16.5708V9.74707C31.0435 9.05534 30.897 8.46126 30.604 7.96484C30.311 7.46842 29.8838 7.09001 29.3223 6.82959C28.7607 6.56104 28.0731 6.42676 27.2593 6.42676C26.5024 6.42676 25.8229 6.56104 25.2207 6.82959C24.6266 7.09001 24.1587 7.44808 23.8169 7.90381C23.4751 8.35954 23.3042 8.86816 23.3042 9.42969L22.3276 9.41748C22.3276 8.91292 22.4456 8.42871 22.6816 7.96484C22.9258 7.50098 23.2676 7.09001 23.707 6.73193C24.1546 6.36572 24.6795 6.07682 25.2817 5.86523C25.8921 5.65365 26.5594 5.54785 27.2837 5.54785C28.2114 5.54785 29.0293 5.70654 29.7373 6.02393C30.4535 6.33317 31.0109 6.80111 31.4097 7.42773C31.8084 8.05436 32.0078 8.83561 32.0078 9.77148V16.29C32.0078 16.762 32.0404 17.2381 32.1055 17.7183C32.1706 18.1984 32.2601 18.585 32.374 18.8779V19H31.312C31.2225 18.6908 31.1533 18.3123 31.1045 17.8647C31.0638 17.4172 31.0435 16.9858 31.0435 16.5708ZM31.3608 11.5049L31.3853 12.3472H28.1626C27.3488 12.3472 26.6204 12.4245 25.9775 12.5791C25.3346 12.7337 24.7894 12.9535 24.3418 13.2383C23.8942 13.5231 23.5524 13.8608 23.3164 14.2515C23.0804 14.6421 22.9624 15.0815 22.9624 15.5698C22.9624 16.0744 23.0967 16.5382 23.3652 16.9614C23.6338 17.3846 24.0122 17.7223 24.5005 17.9746C24.9888 18.2188 25.5544 18.3408 26.1973 18.3408C27.0762 18.3408 27.8534 18.1903 28.5288 17.8892C29.2124 17.5799 29.7861 17.1649 30.25 16.644C30.7139 16.1151 31.0516 15.5047 31.2632 14.813L31.6904 15.521C31.5521 15.9523 31.3364 16.3877 31.0435 16.8271C30.7505 17.2666 30.3721 17.6694 29.9082 18.0356C29.4443 18.3937 28.8991 18.6867 28.2725 18.9146C27.6458 19.1343 26.9338 19.2441 26.1362 19.2441C25.298 19.2441 24.5656 19.0895 23.939 18.7803C23.3205 18.4629 22.8403 18.0316 22.4985 17.4863C22.1567 16.9329 21.9858 16.3022 21.9858 15.5942C21.9858 14.9839 22.1242 14.4264 22.4009 13.9219C22.6776 13.4173 23.0763 12.986 23.5972 12.6279C24.1261 12.2617 24.765 11.985 25.5137 11.7979C26.2705 11.6025 27.1209 11.5049 28.0649 11.5049H31.3608Z" fill="white"/>
<path d="M36.1704 5.79199H37.147V18.1089H43.6533V5.79199H44.6421V18.1089H51.063V5.79199H52.0396V19H36.1704V5.79199Z" fill="white"/>
<path d="M60.6333 19.2441C59.8032 19.2441 59.0342 19.0854 58.3262 18.7681C57.6182 18.4425 56.9997 17.9909 56.4707 17.4131C55.9417 16.8271 55.5267 16.1354 55.2256 15.3379C54.9326 14.5404 54.7861 13.6655 54.7861 12.7134V12.1763C54.7861 11.1916 54.9326 10.2964 55.2256 9.49072C55.5267 8.67692 55.9336 7.97705 56.4463 7.39111C56.959 6.79704 57.549 6.34131 58.2163 6.02393C58.8918 5.70654 59.612 5.54785 60.377 5.54785C61.1501 5.54785 61.8499 5.69027 62.4766 5.9751C63.1032 6.25993 63.6403 6.65869 64.0879 7.17139C64.5355 7.68408 64.8773 8.29443 65.1133 9.00244C65.3493 9.71045 65.4673 10.4917 65.4673 11.3462V12.1641H55.3965V11.2729H64.5029V11.1143C64.4948 10.2842 64.3239 9.51514 63.9902 8.80713C63.6647 8.09912 63.1968 7.52946 62.5864 7.09814C61.9761 6.65869 61.2396 6.43896 60.377 6.43896C59.6852 6.43896 59.0545 6.58545 58.4849 6.87842C57.9233 7.17139 57.4391 7.57829 57.0322 8.09912C56.6253 8.61182 56.312 9.2181 56.0923 9.91797C55.8726 10.6097 55.7627 11.3625 55.7627 12.1763V12.7134C55.7627 13.4946 55.8848 14.2271 56.1289 14.9106C56.373 15.5942 56.7148 16.1965 57.1543 16.7173C57.5938 17.23 58.1105 17.6328 58.7046 17.9258C59.2987 18.2188 59.9497 18.3652 60.6577 18.3652C61.4227 18.3652 62.1226 18.231 62.7573 17.9624C63.3921 17.6938 63.9699 17.2218 64.4907 16.5464L65.1255 17.0225C64.8325 17.4456 64.4785 17.8241 64.0635 18.1577C63.6484 18.4914 63.1561 18.7559 62.5864 18.9512C62.0249 19.1465 61.3739 19.2441 60.6333 19.2441Z" fill="white"/>
<path d="M83.1553 0.0424805H84.0464C84.0464 0.547038 83.9487 0.982422 83.7534 1.34863C83.5581 1.71484 83.2733 2.02409 82.8989 2.27637C82.5246 2.52865 82.0729 2.7321 81.5439 2.88672C81.0231 3.0332 80.4331 3.1512 79.7739 3.24072C78.9845 3.33024 78.2643 3.58659 77.6133 4.00977C76.9704 4.43294 76.417 5.00667 75.9531 5.73096C75.4974 6.45524 75.1475 7.32194 74.9033 8.33105C74.6592 9.33203 74.5452 10.4673 74.5615 11.7368V12.8843H73.6704V11.7368C73.6704 10.3534 73.8088 9.1123 74.0854 8.01367C74.3621 6.9069 74.7609 5.95475 75.2817 5.15723C75.8026 4.3597 76.4251 3.72087 77.1494 3.24072C77.8818 2.76058 78.6956 2.4554 79.5908 2.3252C80.5267 2.18685 81.251 2.01188 81.7637 1.80029C82.2845 1.5887 82.6466 1.33643 82.8501 1.04346C83.0535 0.750488 83.1553 0.416829 83.1553 0.0424805ZM79.5542 6.71973C80.4168 6.71973 81.1981 6.86621 81.8979 7.15918C82.606 7.44401 83.2122 7.85091 83.7168 8.37988C84.2214 8.90885 84.6079 9.53141 84.8765 10.2476C85.1532 10.9637 85.2915 11.749 85.2915 12.6035V13.0796C85.2915 13.9748 85.1532 14.8008 84.8765 15.5576C84.5998 16.3063 84.2051 16.9574 83.6924 17.5107C83.1878 18.0641 82.5775 18.4914 81.8613 18.7925C81.1533 19.0936 80.3639 19.2441 79.4932 19.2441C78.6224 19.2441 77.8289 19.0936 77.1128 18.7925C76.3966 18.4914 75.7822 18.0641 75.2695 17.5107C74.7568 16.9574 74.3621 16.3063 74.0854 15.5576C73.8088 14.8008 73.6704 13.9748 73.6704 13.0796V12.6035C73.6704 12.3512 73.6867 12.103 73.7192 11.8589C73.7599 11.6147 73.8128 11.3747 73.8779 11.1387C73.943 10.9027 74.0163 10.6748 74.0977 10.4551C74.3743 9.71452 74.769 9.06755 75.2817 8.51416C75.8026 7.95264 76.4211 7.51318 77.1372 7.1958C77.8615 6.87842 78.6672 6.71973 79.5542 6.71973ZM79.4688 7.61084C78.4434 7.61084 77.5726 7.84684 76.8564 8.31885C76.1403 8.78271 75.591 9.39714 75.2085 10.1621C74.8341 10.9189 74.647 11.7327 74.647 12.6035V13.0796C74.647 13.7795 74.7528 14.4468 74.9644 15.0815C75.1841 15.7163 75.4974 16.2778 75.9043 16.7661C76.3193 17.2544 76.8239 17.641 77.418 17.9258C78.0202 18.2106 78.7119 18.353 79.4932 18.353C80.2663 18.353 80.9499 18.2106 81.5439 17.9258C82.138 17.641 82.6385 17.2544 83.0454 16.7661C83.4604 16.2778 83.7738 15.7163 83.9854 15.0815C84.1969 14.4468 84.3027 13.7795 84.3027 13.0796V12.6035C84.3027 11.9525 84.1969 11.3258 83.9854 10.7236C83.7738 10.1214 83.4604 9.58838 83.0454 9.12451C82.6304 8.66064 82.1217 8.29443 81.5195 8.02588C80.9255 7.74919 80.2419 7.61084 79.4688 7.61084Z" fill="white"/>
<path d="M97.2788 5.79199V6.69531H90.4062V5.79199H97.2788ZM97.9868 5.79199V19H97.0103V5.79199H97.9868ZM90.1011 5.79199H91.0776L90.8091 11.8711C90.7684 12.8883 90.6992 13.7876 90.6016 14.5688C90.5039 15.3501 90.3656 16.0215 90.1865 16.583C90.0156 17.1445 89.7959 17.6043 89.5273 17.9624C89.2588 18.3205 88.9333 18.585 88.5508 18.7559C88.1683 18.9186 87.7166 19 87.1958 19H86.7441V18.0967L87.1836 18.0845C87.5335 18.0763 87.8428 18.0112 88.1113 17.8892C88.388 17.759 88.624 17.5514 88.8193 17.2666C89.0228 16.9736 89.1937 16.583 89.332 16.0947C89.4704 15.6064 89.5843 15.0042 89.6738 14.2881C89.7633 13.5719 89.8244 12.7174 89.8569 11.7246L90.1011 5.79199Z" fill="white"/>
<path d="M110.267 16.5708V9.74707C110.267 9.05534 110.121 8.46126 109.828 7.96484C109.535 7.46842 109.107 7.09001 108.546 6.82959C107.984 6.56104 107.297 6.42676 106.483 6.42676C105.726 6.42676 105.047 6.56104 104.444 6.82959C103.85 7.09001 103.382 7.44808 103.041 7.90381C102.699 8.35954 102.528 8.86816 102.528 9.42969L101.551 9.41748C101.551 8.91292 101.669 8.42871 101.905 7.96484C102.149 7.50098 102.491 7.09001 102.931 6.73193C103.378 6.36572 103.903 6.07682 104.505 5.86523C105.116 5.65365 105.783 5.54785 106.507 5.54785C107.435 5.54785 108.253 5.70654 108.961 6.02393C109.677 6.33317 110.235 6.80111 110.633 7.42773C111.032 8.05436 111.231 8.83561 111.231 9.77148V16.29C111.231 16.762 111.264 17.2381 111.329 17.7183C111.394 18.1984 111.484 18.585 111.598 18.8779V19H110.536C110.446 18.6908 110.377 18.3123 110.328 17.8647C110.287 17.4172 110.267 16.9858 110.267 16.5708ZM110.584 11.5049L110.609 12.3472H107.386C106.572 12.3472 105.844 12.4245 105.201 12.5791C104.558 12.7337 104.013 12.9535 103.565 13.2383C103.118 13.5231 102.776 13.8608 102.54 14.2515C102.304 14.6421 102.186 15.0815 102.186 15.5698C102.186 16.0744 102.32 16.5382 102.589 16.9614C102.857 17.3846 103.236 17.7223 103.724 17.9746C104.212 18.2188 104.778 18.3408 105.421 18.3408C106.3 18.3408 107.077 18.1903 107.752 17.8892C108.436 17.5799 109.01 17.1649 109.474 16.644C109.938 16.1151 110.275 15.5047 110.487 14.813L110.914 15.521C110.776 15.9523 110.56 16.3877 110.267 16.8271C109.974 17.2666 109.596 17.6694 109.132 18.0356C108.668 18.3937 108.123 18.6867 107.496 18.9146C106.869 19.1343 106.157 19.2441 105.36 19.2441C104.522 19.2441 103.789 19.0895 103.163 18.7803C102.544 18.4629 102.064 18.0316 101.722 17.4863C101.38 16.9329 101.209 16.3022 101.209 15.5942C101.209 14.9839 101.348 14.4264 101.625 13.9219C101.901 13.4173 102.3 12.986 102.821 12.6279C103.35 12.2617 103.989 11.985 104.737 11.7979C105.494 11.6025 106.345 11.5049 107.289 11.5049H110.584Z" fill="white"/>
<path d="M123.414 5.79199V6.69531H116.358V19H115.394V5.79199H123.414Z" fill="white"/>
<path d="M124.757 12.6279V12.1641C124.757 11.1956 124.895 10.3086 125.172 9.50293C125.457 8.69727 125.855 8.00146 126.368 7.41553C126.881 6.82145 127.491 6.36165 128.199 6.03613C128.915 5.71061 129.709 5.54785 130.58 5.54785C131.45 5.54785 132.244 5.71061 132.96 6.03613C133.676 6.36165 134.291 6.82145 134.803 7.41553C135.324 8.00146 135.723 8.69727 136 9.50293C136.276 10.3086 136.415 11.1956 136.415 12.1641V12.6279C136.415 13.5964 136.276 14.4834 136 15.2891C135.723 16.0947 135.328 16.7946 134.815 17.3887C134.303 17.9746 133.688 18.4303 132.972 18.7559C132.264 19.0814 131.475 19.2441 130.604 19.2441C129.725 19.2441 128.928 19.0814 128.211 18.7559C127.503 18.4303 126.889 17.9746 126.368 17.3887C125.855 16.7946 125.457 16.0947 125.172 15.2891C124.895 14.4834 124.757 13.5964 124.757 12.6279ZM125.733 12.1641V12.6279C125.733 13.3929 125.839 14.1213 126.051 14.813C126.271 15.4966 126.588 16.1069 127.003 16.644C127.418 17.173 127.927 17.5921 128.529 17.9014C129.131 18.2025 129.823 18.353 130.604 18.353C131.369 18.353 132.053 18.2025 132.655 17.9014C133.257 17.5921 133.762 17.173 134.168 16.644C134.583 16.1069 134.897 15.4966 135.108 14.813C135.328 14.1213 135.438 13.3929 135.438 12.6279V12.1641C135.438 11.4154 135.328 10.6992 135.108 10.0156C134.897 9.33203 134.583 8.72168 134.168 8.18457C133.753 7.64746 133.245 7.22428 132.643 6.91504C132.04 6.59766 131.353 6.43896 130.58 6.43896C129.806 6.43896 129.119 6.59766 128.517 6.91504C127.923 7.22428 127.414 7.64746 126.991 8.18457C126.576 8.72168 126.262 9.33203 126.051 10.0156C125.839 10.6992 125.733 11.4154 125.733 12.1641Z" fill="white"/>
<path d="M148.585 5.79199V6.69531H140.235V5.79199H148.585ZM140.565 5.79199V19H139.588V5.79199H140.565ZM149.305 5.79199V19H148.316V5.79199H149.305Z" fill="white"/>
<path d="M152.467 12.6279V12.1641C152.467 11.1956 152.605 10.3086 152.882 9.50293C153.167 8.69727 153.565 8.00146 154.078 7.41553C154.591 6.82145 155.201 6.36165 155.909 6.03613C156.625 5.71061 157.419 5.54785 158.29 5.54785C159.16 5.54785 159.954 5.71061 160.67 6.03613C161.386 6.36165 162 6.82145 162.513 7.41553C163.034 8.00146 163.433 8.69727 163.709 9.50293C163.986 10.3086 164.125 11.1956 164.125 12.1641V12.6279C164.125 13.5964 163.986 14.4834 163.709 15.2891C163.433 16.0947 163.038 16.7946 162.525 17.3887C162.013 17.9746 161.398 18.4303 160.682 18.7559C159.974 19.0814 159.185 19.2441 158.314 19.2441C157.435 19.2441 156.638 19.0814 155.921 18.7559C155.213 18.4303 154.599 17.9746 154.078 17.3887C153.565 16.7946 153.167 16.0947 152.882 15.2891C152.605 14.4834 152.467 13.5964 152.467 12.6279ZM153.443 12.1641V12.6279C153.443 13.3929 153.549 14.1213 153.761 14.813C153.98 15.4966 154.298 16.1069 154.713 16.644C155.128 17.173 155.637 17.5921 156.239 17.9014C156.841 18.2025 157.533 18.353 158.314 18.353C159.079 18.353 159.763 18.2025 160.365 17.9014C160.967 17.5921 161.472 17.173 161.878 16.644C162.293 16.1069 162.607 15.4966 162.818 14.813C163.038 14.1213 163.148 13.3929 163.148 12.6279V12.1641C163.148 11.4154 163.038 10.6992 162.818 10.0156C162.607 9.33203 162.293 8.72168 161.878 8.18457C161.463 7.64746 160.955 7.22428 160.353 6.91504C159.75 6.59766 159.063 6.43896 158.29 6.43896C157.516 6.43896 156.829 6.59766 156.227 6.91504C155.632 7.22428 155.124 7.64746 154.701 8.18457C154.286 8.72168 153.972 9.33203 153.761 10.0156C153.549 10.6992 153.443 11.4154 153.443 12.1641Z" fill="white"/>
<path d="M176.112 5.79199V6.69531H169.239V5.79199H176.112ZM176.82 5.79199V19H175.843V5.79199H176.82ZM168.934 5.79199H169.911L169.642 11.8711C169.601 12.8883 169.532 13.7876 169.435 14.5688C169.337 15.3501 169.199 16.0215 169.02 16.583C168.849 17.1445 168.629 17.6043 168.36 17.9624C168.092 18.3205 167.766 18.585 167.384 18.7559C167.001 18.9186 166.55 19 166.029 19H165.577V18.0967L166.017 18.0845C166.367 18.0763 166.676 18.0112 166.944 17.8892C167.221 17.759 167.457 17.5514 167.652 17.2666C167.856 16.9736 168.027 16.583 168.165 16.0947C168.303 15.6064 168.417 15.0042 168.507 14.2881C168.596 13.5719 168.657 12.7174 168.69 11.7246L168.934 5.79199Z" fill="white"/>
<path d="M184.95 17.7061L189.344 5.79199H190.406L184.645 21.1606C184.539 21.4536 184.404 21.7791 184.242 22.1372C184.079 22.5034 183.867 22.8534 183.607 23.187C183.347 23.5207 183.009 23.7933 182.594 24.0049C182.187 24.2246 181.682 24.3345 181.08 24.3345C180.942 24.3345 180.759 24.3182 180.531 24.2856C180.311 24.2612 180.148 24.2287 180.042 24.188L180.03 23.3335C180.144 23.3579 180.295 23.3783 180.482 23.3945C180.669 23.4189 180.799 23.4312 180.873 23.4312C181.41 23.4312 181.857 23.3254 182.215 23.1138C182.582 22.9103 182.887 22.6174 183.131 22.2349C183.375 21.8605 183.591 21.417 183.778 20.9043L184.95 17.7061ZM180.421 5.79199L185.108 17.7915L185.389 18.7925L184.645 19.2563L179.359 5.79199H180.421Z" fill="white"/>
<path d="M201.869 5.79199V19H200.904V5.79199H201.869ZM201.539 11.749V12.6401C201.214 12.8273 200.803 13.0104 200.306 13.1895C199.818 13.3604 199.301 13.5068 198.756 13.6289C198.219 13.7428 197.702 13.7998 197.206 13.7998C196.091 13.7998 195.159 13.6574 194.41 13.3726C193.661 13.0796 193.104 12.575 192.738 11.8589C192.372 11.1346 192.188 10.1296 192.188 8.84375V5.79199H193.165V8.84375C193.165 9.90983 193.307 10.7358 193.592 11.3218C193.877 11.9077 194.317 12.3187 194.911 12.5547C195.513 12.7907 196.278 12.9087 197.206 12.9087C197.759 12.8843 198.32 12.8151 198.89 12.7012C199.468 12.5791 199.993 12.4326 200.465 12.2617C200.937 12.0908 201.295 11.9199 201.539 11.749Z" fill="white"/>
<path d="M206.959 17.3643L214.723 5.79199H215.711V19H214.723V7.42773L206.959 19H205.995V5.79199H206.959V17.3643Z" fill="white"/>
<path d="M224.696 19.2441C223.866 19.2441 223.097 19.0854 222.389 18.7681C221.681 18.4425 221.062 17.9909 220.533 17.4131C220.004 16.8271 219.589 16.1354 219.288 15.3379C218.995 14.5404 218.849 13.6655 218.849 12.7134V12.1763C218.849 11.1916 218.995 10.2964 219.288 9.49072C219.589 8.67692 219.996 7.97705 220.509 7.39111C221.021 6.79704 221.611 6.34131 222.279 6.02393C222.954 5.70654 223.674 5.54785 224.439 5.54785C225.213 5.54785 225.912 5.69027 226.539 5.9751C227.166 6.25993 227.703 6.65869 228.15 7.17139C228.598 7.68408 228.94 8.29443 229.176 9.00244C229.412 9.71045 229.53 10.4917 229.53 11.3462V12.1641H219.459V11.2729H228.565V11.1143C228.557 10.2842 228.386 9.51514 228.053 8.80713C227.727 8.09912 227.259 7.52946 226.649 7.09814C226.039 6.65869 225.302 6.43896 224.439 6.43896C223.748 6.43896 223.117 6.58545 222.547 6.87842C221.986 7.17139 221.502 7.57829 221.095 8.09912C220.688 8.61182 220.375 9.2181 220.155 9.91797C219.935 10.6097 219.825 11.3625 219.825 12.1763V12.7134C219.825 13.4946 219.947 14.2271 220.191 14.9106C220.436 15.5942 220.777 16.1965 221.217 16.7173C221.656 17.23 222.173 17.6328 222.767 17.9258C223.361 18.2188 224.012 18.3652 224.72 18.3652C225.485 18.3652 226.185 18.231 226.82 17.9624C227.455 17.6938 228.032 17.2218 228.553 16.5464L229.188 17.0225C228.895 17.4456 228.541 17.8241 228.126 18.1577C227.711 18.4914 227.219 18.7559 226.649 18.9512C226.087 19.1465 225.436 19.2441 224.696 19.2441Z" fill="white"/>
<path d="M242.921 12.5547H240.992V11.7979H242.848C243.775 11.7979 244.512 11.6921 245.057 11.4805C245.611 11.2689 246.005 10.9678 246.241 10.5771C246.485 10.1865 246.607 9.73486 246.607 9.22217C246.607 8.70133 246.481 8.2334 246.229 7.81836C245.977 7.39518 245.574 7.06152 245.021 6.81738C244.475 6.5651 243.751 6.43896 242.848 6.43896C242.172 6.43896 241.546 6.56104 240.968 6.80518C240.39 7.04118 239.922 7.37077 239.564 7.79395C239.206 8.21712 239.027 8.71761 239.027 9.29541H238.05C238.05 8.5223 238.274 7.85905 238.722 7.30566C239.169 6.74414 239.759 6.31283 240.492 6.01172C241.224 5.70247 242.009 5.54785 242.848 5.54785C243.588 5.54785 244.251 5.62923 244.837 5.79199C245.423 5.95475 245.92 6.19482 246.327 6.51221C246.742 6.82145 247.055 7.20801 247.267 7.67188C247.486 8.1276 247.596 8.65251 247.596 9.24658C247.596 9.70231 247.494 10.1296 247.291 10.5283C247.088 10.9271 246.791 11.2811 246.4 11.5903C246.009 11.8914 245.521 12.1274 244.935 12.2983C244.357 12.4692 243.686 12.5547 242.921 12.5547ZM240.992 11.981H242.921C243.759 11.981 244.483 12.0583 245.094 12.2129C245.712 12.3594 246.225 12.5791 246.632 12.8721C247.039 13.165 247.34 13.5272 247.535 13.9585C247.73 14.3817 247.828 14.87 247.828 15.4233C247.828 16.0256 247.71 16.5627 247.474 17.0347C247.238 17.4985 246.896 17.8973 246.449 18.231C246.009 18.5565 245.484 18.8047 244.874 18.9756C244.264 19.1465 243.592 19.2319 242.86 19.2319C242.07 19.2319 241.289 19.0936 240.516 18.8169C239.743 18.5321 239.1 18.0967 238.587 17.5107C238.083 16.9248 237.831 16.1802 237.831 15.2769H238.807C238.807 15.8547 238.982 16.3755 239.332 16.8394C239.69 17.3032 240.174 17.6694 240.785 17.938C241.395 18.2065 242.087 18.3408 242.86 18.3408C243.731 18.3408 244.459 18.2228 245.045 17.9868C245.639 17.7427 246.087 17.4049 246.388 16.9736C246.689 16.5423 246.839 16.0378 246.839 15.46C246.839 14.8089 246.693 14.284 246.4 13.8853C246.107 13.4784 245.663 13.1813 245.069 12.9941C244.483 12.807 243.743 12.7134 242.848 12.7134H240.992V11.981Z" fill="white"/>
<path d="M259.413 16.5708V9.74707C259.413 9.05534 259.266 8.46126 258.973 7.96484C258.68 7.46842 258.253 7.09001 257.691 6.82959C257.13 6.56104 256.442 6.42676 255.628 6.42676C254.872 6.42676 254.192 6.56104 253.59 6.82959C252.996 7.09001 252.528 7.44808 252.186 7.90381C251.844 8.35954 251.673 8.86816 251.673 9.42969L250.697 9.41748C250.697 8.91292 250.815 8.42871 251.051 7.96484C251.295 7.50098 251.637 7.09001 252.076 6.73193C252.524 6.36572 253.049 6.07682 253.651 5.86523C254.261 5.65365 254.929 5.54785 255.653 5.54785C256.581 5.54785 257.398 5.70654 258.106 6.02393C258.823 6.33317 259.38 6.80111 259.779 7.42773C260.178 8.05436 260.377 8.83561 260.377 9.77148V16.29C260.377 16.762 260.41 17.2381 260.475 17.7183C260.54 18.1984 260.629 18.585 260.743 18.8779V19H259.681C259.592 18.6908 259.522 18.3123 259.474 17.8647C259.433 17.4172 259.413 16.9858 259.413 16.5708ZM259.73 11.5049L259.754 12.3472H256.532C255.718 12.3472 254.99 12.4245 254.347 12.5791C253.704 12.7337 253.159 12.9535 252.711 13.2383C252.263 13.5231 251.922 13.8608 251.686 14.2515C251.45 14.6421 251.332 15.0815 251.332 15.5698C251.332 16.0744 251.466 16.5382 251.734 16.9614C252.003 17.3846 252.381 17.7223 252.87 17.9746C253.358 18.2188 253.924 18.3408 254.566 18.3408C255.445 18.3408 256.222 18.1903 256.898 17.8892C257.582 17.5799 258.155 17.1649 258.619 16.644C259.083 16.1151 259.421 15.5047 259.632 14.813L260.06 15.521C259.921 15.9523 259.706 16.3877 259.413 16.8271C259.12 17.2666 258.741 17.6694 258.277 18.0356C257.813 18.3937 257.268 18.6867 256.642 18.9146C256.015 19.1343 255.303 19.2441 254.505 19.2441C253.667 19.2441 252.935 19.0895 252.308 18.7803C251.69 18.4629 251.209 18.0316 250.868 17.4863C250.526 16.9329 250.355 16.3022 250.355 15.5942C250.355 14.9839 250.493 14.4264 250.77 13.9219C251.047 13.4173 251.445 12.986 251.966 12.6279C252.495 12.2617 253.134 11.985 253.883 11.7979C254.64 11.6025 255.49 11.5049 256.434 11.5049H259.73Z" fill="white"/>
<path d="M270.13 12.75H265.309L265.284 11.8589H269.496C270.342 11.8589 271.05 11.7612 271.62 11.5659C272.197 11.3706 272.633 11.0776 272.926 10.687C273.227 10.2964 273.377 9.81624 273.377 9.24658C273.377 8.79899 273.288 8.4165 273.109 8.09912C272.938 7.7736 272.678 7.50911 272.328 7.30566C271.986 7.09408 271.559 6.93945 271.046 6.8418C270.541 6.736 269.955 6.68311 269.288 6.68311H265.602V19H264.637V5.79199H269.288C270.069 5.79199 270.769 5.86117 271.388 5.99951C272.014 6.13786 272.547 6.34945 272.987 6.63428C273.426 6.91097 273.76 7.26904 273.988 7.7085C274.224 8.14795 274.342 8.66064 274.342 9.24658C274.342 9.65348 274.269 10.036 274.122 10.394C273.976 10.744 273.76 11.0614 273.475 11.3462C273.19 11.6229 272.84 11.8507 272.425 12.0298C272.018 12.2007 271.546 12.3065 271.009 12.3472L270.13 12.75ZM270.13 19H265.077L265.284 18.1089H270.13C270.92 18.1089 271.599 18.0072 272.169 17.8037C272.739 17.5921 273.174 17.2829 273.475 16.876C273.784 16.4691 273.939 15.9727 273.939 15.3867C273.939 14.8577 273.784 14.3979 273.475 14.0073C273.174 13.6086 272.739 13.2993 272.169 13.0796C271.599 12.8599 270.92 12.75 270.13 12.75H266.798L266.822 11.8589H271.192L271.681 12.1885C272.315 12.2536 272.873 12.4367 273.353 12.7378C273.833 13.0389 274.208 13.4214 274.476 13.8853C274.753 14.341 274.891 14.8415 274.891 15.3867C274.891 15.9889 274.777 16.5138 274.549 16.9614C274.321 17.409 273.996 17.7874 273.573 18.0967C273.158 18.3978 272.657 18.6257 272.071 18.7803C271.493 18.9268 270.847 19 270.13 19Z" fill="white"/>
<path d="M279.322 17.3643L287.086 5.79199H288.075V19H287.086V7.42773L279.322 19H278.358V5.79199H279.322V17.3643Z" fill="white"/>
<path d="M296.803 18.353C297.462 18.353 298.084 18.231 298.67 17.9868C299.264 17.7427 299.757 17.3724 300.147 16.876C300.546 16.3714 300.77 15.7326 300.819 14.9595H301.771C301.73 15.8384 301.478 16.5993 301.014 17.2422C300.55 17.877 299.952 18.3693 299.22 18.7192C298.487 19.0692 297.682 19.2441 296.803 19.2441C295.924 19.2441 295.139 19.0814 294.447 18.7559C293.763 18.4303 293.189 17.9705 292.726 17.3765C292.262 16.7824 291.908 16.0866 291.664 15.2891C291.428 14.4834 291.31 13.6045 291.31 12.6523V12.1396C291.31 11.1875 291.428 10.3127 291.664 9.51514C291.908 8.70947 292.262 8.0096 292.726 7.41553C293.189 6.82145 293.759 6.36165 294.435 6.03613C295.118 5.71061 295.899 5.54785 296.778 5.54785C297.665 5.54785 298.479 5.73096 299.22 6.09717C299.96 6.45524 300.558 6.98014 301.014 7.67188C301.478 8.35547 301.73 9.19368 301.771 10.1865H300.819C300.778 9.37272 300.571 8.68913 300.196 8.13574C299.822 7.58236 299.334 7.16325 298.731 6.87842C298.129 6.58545 297.478 6.43896 296.778 6.43896C295.997 6.43896 295.322 6.58952 294.752 6.89062C294.182 7.19173 293.714 7.60677 293.348 8.13574C292.982 8.65658 292.713 9.26286 292.542 9.95459C292.372 10.6382 292.286 11.3665 292.286 12.1396V12.6523C292.286 13.4336 292.372 14.1701 292.542 14.8618C292.713 15.5454 292.982 16.1476 293.348 16.6685C293.714 17.1893 294.182 17.6003 294.752 17.9014C295.33 18.2025 296.013 18.353 296.803 18.353Z" fill="white"/>
<path d="M305.934 17.3643L313.697 5.79199H314.686V19H313.697V7.42773L305.934 19H304.969V5.79199H305.934V17.3643Z" fill="white"/>
<path d="M323.023 5.79199V19H322.047V5.79199H323.023ZM328.053 5.79199V6.68311H317.237V5.79199H328.053Z" fill="white"/>
<path d="M78.4922 47.6279V47.1641C78.4922 46.1956 78.6305 45.3086 78.9072 44.5029C79.1921 43.6973 79.5908 43.0015 80.1035 42.4155C80.6162 41.8215 81.2266 41.3617 81.9346 41.0361C82.6507 40.7106 83.4442 40.5479 84.3149 40.5479C85.1857 40.5479 85.9792 40.7106 86.6953 41.0361C87.4115 41.3617 88.0259 41.8215 88.5386 42.4155C89.0594 43.0015 89.4582 43.6973 89.7349 44.5029C90.0116 45.3086 90.1499 46.1956 90.1499 47.1641V47.6279C90.1499 48.5964 90.0116 49.4834 89.7349 50.2891C89.4582 51.0947 89.0635 51.7946 88.5508 52.3887C88.0381 52.9746 87.4237 53.4303 86.7075 53.7559C85.9995 54.0814 85.2101 54.2441 84.3394 54.2441C83.4604 54.2441 82.6629 54.0814 81.9468 53.7559C81.2388 53.4303 80.6243 52.9746 80.1035 52.3887C79.5908 51.7946 79.1921 51.0947 78.9072 50.2891C78.6305 49.4834 78.4922 48.5964 78.4922 47.6279ZM79.4688 47.1641V47.6279C79.4688 48.3929 79.5745 49.1213 79.7861 49.813C80.0059 50.4966 80.3232 51.1069 80.7383 51.644C81.1533 52.173 81.6619 52.5921 82.2642 52.9014C82.8664 53.2025 83.5581 53.353 84.3394 53.353C85.1043 53.353 85.7879 53.2025 86.3901 52.9014C86.9924 52.5921 87.4969 52.173 87.9038 51.644C88.3188 51.1069 88.6322 50.4966 88.8438 49.813C89.0635 49.1213 89.1733 48.3929 89.1733 47.6279V47.1641C89.1733 46.4154 89.0635 45.6992 88.8438 45.0156C88.6322 44.332 88.3188 43.7217 87.9038 43.1846C87.4888 42.6475 86.9801 42.2243 86.3779 41.915C85.7757 41.5977 85.0881 41.439 84.3149 41.439C83.5418 41.439 82.8542 41.5977 82.252 41.915C81.6579 42.2243 81.1493 42.6475 80.7261 43.1846C80.311 43.7217 79.9977 44.332 79.7861 45.0156C79.5745 45.6992 79.4688 46.4154 79.4688 47.1641Z" fill="white"/>
<path d="M97.2666 40.792V54H96.29V40.792H97.2666ZM102.296 40.792V41.6831H91.4805V40.792H102.296Z" fill="white"/>
<path d="M116.468 47.75H111.646L111.622 46.8589H115.833C116.68 46.8589 117.388 46.7612 117.958 46.5659C118.535 46.3706 118.971 46.0776 119.264 45.687C119.565 45.2964 119.715 44.8162 119.715 44.2466C119.715 43.799 119.626 43.4165 119.447 43.0991C119.276 42.7736 119.015 42.5091 118.666 42.3057C118.324 42.0941 117.896 41.9395 117.384 41.8418C116.879 41.736 116.293 41.6831 115.626 41.6831H111.939V54H110.975V40.792H115.626C116.407 40.792 117.107 40.8612 117.726 40.9995C118.352 41.1379 118.885 41.3494 119.325 41.6343C119.764 41.911 120.098 42.269 120.326 42.7085C120.562 43.1479 120.68 43.6606 120.68 44.2466C120.68 44.6535 120.606 45.036 120.46 45.394C120.313 45.744 120.098 46.0614 119.813 46.3462C119.528 46.6229 119.178 46.8507 118.763 47.0298C118.356 47.2007 117.884 47.3065 117.347 47.3472L116.468 47.75ZM116.468 54H111.415L111.622 53.1089H116.468C117.258 53.1089 117.937 53.0072 118.507 52.8037C119.076 52.5921 119.512 52.2829 119.813 51.876C120.122 51.4691 120.277 50.9727 120.277 50.3867C120.277 49.8577 120.122 49.3979 119.813 49.0073C119.512 48.6086 119.076 48.2993 118.507 48.0796C117.937 47.8599 117.258 47.75 116.468 47.75H113.136L113.16 46.8589H117.53L118.019 47.1885C118.653 47.2536 119.211 47.4367 119.691 47.7378C120.171 48.0389 120.545 48.4214 120.814 48.8853C121.091 49.341 121.229 49.8415 121.229 50.3867C121.229 50.9889 121.115 51.5138 120.887 51.9614C120.659 52.409 120.334 52.7874 119.911 53.0967C119.496 53.3978 118.995 53.6257 118.409 53.7803C117.831 53.9268 117.184 54 116.468 54Z" fill="white"/>
<path d="M132.85 51.5708V44.7471C132.85 44.0553 132.704 43.4613 132.411 42.9648C132.118 42.4684 131.69 42.09 131.129 41.8296C130.567 41.561 129.88 41.4268 129.066 41.4268C128.309 41.4268 127.63 41.561 127.027 41.8296C126.433 42.09 125.965 42.4481 125.624 42.9038C125.282 43.3595 125.111 43.8682 125.111 44.4297L124.134 44.4175C124.134 43.9129 124.252 43.4287 124.488 42.9648C124.732 42.501 125.074 42.09 125.514 41.7319C125.961 41.3657 126.486 41.0768 127.088 40.8652C127.699 40.6536 128.366 40.5479 129.09 40.5479C130.018 40.5479 130.836 40.7065 131.544 41.0239C132.26 41.3332 132.818 41.8011 133.216 42.4277C133.615 43.0544 133.814 43.8356 133.814 44.7715V51.29C133.814 51.762 133.847 52.2381 133.912 52.7183C133.977 53.1984 134.067 53.585 134.181 53.8779V54H133.119C133.029 53.6908 132.96 53.3123 132.911 52.8647C132.87 52.4172 132.85 51.9858 132.85 51.5708ZM133.167 46.5049L133.192 47.3472H129.969C129.155 47.3472 128.427 47.4245 127.784 47.5791C127.141 47.7337 126.596 47.9535 126.148 48.2383C125.701 48.5231 125.359 48.8608 125.123 49.2515C124.887 49.6421 124.769 50.0815 124.769 50.5698C124.769 51.0744 124.903 51.5382 125.172 51.9614C125.44 52.3846 125.819 52.7223 126.307 52.9746C126.795 53.2188 127.361 53.3408 128.004 53.3408C128.883 53.3408 129.66 53.1903 130.335 52.8892C131.019 52.5799 131.593 52.1649 132.057 51.644C132.521 51.1151 132.858 50.5047 133.07 49.813L133.497 50.521C133.359 50.9523 133.143 51.3877 132.85 51.8271C132.557 52.2666 132.179 52.6694 131.715 53.0356C131.251 53.3937 130.706 53.6867 130.079 53.9146C129.452 54.1343 128.74 54.2441 127.943 54.2441C127.105 54.2441 126.372 54.0895 125.746 53.7803C125.127 53.4629 124.647 53.0316 124.305 52.4863C123.963 51.9329 123.792 51.3022 123.792 50.5942C123.792 49.9839 123.931 49.4264 124.208 48.9219C124.484 48.4173 124.883 47.986 125.404 47.6279C125.933 47.2617 126.572 46.985 127.32 46.7979C128.077 46.6025 128.928 46.5049 129.872 46.5049H133.167Z" fill="white"/>
<path d="M137.977 40.792H138.954V53.1089H145.46V40.792H146.449V53.1089H152.87V40.792H153.846V54H137.977V40.792Z" fill="white"/>
<path d="M158.546 52.3643L166.31 40.792H167.298V54H166.31V42.4277L158.546 54H157.582V40.792H158.546V52.3643Z" fill="white"/>
<path d="M171.4 40.792L175.367 46.4438L179.322 40.792H180.506L175.929 47.2373L180.738 54H179.566L175.367 48.043L171.168 54H169.996L174.793 47.2373L170.228 40.792H171.4Z" fill="white"/>
<path d="M194.093 53.353C194.752 53.353 195.375 53.231 195.96 52.9868C196.555 52.7427 197.047 52.3724 197.438 51.876C197.836 51.3714 198.06 50.7326 198.109 49.9595H199.061C199.02 50.8384 198.768 51.5993 198.304 52.2422C197.84 52.877 197.242 53.3693 196.51 53.7192C195.777 54.0692 194.972 54.2441 194.093 54.2441C193.214 54.2441 192.429 54.0814 191.737 53.7559C191.053 53.4303 190.479 52.9705 190.016 52.3765C189.552 51.7824 189.198 51.0866 188.954 50.2891C188.718 49.4834 188.6 48.6045 188.6 47.6523V47.1396C188.6 46.1875 188.718 45.3127 188.954 44.5151C189.198 43.7095 189.552 43.0096 190.016 42.4155C190.479 41.8215 191.049 41.3617 191.725 41.0361C192.408 40.7106 193.189 40.5479 194.068 40.5479C194.955 40.5479 195.769 40.731 196.51 41.0972C197.25 41.4552 197.848 41.9801 198.304 42.6719C198.768 43.3555 199.02 44.1937 199.061 45.1865H198.109C198.068 44.3727 197.861 43.6891 197.486 43.1357C197.112 42.5824 196.624 42.1632 196.021 41.8784C195.419 41.5854 194.768 41.439 194.068 41.439C193.287 41.439 192.612 41.5895 192.042 41.8906C191.472 42.1917 191.004 42.6068 190.638 43.1357C190.272 43.6566 190.003 44.2629 189.833 44.9546C189.662 45.6382 189.576 46.3665 189.576 47.1396V47.6523C189.576 48.4336 189.662 49.1701 189.833 49.8618C190.003 50.5454 190.272 51.1476 190.638 51.6685C191.004 52.1893 191.472 52.6003 192.042 52.9014C192.62 53.2025 193.303 53.353 194.093 53.353Z" fill="white"/>
<path d="M201.295 47.6279V47.1641C201.295 46.1956 201.433 45.3086 201.71 44.5029C201.995 43.6973 202.394 43.0015 202.906 42.4155C203.419 41.8215 204.029 41.3617 204.737 41.0361C205.453 40.7106 206.247 40.5479 207.118 40.5479C207.988 40.5479 208.782 40.7106 209.498 41.0361C210.214 41.3617 210.829 41.8215 211.341 42.4155C211.862 43.0015 212.261 43.6973 212.538 44.5029C212.814 45.3086 212.953 46.1956 212.953 47.1641V47.6279C212.953 48.5964 212.814 49.4834 212.538 50.2891C212.261 51.0947 211.866 51.7946 211.354 52.3887C210.841 52.9746 210.226 53.4303 209.51 53.7559C208.802 54.0814 208.013 54.2441 207.142 54.2441C206.263 54.2441 205.466 54.0814 204.75 53.7559C204.042 53.4303 203.427 52.9746 202.906 52.3887C202.394 51.7946 201.995 51.0947 201.71 50.2891C201.433 49.4834 201.295 48.5964 201.295 47.6279ZM202.271 47.1641V47.6279C202.271 48.3929 202.377 49.1213 202.589 49.813C202.809 50.4966 203.126 51.1069 203.541 51.644C203.956 52.173 204.465 52.5921 205.067 52.9014C205.669 53.2025 206.361 53.353 207.142 53.353C207.907 53.353 208.591 53.2025 209.193 52.9014C209.795 52.5921 210.3 52.173 210.707 51.644C211.122 51.1069 211.435 50.4966 211.646 49.813C211.866 49.1213 211.976 48.3929 211.976 47.6279V47.1641C211.976 46.4154 211.866 45.6992 211.646 45.0156C211.435 44.332 211.122 43.7217 210.707 43.1846C210.292 42.6475 209.783 42.2243 209.181 41.915C208.578 41.5977 207.891 41.439 207.118 41.439C206.345 41.439 205.657 41.5977 205.055 41.915C204.461 42.2243 203.952 42.6475 203.529 43.1846C203.114 43.7217 202.8 44.332 202.589 45.0156C202.377 45.6992 202.271 46.4154 202.271 47.1641Z" fill="white"/>
<path d="M224.732 35.0425H225.624C225.624 35.547 225.526 35.9824 225.331 36.3486C225.135 36.7148 224.85 37.0241 224.476 37.2764C224.102 37.5286 223.65 37.7321 223.121 37.8867C222.6 38.0332 222.01 38.1512 221.351 38.2407C220.562 38.3302 219.841 38.5866 219.19 39.0098C218.548 39.4329 217.994 40.0067 217.53 40.731C217.075 41.4552 216.725 42.3219 216.48 43.3311C216.236 44.332 216.122 45.4673 216.139 46.7368V47.8843H215.248V46.7368C215.248 45.3534 215.386 44.1123 215.663 43.0137C215.939 41.9069 216.338 40.9548 216.859 40.1572C217.38 39.3597 218.002 38.7209 218.727 38.2407C219.459 37.7606 220.273 37.4554 221.168 37.3252C222.104 37.1868 222.828 37.0119 223.341 36.8003C223.862 36.5887 224.224 36.3364 224.427 36.0435C224.631 35.7505 224.732 35.4168 224.732 35.0425ZM221.131 41.7197C221.994 41.7197 222.775 41.8662 223.475 42.1592C224.183 42.444 224.789 42.8509 225.294 43.3799C225.799 43.9089 226.185 44.5314 226.454 45.2476C226.73 45.9637 226.869 46.749 226.869 47.6035V48.0796C226.869 48.9748 226.73 49.8008 226.454 50.5576C226.177 51.3063 225.782 51.9574 225.27 52.5107C224.765 53.0641 224.155 53.4914 223.438 53.7925C222.73 54.0936 221.941 54.2441 221.07 54.2441C220.2 54.2441 219.406 54.0936 218.69 53.7925C217.974 53.4914 217.359 53.0641 216.847 52.5107C216.334 51.9574 215.939 51.3063 215.663 50.5576C215.386 49.8008 215.248 48.9748 215.248 48.0796V47.6035C215.248 47.3512 215.264 47.103 215.296 46.8589C215.337 46.6147 215.39 46.3747 215.455 46.1387C215.52 45.9027 215.593 45.6748 215.675 45.4551C215.951 44.7145 216.346 44.0675 216.859 43.5142C217.38 42.9526 217.998 42.5132 218.714 42.1958C219.439 41.8784 220.244 41.7197 221.131 41.7197ZM221.046 42.6108C220.021 42.6108 219.15 42.8468 218.434 43.3188C217.717 43.7827 217.168 44.3971 216.786 45.1621C216.411 45.9189 216.224 46.7327 216.224 47.6035V48.0796C216.224 48.7795 216.33 49.4468 216.542 50.0815C216.761 50.7163 217.075 51.2778 217.481 51.7661C217.896 52.2544 218.401 52.641 218.995 52.9258C219.597 53.2106 220.289 53.353 221.07 53.353C221.843 53.353 222.527 53.2106 223.121 52.9258C223.715 52.641 224.216 52.2544 224.623 51.7661C225.038 51.2778 225.351 50.7163 225.562 50.0815C225.774 49.4468 225.88 48.7795 225.88 48.0796V47.6035C225.88 46.9525 225.774 46.3258 225.562 45.7236C225.351 45.1214 225.038 44.5884 224.623 44.1245C224.208 43.6606 223.699 43.2944 223.097 43.0259C222.503 42.7492 221.819 42.6108 221.046 42.6108Z" fill="white"/>
<path d="M234.449 53.353C235.108 53.353 235.731 53.231 236.317 52.9868C236.911 52.7427 237.403 52.3724 237.794 51.876C238.193 51.3714 238.417 50.7326 238.465 49.9595H239.417C239.377 50.8384 239.125 51.5993 238.661 52.2422C238.197 52.877 237.599 53.3693 236.866 53.7192C236.134 54.0692 235.328 54.2441 234.449 54.2441C233.57 54.2441 232.785 54.0814 232.093 53.7559C231.41 53.4303 230.836 52.9705 230.372 52.3765C229.908 51.7824 229.554 51.0866 229.31 50.2891C229.074 49.4834 228.956 48.6045 228.956 47.6523V47.1396C228.956 46.1875 229.074 45.3127 229.31 44.5151C229.554 43.7095 229.908 43.0096 230.372 42.4155C230.836 41.8215 231.406 41.3617 232.081 41.0361C232.765 40.7106 233.546 40.5479 234.425 40.5479C235.312 40.5479 236.126 40.731 236.866 41.0972C237.607 41.4552 238.205 41.9801 238.661 42.6719C239.125 43.3555 239.377 44.1937 239.417 45.1865H238.465C238.425 44.3727 238.217 43.6891 237.843 43.1357C237.468 42.5824 236.98 42.1632 236.378 41.8784C235.776 41.5854 235.125 41.439 234.425 41.439C233.644 41.439 232.968 41.5895 232.398 41.8906C231.829 42.1917 231.361 42.6068 230.995 43.1357C230.628 43.6566 230.36 44.2629 230.189 44.9546C230.018 45.6382 229.933 46.3665 229.933 47.1396V47.6523C229.933 48.4336 230.018 49.1701 230.189 49.8618C230.36 50.5454 230.628 51.1476 230.995 51.6685C231.361 52.1893 231.829 52.6003 232.398 52.9014C232.976 53.2025 233.66 53.353 234.449 53.353Z" fill="white"/>
<path d="M246.827 40.792V54H245.851V40.792H246.827ZM251.856 40.792V41.6831H241.041V40.792H251.856Z" fill="white"/>
<path d="M259.999 47.75H255.177L255.152 46.8589H259.364C260.21 46.8589 260.918 46.7612 261.488 46.5659C262.066 46.3706 262.501 46.0776 262.794 45.687C263.095 45.2964 263.246 44.8162 263.246 44.2466C263.246 43.799 263.156 43.4165 262.977 43.0991C262.806 42.7736 262.546 42.5091 262.196 42.3057C261.854 42.0941 261.427 41.9395 260.914 41.8418C260.41 41.736 259.824 41.6831 259.156 41.6831H255.47V54H254.505V40.792H259.156C259.938 40.792 260.637 40.8612 261.256 40.9995C261.882 41.1379 262.416 41.3494 262.855 41.6343C263.294 41.911 263.628 42.269 263.856 42.7085C264.092 43.1479 264.21 43.6606 264.21 44.2466C264.21 44.6535 264.137 45.036 263.99 45.394C263.844 45.744 263.628 46.0614 263.343 46.3462C263.058 46.6229 262.708 46.8507 262.293 47.0298C261.887 47.2007 261.415 47.3065 260.877 47.3472L259.999 47.75ZM259.999 54H254.945L255.152 53.1089H259.999C260.788 53.1089 261.467 53.0072 262.037 52.8037C262.607 52.5921 263.042 52.2829 263.343 51.876C263.653 51.4691 263.807 50.9727 263.807 50.3867C263.807 49.8577 263.653 49.3979 263.343 49.0073C263.042 48.6086 262.607 48.2993 262.037 48.0796C261.467 47.8599 260.788 47.75 259.999 47.75H256.666L256.69 46.8589H261.061L261.549 47.1885C262.184 47.2536 262.741 47.4367 263.221 47.7378C263.701 48.0389 264.076 48.4214 264.344 48.8853C264.621 49.341 264.759 49.8415 264.759 50.3867C264.759 50.9889 264.645 51.5138 264.417 51.9614C264.19 52.409 263.864 52.7874 263.441 53.0967C263.026 53.3978 262.525 53.6257 261.939 53.7803C261.362 53.9268 260.715 54 259.999 54Z" fill="white"/>
<path d="M273.084 54.2441C272.254 54.2441 271.485 54.0854 270.777 53.7681C270.069 53.4425 269.451 52.9909 268.922 52.4131C268.393 51.8271 267.978 51.1354 267.677 50.3379C267.384 49.5404 267.237 48.6655 267.237 47.7134V47.1763C267.237 46.1916 267.384 45.2964 267.677 44.4907C267.978 43.6769 268.385 42.9771 268.897 42.3911C269.41 41.797 270 41.3413 270.667 41.0239C271.343 40.7065 272.063 40.5479 272.828 40.5479C273.601 40.5479 274.301 40.6903 274.928 40.9751C275.554 41.2599 276.091 41.6587 276.539 42.1714C276.987 42.6841 277.328 43.2944 277.564 44.0024C277.8 44.7104 277.918 45.4917 277.918 46.3462V47.1641H267.848V46.2729H276.954V46.1143C276.946 45.2842 276.775 44.5151 276.441 43.8071C276.116 43.0991 275.648 42.5295 275.038 42.0981C274.427 41.6587 273.691 41.439 272.828 41.439C272.136 41.439 271.506 41.5854 270.936 41.8784C270.375 42.1714 269.89 42.5783 269.483 43.0991C269.076 43.6118 268.763 44.2181 268.543 44.918C268.324 45.6097 268.214 46.3625 268.214 47.1763V47.7134C268.214 48.4946 268.336 49.2271 268.58 49.9106C268.824 50.5942 269.166 51.1965 269.605 51.7173C270.045 52.23 270.562 52.6328 271.156 52.9258C271.75 53.2188 272.401 53.3652 273.109 53.3652C273.874 53.3652 274.574 53.231 275.208 52.9624C275.843 52.6938 276.421 52.2218 276.942 51.5464L277.577 52.0225C277.284 52.4456 276.93 52.8241 276.515 53.1577C276.1 53.4914 275.607 53.7559 275.038 53.9512C274.476 54.1465 273.825 54.2441 273.084 54.2441Z" fill="white"/>
<path d="M289.967 46.8101V47.7012H281.629V46.8101H289.967ZM281.947 40.792V54H280.97V40.792H281.947ZM290.687 40.792V54H289.698V40.792H290.687Z" fill="white"/>
<path d="M303.81 46.8101V47.7012H295.472V46.8101H303.81ZM295.79 40.792V54H294.813V40.792H295.79ZM304.53 40.792V54H303.541V40.792H304.53Z" fill="white"/>
<path d="M309.254 45.7236H313.758C314.792 45.7236 315.663 45.9027 316.371 46.2607C317.079 46.6188 317.616 47.1112 317.982 47.7378C318.348 48.3563 318.531 49.0602 318.531 49.8496C318.531 50.4518 318.425 51.0052 318.214 51.5098C318.01 52.0062 317.705 52.4416 317.298 52.8159C316.9 53.1903 316.403 53.4832 315.809 53.6948C315.215 53.8983 314.531 54 313.758 54H308.753V40.792H309.718V53.1089H313.758C314.662 53.1089 315.39 52.9543 315.943 52.645C316.505 52.3358 316.912 51.9329 317.164 51.4365C317.424 50.9401 317.555 50.4111 317.555 49.8496C317.555 49.3044 317.424 48.7876 317.164 48.2993C316.912 47.8029 316.505 47.4001 315.943 47.0908C315.39 46.7734 314.662 46.6147 313.758 46.6147H309.254V45.7236ZM322.865 40.792V54H321.888V40.792H322.865Z" fill="white"/>
<path d="M327.015 40.792L330.982 46.4438L334.938 40.792H336.122L331.544 47.2373L336.354 54H335.182L330.982 48.043L326.783 54H325.611L330.409 47.2373L325.843 40.792H327.015Z" fill="white"/>
<path d="M346.021 43.3311V59.0781H345.045V40.792H345.985L346.021 43.3311ZM355.372 47.2617V47.5181C355.372 48.519 355.258 49.4305 355.03 50.2524C354.811 51.0744 354.485 51.7824 354.054 52.3765C353.631 52.9705 353.11 53.4303 352.491 53.7559C351.873 54.0814 351.169 54.2441 350.379 54.2441C349.623 54.2441 348.943 54.1343 348.341 53.9146C347.739 53.6867 347.218 53.3693 346.778 52.9624C346.339 52.5555 345.985 52.0916 345.716 51.5708C345.448 51.0418 345.261 50.4762 345.155 49.874V45.2842C345.293 44.5924 345.501 43.9618 345.777 43.3921C346.062 42.8143 346.416 42.3138 346.839 41.8906C347.271 41.4593 347.779 41.1297 348.365 40.9019C348.951 40.6659 349.614 40.5479 350.355 40.5479C351.144 40.5479 351.848 40.7065 352.467 41.0239C353.093 41.3332 353.622 41.7808 354.054 42.3667C354.485 42.9445 354.811 43.6484 355.03 44.4785C355.258 45.3005 355.372 46.2282 355.372 47.2617ZM354.383 47.5181V47.2617C354.383 46.4316 354.298 45.6626 354.127 44.9546C353.964 44.2466 353.712 43.6322 353.37 43.1113C353.028 42.5905 352.597 42.1836 352.076 41.8906C351.555 41.5977 350.941 41.4512 350.233 41.4512C349.46 41.4512 348.805 41.5814 348.268 41.8418C347.73 42.0941 347.287 42.4237 346.937 42.8306C346.595 43.2375 346.331 43.6769 346.144 44.1489C345.956 44.6128 345.818 45.0522 345.729 45.4673V49.8008C345.875 50.4518 346.135 51.0459 346.51 51.583C346.884 52.1201 347.381 52.5514 347.999 52.877C348.626 53.1943 349.378 53.353 350.257 53.353C350.965 53.353 351.576 53.2065 352.088 52.9136C352.601 52.6206 353.028 52.2137 353.37 51.6929C353.712 51.172 353.964 50.5576 354.127 49.8496C354.298 49.1335 354.383 48.3563 354.383 47.5181Z" fill="white"/>
<path d="M363.734 54.2441C362.904 54.2441 362.135 54.0854 361.427 53.7681C360.719 53.4425 360.1 52.9909 359.571 52.4131C359.042 51.8271 358.627 51.1354 358.326 50.3379C358.033 49.5404 357.887 48.6655 357.887 47.7134V47.1763C357.887 46.1916 358.033 45.2964 358.326 44.4907C358.627 43.6769 359.034 42.9771 359.547 42.3911C360.06 41.797 360.65 41.3413 361.317 41.0239C361.992 40.7065 362.713 40.5479 363.478 40.5479C364.251 40.5479 364.951 40.6903 365.577 40.9751C366.204 41.2599 366.741 41.6587 367.188 42.1714C367.636 42.6841 367.978 43.2944 368.214 44.0024C368.45 44.7104 368.568 45.4917 368.568 46.3462V47.1641H358.497V46.2729H367.604V46.1143C367.595 45.2842 367.424 44.5151 367.091 43.8071C366.765 43.0991 366.297 42.5295 365.687 42.0981C365.077 41.6587 364.34 41.439 363.478 41.439C362.786 41.439 362.155 41.5854 361.585 41.8784C361.024 42.1714 360.54 42.5783 360.133 43.0991C359.726 43.6118 359.413 44.2181 359.193 44.918C358.973 45.6097 358.863 46.3625 358.863 47.1763V47.7134C358.863 48.4946 358.985 49.2271 359.229 49.9106C359.474 50.5942 359.815 51.1965 360.255 51.7173C360.694 52.23 361.211 52.6328 361.805 52.9258C362.399 53.2188 363.05 53.3652 363.758 53.3652C364.523 53.3652 365.223 53.231 365.858 52.9624C366.493 52.6938 367.07 52.2218 367.591 51.5464L368.226 52.0225C367.933 52.4456 367.579 52.8241 367.164 53.1577C366.749 53.4914 366.257 53.7559 365.687 53.9512C365.125 54.1465 364.474 54.2441 363.734 54.2441Z" fill="white"/>
<path d="M371.62 40.792H372.596V53.1089H379.103V40.792H380.091V53.1089H386.512V40.792H387.489V54H371.62V40.792Z" fill="white"/>
<path d="M396.083 54.2441C395.252 54.2441 394.483 54.0854 393.775 53.7681C393.067 53.4425 392.449 52.9909 391.92 52.4131C391.391 51.8271 390.976 51.1354 390.675 50.3379C390.382 49.5404 390.235 48.6655 390.235 47.7134V47.1763C390.235 46.1916 390.382 45.2964 390.675 44.4907C390.976 43.6769 391.383 42.9771 391.896 42.3911C392.408 41.797 392.998 41.3413 393.666 41.0239C394.341 40.7065 395.061 40.5479 395.826 40.5479C396.599 40.5479 397.299 40.6903 397.926 40.9751C398.552 41.2599 399.09 41.6587 399.537 42.1714C399.985 42.6841 400.326 43.2944 400.562 44.0024C400.799 44.7104 400.917 45.4917 400.917 46.3462V47.1641H390.846V46.2729H399.952V46.1143C399.944 45.2842 399.773 44.5151 399.439 43.8071C399.114 43.0991 398.646 42.5295 398.036 42.0981C397.425 41.6587 396.689 41.439 395.826 41.439C395.134 41.439 394.504 41.5854 393.934 41.8784C393.373 42.1714 392.888 42.5783 392.481 43.0991C392.075 43.6118 391.761 44.2181 391.542 44.918C391.322 45.6097 391.212 46.3625 391.212 47.1763V47.7134C391.212 48.4946 391.334 49.2271 391.578 49.9106C391.822 50.5942 392.164 51.1965 392.604 51.7173C393.043 52.23 393.56 52.6328 394.154 52.9258C394.748 53.2188 395.399 53.3652 396.107 53.3652C396.872 53.3652 397.572 53.231 398.207 52.9624C398.841 52.6938 399.419 52.2218 399.94 51.5464L400.575 52.0225C400.282 52.4456 399.928 52.8241 399.513 53.1577C399.098 53.4914 398.605 53.7559 398.036 53.9512C397.474 54.1465 396.823 54.2441 396.083 54.2441Z" fill="white"/>
<path d="M412.965 46.8101V47.7012H404.627V46.8101H412.965ZM404.945 40.792V54H403.968V40.792H404.945ZM413.685 40.792V54H412.696V40.792H413.685Z" fill="white"/>
<path d="M418.775 52.3643L426.539 40.792H427.528V54H426.539V42.4277L418.775 54H417.811V40.792H418.775V52.3643Z" fill="white"/>
<path d="M432.618 52.3643L440.382 40.792H441.371V54H440.382V42.4277L432.618 54H431.654V40.792H432.618V52.3643ZM438.99 36.0679H439.881C439.881 36.6701 439.743 37.2031 439.466 37.667C439.198 38.1309 438.803 38.493 438.282 38.7534C437.77 39.0138 437.155 39.144 436.439 39.144C435.365 39.144 434.518 38.8592 433.9 38.2896C433.29 37.7118 432.984 36.9712 432.984 36.0679H433.863C433.863 36.6782 434.055 37.2072 434.437 37.6548C434.828 38.0942 435.495 38.314 436.439 38.314C437.342 38.314 437.993 38.0902 438.392 37.6426C438.791 37.195 438.99 36.6701 438.99 36.0679Z" fill="white"/>
<path d="M446.4 35.25V36.5684C446.4 37.0648 446.339 37.5368 446.217 37.9844C446.095 38.4238 445.924 38.8307 445.704 39.2051C445.493 39.5713 445.24 39.9009 444.947 40.1938L444.325 39.7056C444.699 39.2173 444.976 38.7371 445.155 38.2651C445.342 37.785 445.436 37.2275 445.436 36.5928V35.25H446.4ZM448.927 35.25V36.5684C448.927 37.0648 448.866 37.5368 448.744 37.9844C448.622 38.4238 448.451 38.8307 448.231 39.2051C448.019 39.5713 447.767 39.9009 447.474 40.1938L446.852 39.7056C447.226 39.2173 447.503 38.7371 447.682 38.2651C447.869 37.785 447.962 37.2275 447.962 36.5928V35.25H448.927Z" fill="white"/>
</svg>
