<svg width="30" height="17" viewBox="0 0 30 17" fill="none" xmlns="http://www.w3.org/2000/svg">
<path fill-rule="evenodd" clip-rule="evenodd" d="M22.888 16.1289C20.2052 18.2344 16.3194 16.2846 16.3194 12.8329V9.6344L1.11269 9.6344C0.498168 9.6344 0 9.12651 0 8.5C0 7.87349 0.498168 7.3656 1.11269 7.3656L16.3194 7.3656V4.16713C16.3194 0.715437 20.2052 -1.23437 22.888 0.871142L28.4088 5.20401C30.5304 6.86906 30.5304 10.1309 28.4088 11.796L22.888 16.1289ZM18.5448 4.16713C18.5448 2.59818 20.3111 1.7119 21.5305 2.66895L27.0514 7.00182C28.0157 7.75866 28.0157 9.24134 27.0514 9.99818L21.5305 14.331C20.3111 15.2881 18.5448 14.4018 18.5448 12.8329V8.5V4.16713Z" fill="white"/>
</svg>
