<svg width="24" height="27" viewBox="0 0 24 27" fill="none" xmlns="http://www.w3.org/2000/svg">
<path d="M10.4541 11.6866C10.4541 10.8404 11.1442 10.1544 11.9955 10.1544C12.8469 10.1544 13.537 10.8404 13.537 11.6866C13.537 12.5329 12.8469 13.2189 11.9955 13.2189C11.1442 13.2189 10.4541 12.5329 10.4541 11.6866Z" fill="#36692C"/>
<path fill-rule="evenodd" clip-rule="evenodd" d="M5.54767 4.38295C5.54767 2.49302 7.08897 0.960938 8.99026 0.960938H15.3608C17.0635 0.960938 18.4437 2.33295 18.4437 4.02542C18.4437 4.70241 18.9958 5.25122 19.6769 5.25122H20.4037C22.358 5.25122 24.077 6.75893 23.9973 8.82516C23.8952 11.4742 23.3776 15.7233 21.3018 19.4837C20.7391 20.503 19.9876 21.5043 19.1753 22.4372L19.1141 22.5075C17.9455 23.8497 16.9711 24.9689 15.9235 25.7317C14.7968 26.5522 13.5943 26.9609 11.9957 26.9609C10.3972 26.9609 9.19459 26.5522 8.06786 25.7317C7.02032 24.9689 6.04592 23.8497 4.87729 22.5075L4.81613 22.4372C4.00376 21.5043 3.25228 20.503 2.68959 19.4837C0.680573 15.8443 0.129775 12.0023 0.00457934 9.53719C-0.100866 7.46099 1.6304 5.96627 3.57394 5.96627H3.95483C4.83453 5.96627 5.54767 5.25739 5.54767 4.38295ZM11.9955 8.31571C10.1226 8.31571 8.60433 9.82492 8.60433 11.6866C8.60433 13.2296 9.64728 14.5305 11.0707 14.9307V19.0414C11.0707 19.5491 11.4847 19.9608 11.9955 19.9608C12.5063 19.9608 12.9204 19.5491 12.9204 19.0414V14.9307C14.3438 14.5305 15.3868 13.2296 15.3868 11.6866C15.3868 9.82492 13.8685 8.31571 11.9955 8.31571Z" fill="#36692C"/>
</svg>
