<svg width="48" height="63" viewBox="0 0 48 63" fill="none" xmlns="http://www.w3.org/2000/svg">
<path fill-rule="evenodd" clip-rule="evenodd" d="M20.3418 0.0354487C16.0631 0.697817 12.446 3.67841 11.0565 7.68674C10.5204 9.23349 10.3622 10.5685 10.4061 13.1747C10.4489 15.7093 10.5064 15.9657 11.2002 16.7141L11.4993 17.0365L11.1203 17.6377C10.9119 17.9682 10.6543 18.5397 10.5479 18.9075C10.0236 20.7203 11.0364 22.9058 12.7703 23.7028C13.1045 23.8565 13.4511 24.0199 13.5406 24.066C13.63 24.1122 13.8544 24.6209 14.0393 25.1965C14.6047 26.9571 15.1872 27.9352 16.4859 29.3047C16.9267 29.7695 17.6037 30.3672 17.99 30.633L18.6925 31.116L18.6924 32.9892V34.8626L16.0962 35.3995C12.7193 36.0979 11.7125 36.3978 10.0513 37.2C5.43719 39.4281 2.06778 43.4101 0.674762 48.2811C0.0585212 50.4359 0.000977582 51.1824 0.00048889 57.0371L0 62.4645L0.282708 62.7323L0.565539 63H23.9843C47.0164 63 47.4071 62.9961 47.6407 62.7606C47.7714 62.6289 47.9153 62.3222 47.9605 62.079C48.0057 61.8358 48.0133 59.2977 47.9771 56.4385C47.9071 50.9076 47.8634 50.4284 47.2212 48.1617C46.7638 46.5473 45.502 44.036 44.4227 42.5919C42.2004 39.6185 39.1076 37.3957 35.6745 36.3048C35.0362 36.102 33.3181 35.6949 31.8566 35.4001L29.1994 34.8642L29.201 33.0163L29.2025 31.1684L30.2279 30.4007C31.9527 29.1095 33.212 27.2927 33.9526 25.0272L34.2696 24.0578L34.9046 23.8203C35.7439 23.5065 36.6816 22.6406 37.0873 21.8046C37.711 20.5199 37.6106 18.8459 36.8406 17.6927L36.447 17.1034L36.7906 16.6859C37.4621 15.8697 37.5389 15.3779 37.4776 12.2877C37.4265 9.70845 37.3975 9.4134 37.0976 8.41437C35.889 4.38881 32.856 1.38974 28.8939 0.302416C28.0071 0.0590915 27.5828 0.0316314 24.3124 0.00638771C22.3302 -0.00888162 20.5434 0.0041712 20.3418 0.0354487ZM28.5885 2.40466C30.2066 2.88798 31.3252 3.57338 32.6255 4.87804C33.5314 5.78694 33.9033 6.26755 34.2931 7.03299C35.2274 8.86703 35.3377 9.40133 35.4 12.3896L35.4552 15.0371L35.1431 15.3757C34.6832 15.8747 34.4528 15.822 34.4528 15.2178C34.4528 14.595 34.1828 13.928 33.8603 13.754C33.7247 13.6808 33.1839 13.6196 32.6588 13.618C31.5227 13.6143 30.8223 13.467 30.0268 13.0644C29.1606 12.6259 28.527 12.0683 28.014 11.2929C27.3196 10.2435 27.1191 10.0499 26.7266 10.0499C26.1489 10.0499 25.9018 10.2707 25.5205 11.1273C24.5711 13.2602 23.0322 14.7068 20.9713 15.4042C20.0778 15.7065 19.9665 15.7143 16.6152 15.7143H13.1759L12.8188 15.3544L12.4617 14.9945L12.4659 12.9224C12.4706 10.6629 12.63 9.47904 13.1056 8.17302C14.1153 5.40053 16.6466 3.10151 19.4937 2.37116C20.6402 2.07698 20.768 2.06984 24.3124 2.10124C27.3775 2.12833 27.7526 2.15493 28.5885 2.40466ZM28.3853 14.5473C29.1968 15.0904 30.5224 15.5671 31.511 15.6712L32.2537 15.7494V19.5233C32.2537 23.6974 32.2057 24.0727 31.4733 25.6271C30.4003 27.9043 28.4497 29.5383 26.0229 30.1927C24.9564 30.4804 22.9335 30.48 21.869 30.1921C20.4315 29.8033 19.2313 29.0813 18.0806 27.9135C16.9915 26.808 16.4842 25.9974 15.995 24.5804C15.7449 23.8558 15.7138 23.498 15.6675 20.8046L15.6162 17.8291L18.2233 17.7819C20.7969 17.7352 20.8436 17.7296 21.8398 17.3483C23.6729 16.6466 25.179 15.5104 26.2606 14.0135L26.8017 13.2646L27.2637 13.6852C27.5177 13.9165 28.0225 14.3045 28.3853 14.5473ZM13.5612 19.967C13.5612 21.6908 13.5525 21.7523 13.3277 21.631C13.0078 21.4583 12.5843 20.7386 12.5021 20.2273C12.4646 19.9948 12.4999 19.6032 12.5805 19.3572C12.7336 18.8894 13.2583 18.1771 13.4499 18.1771C13.5117 18.1771 13.5612 18.9722 13.5612 19.967ZM35.2627 19.1275C35.4863 19.6565 35.4743 20.3182 35.2322 20.8C35.0005 21.2612 34.7023 21.625 34.556 21.625C34.4992 21.625 34.4528 20.8397 34.4528 19.8797V18.1342L34.774 18.4328C34.9507 18.5969 35.1706 18.9096 35.2627 19.1275ZM22.4188 32.4176C23.8065 32.6587 25.5695 32.55 26.9086 32.1407C27.1043 32.0808 27.1224 32.2061 27.1224 33.6191V35.1628L25.6869 36.2518C24.8974 36.8507 24.1807 37.3834 24.0944 37.4353C23.9931 37.4963 23.3738 37.1056 22.3534 36.337L20.7694 35.1439V33.6036C20.7694 32.0641 20.7695 32.0632 21.0443 32.1449C21.1956 32.1898 21.814 32.3126 22.4188 32.4176ZM21.0031 37.9597C21.7817 38.5456 22.4371 39.0396 22.4593 39.0574C22.4817 39.0754 22.1011 39.6249 21.6136 40.2785L20.7274 41.467L18.7315 39.4581C17.6337 38.3532 16.7773 37.4356 16.8282 37.4188C17.0958 37.3313 19.1534 36.9114 19.3538 36.9035C19.4823 36.8986 20.2245 37.3738 21.0031 37.9597ZM29.88 37.1425C30.538 37.2789 31.0918 37.4063 31.1108 37.4254C31.1298 37.4444 30.2526 38.3588 29.1615 39.4569L27.1776 41.4537L26.3003 40.2661L25.4229 39.0784L26.853 37.9943C27.6396 37.3979 28.3732 36.9064 28.4834 36.9021C28.5936 36.8979 29.2221 37.0061 29.88 37.1425ZM15.6108 49.4238C16.6363 55.6377 17.4744 60.7634 17.4731 60.8143C17.4718 60.8651 15.8764 60.9066 13.9277 60.9066H10.3847V56.0331V51.1596L10.0276 50.7997C9.5642 50.3326 9.12828 50.3326 8.66488 50.7997L8.30777 51.1596V56.0331V60.9066H5.19236H2.07694L2.07743 56.3812C2.0778 52.9658 2.12251 51.5788 2.25971 50.7264C3.17149 45.0603 7.1426 40.3183 12.5611 38.4255C13.0103 38.2686 13.4608 38.137 13.5621 38.133C13.7119 38.1271 14.0936 40.2312 15.6108 49.4238ZM35.3821 38.4341C39.8608 39.9495 43.5316 43.6981 45.0689 48.3263C45.7515 50.381 45.8337 51.1621 45.9047 56.2581L45.9695 60.9066H42.7767H39.5841V56.0527C39.5841 53.383 39.5499 51.109 39.5082 50.9994C39.4155 50.756 38.8353 50.4397 38.4812 50.4397C38.3383 50.4397 38.0607 50.6017 37.8642 50.7997L37.5071 51.1596V56.0331V60.9066H33.9509H30.3946L30.4586 60.6296C30.4938 60.4771 31.3301 55.4207 32.3171 49.3931C33.304 43.3654 34.1316 38.3644 34.1562 38.2797C34.218 38.0665 34.342 38.0822 35.3821 38.4341ZM18.5552 42.4013L20.7873 44.7681L20.3202 52.7964C20.04 57.6117 19.8043 60.8409 19.731 60.8651C19.6586 60.8891 18.9071 56.63 17.8909 50.4368C16.9461 44.6789 16.2067 39.9828 16.248 40.0012C16.2892 40.0194 17.3274 41.0995 18.5552 42.4013ZM30.0354 50.4444C29.0901 56.1648 28.2954 60.8682 28.2694 60.8964C28.2434 60.9246 28.1874 60.9128 28.1451 60.8702C28.1029 60.8277 27.887 57.6183 27.6652 53.7384C27.4435 49.8585 27.2293 46.253 27.1891 45.7263L27.1162 44.7687L29.3967 42.3676C30.6509 41.0469 31.6944 39.9838 31.7155 40.0051C31.7367 40.0264 30.9805 44.7241 30.0354 50.4444ZM24.9162 41.8889L25.794 43.066L24.8804 44.2982L23.9669 45.5302L23.0467 44.3054L22.1265 43.0808L23.0015 41.8962C23.4829 41.2448 23.9131 40.7117 23.9575 40.7117C24.002 40.7117 24.4334 41.2415 24.9162 41.8889ZM23.948 48.3464C24.2435 48.3464 24.4481 48.2358 24.7502 47.913L25.1557 47.4796L25.2177 47.8823C25.252 48.1037 25.4202 50.9169 25.5918 54.1339C25.7634 57.351 25.9312 60.1909 25.9648 60.4449L26.0258 60.9066H24.0085H21.9912L21.9918 60.3833C21.9921 60.0955 22.1567 57.0893 22.3577 53.7029C22.5586 50.3166 22.7232 47.5213 22.7236 47.4912C22.7239 47.461 22.9103 47.641 23.1377 47.8914C23.4519 48.2369 23.6466 48.3464 23.948 48.3464Z" fill="white"/>
</svg>
