<svg width="51" height="63" viewBox="0 0 51 63" fill="none" xmlns="http://www.w3.org/2000/svg">
<path fill-rule="evenodd" clip-rule="evenodd" d="M12.8863 4.91988C5.75128 7.78902 0.447196 9.98809 0.283175 10.1451L0 10.4161L0.0480538 21.0233C0.100153 32.5151 0.0970886 32.4552 0.825254 35.9164C3.19927 47.2 10.9693 56.788 21.5287 61.4639C22.4052 61.852 23.6601 62.3564 24.3175 62.5847L25.5128 63L26.708 62.5838C30.4867 61.2679 34.3607 59.1211 37.5263 56.589C39.7548 54.8064 42.7866 51.5367 44.5286 49.0375C47.2409 45.1457 49.3348 40.2485 50.2654 35.6206C50.9282 32.3239 50.9262 32.3644 50.9775 21.043C51.0232 10.9655 51.0148 10.4428 50.8037 10.193C50.5551 9.89902 26.1983 0.0589564 25.5741 0.000276915C25.3198 -0.0235885 21.4054 1.4942 12.8863 4.91988ZM37.4417 6.7836L49.0494 11.4425L49.0482 20.5524C49.0475 25.6826 48.9923 30.307 48.9219 31.1384C48.5501 35.5295 47.4662 39.4225 45.4967 43.4402C42.3525 49.8544 37.5285 54.9313 31.2844 58.3977C29.8515 59.1931 27.354 60.3134 26.2176 60.6705C25.5388 60.884 25.4868 60.884 24.8079 60.6705C23.6441 60.3048 21.1283 59.1717 19.6911 58.3658C13.4071 54.8421 8.63391 49.813 5.52536 43.4402C3.55931 39.4095 2.50065 35.6219 2.10383 31.1999C2.03016 30.3783 1.97671 25.9404 1.97647 20.6137L1.9761 11.4423L13.6525 6.74497C20.0744 4.16148 25.4425 2.06501 25.5814 2.08617C25.7203 2.10732 31.0575 4.22114 37.4417 6.7836ZM14.7326 8.43191C7.54779 11.3204 4.31346 12.6775 4.15949 12.8684C3.95024 13.1279 3.93749 13.6122 3.93786 21.3414C3.9381 25.934 3.99363 30.1613 4.064 30.9539C4.54552 36.3749 6.34276 41.5789 9.26977 46.0271C11.6547 49.6515 14.968 53.0014 18.4027 55.2608C20.7307 56.7922 24.7254 58.7559 25.5128 58.7559C25.9001 58.7559 28.3368 57.7283 29.8033 56.9465C32.8698 55.3119 35.3372 53.4393 37.8962 50.805C42.6862 45.8737 45.6236 39.9471 46.7371 32.9676C46.9967 31.3408 47.0116 30.8405 47.0564 22.2047L47.1036 13.1482L46.82 12.8388C46.4551 12.4407 26.0861 4.25608 25.482 4.26481C25.2556 4.26801 20.618 6.06591 14.7326 8.43191ZM35.4423 10.2123L45.0654 14.0762L45.0641 22.4842C45.0632 29.9224 45.0377 31.0626 44.8439 32.3686C44.3553 35.6603 43.425 38.6772 41.999 41.5949C39.5691 46.5665 36.0751 50.5751 31.5195 53.6174C30.0106 54.6252 27.1124 56.1598 25.9725 56.5547C25.395 56.7549 25.1803 56.6855 22.8709 55.5531C14.834 51.6124 8.84734 44.0959 6.7565 35.321C5.9869 32.0908 5.98346 32.0378 5.93087 22.6983L5.88257 14.1351L7.76024 13.3724C17.0218 9.60981 25.4846 6.26188 25.6354 6.30088C25.7365 6.32708 30.1496 8.08722 35.4423 10.2123ZM11.0475 14.1691C9.27639 14.8726 8.32144 15.3178 8.13609 15.5262C7.86627 15.8296 7.86027 15.9011 7.86027 18.7875V21.7387L8.16122 22.0406C8.52628 22.4071 9.06787 22.4349 9.47094 22.1077C9.75436 21.8778 9.76159 21.8198 9.82166 19.3154L9.88295 16.758L12.0822 15.8751C14.3223 14.9758 14.7251 14.7137 14.7251 14.1552C14.7251 13.8229 14.2852 13.2905 13.9283 13.1906C13.7786 13.1488 12.6561 13.53 11.0475 14.1691ZM27.265 26.3061L22.574 31.0078L20.816 29.2586C18.5013 26.9556 18.7807 26.9549 16.4766 29.2671C14.9012 30.8481 14.7251 31.0673 14.7251 31.4484C14.7251 31.8398 15.0067 32.1545 18.4356 35.5956C21.8761 39.0481 22.1771 39.3191 22.5717 39.3191C22.9704 39.3191 23.4165 38.8982 29.6488 32.6441C35.8665 26.4047 36.3004 25.9414 36.3004 25.5445C36.3004 25.1622 36.126 24.9448 34.5489 23.3622C32.9757 21.7835 32.7545 21.6045 32.3766 21.6045C31.9866 21.6045 31.614 21.9473 27.265 26.3061ZM33.1763 24.8048L33.9059 25.5448L28.2384 31.2323L22.5708 36.9197L19.844 34.1833L17.1172 31.4468L17.8804 30.6809L18.6436 29.915L20.4021 31.6646C21.9709 33.2254 22.2055 33.4142 22.5768 33.4142C22.961 33.4142 23.3523 33.054 27.6547 28.74C30.2186 26.1692 32.3456 24.0656 32.3814 24.0654C32.4174 24.0651 32.7749 24.3979 33.1763 24.8048ZM33.3766 47.1004C30.9986 49.4121 29.1065 50.7527 26.2816 52.1277C25.4571 52.5289 24.7263 52.9629 24.6574 53.092C24.3576 53.6541 24.6829 54.3601 25.3148 54.5193C26.0661 54.7085 30.1029 52.4751 32.5615 50.5099C33.8146 49.5083 35.9065 47.4764 36.1292 47.0446C36.2233 46.8618 36.3004 46.5964 36.3004 46.4546C36.3004 46.0618 35.7632 45.593 35.313 45.593C34.9858 45.593 34.6921 45.8217 33.3766 47.1004Z" fill="white"/>
</svg>
