<svg width="58" height="58" viewBox="0 0 58 58" fill="none" xmlns="http://www.w3.org/2000/svg">
<path fill-rule="evenodd" clip-rule="evenodd" d="M28.3741 0.22129L28.0888 0.45228L28.0283 5.56995L27.9679 10.6876L27.0011 10.7728C25.8285 10.8762 24.0079 11.2797 22.9827 11.6633L22.2274 11.9459V9.63856C22.2274 6.86923 22.1557 6.55846 21.3251 5.72769C20.5732 4.97574 20.1031 4.82525 18.5059 4.82525H17.2901L16.9948 4.18027C16.6316 3.38673 16.0134 2.75275 15.1836 2.32292C14.6477 2.04527 14.3992 1.99547 13.5259 1.99052C12.3023 1.98363 11.6096 2.26321 10.77 3.10292C9.97885 3.89416 9.72143 4.55461 9.72143 5.79224C9.72143 7.02878 9.97897 7.69056 10.7668 8.47806C11.5796 9.29045 12.307 9.59191 13.4655 9.59602C14.2608 9.59892 14.5521 9.54344 15.1074 9.28295C15.9609 8.88286 16.617 8.22978 16.9948 7.40421L17.2901 6.75923H18.4953C19.6137 6.75923 19.7218 6.78063 19.997 7.05598L20.2937 7.3526V10.0807V12.8088L19.732 13.1383C16.6295 14.9576 13.916 17.9558 12.3499 21.2943L11.9104 22.2311H8.66408H5.41771L5.12114 21.9343C4.83447 21.6477 4.82444 21.5808 4.82444 19.9489V18.26L5.46932 17.9646C6.29475 17.5867 6.94772 16.9305 7.34774 16.0769C7.60818 15.5215 7.66366 15.2302 7.66076 14.4347C7.65665 13.276 7.35524 12.5485 6.54298 11.7356C5.75562 10.9476 5.09395 10.69 3.85761 10.69C2.6202 10.69 1.95985 10.9475 1.16874 11.7387C0.329175 12.5786 0.0496407 13.2713 0.0565294 14.4952C0.0614844 15.3686 0.111276 15.6171 0.388877 16.1532C0.818632 16.9831 1.45251 17.6014 2.24591 17.9646L2.89079 18.26V19.9595C2.89079 20.9406 2.95291 21.8694 3.03774 22.1566C3.23389 22.8206 4.23504 23.8219 4.89889 24.0181C5.22918 24.1156 6.37632 24.1651 8.313 24.1651C9.91721 24.1651 11.2297 24.2059 11.2296 24.2557C11.2296 24.3055 11.1442 24.7543 11.0402 25.2529C10.936 25.7515 10.8137 26.5674 10.7684 27.066L10.6858 27.9726L5.56902 28.033L0.452204 28.0934L0.221253 28.3788C-0.0737509 28.7433 -0.0737509 29.2567 0.221253 29.6212L0.452204 29.9066L5.56902 29.967L10.6858 30.0274L10.7684 30.934C10.8137 31.4326 10.936 32.2485 11.0402 32.7471C11.1442 33.2457 11.2296 33.6944 11.2296 33.7443C11.2297 33.7942 9.91721 33.8349 8.313 33.8349C6.37632 33.8349 5.22918 33.8844 4.89889 33.9819C4.23504 34.1781 3.23389 35.1794 3.03774 35.8434C2.95291 36.1306 2.89079 37.0594 2.89079 38.0405V39.74L2.24591 40.0354C1.45251 40.3986 0.818632 41.0169 0.388877 41.8468C0.111276 42.3829 0.0614844 42.6314 0.0565294 43.5049C0.0496407 44.7287 0.329175 45.4214 1.16874 46.2613C1.95985 47.0525 2.6202 47.31 3.85761 47.31C5.09395 47.31 5.75562 47.0524 6.54298 46.2644C7.35524 45.4515 7.65665 44.724 7.66076 43.5653C7.66366 42.7698 7.60818 42.4785 7.34774 41.9231C6.94772 41.0695 6.29475 40.4133 5.46932 40.0354L4.82444 39.74V38.0511C4.82444 36.4192 4.83447 36.3523 5.12114 36.0657L5.41771 35.7689H8.66009H11.9025L12.4381 36.887C13.9519 40.0469 16.7813 43.1416 19.7292 44.8617L20.2937 45.1912V47.9193V50.6474L19.997 50.944C19.7218 51.2194 19.6137 51.2408 18.4953 51.2408H17.2901L16.9948 50.5958C16.6316 49.8023 16.0134 49.1683 15.1836 48.7384C14.6477 48.4608 14.3992 48.411 13.5259 48.406C12.3023 48.3992 11.6096 48.6787 10.77 49.5184C9.97885 50.3097 9.72143 50.9701 9.72143 52.2078C9.72143 53.4443 9.97897 54.1061 10.7668 54.8936C11.5796 55.706 12.307 56.0074 13.4655 56.0115C14.2608 56.0144 14.5521 55.959 15.1074 55.6985C15.9609 55.2984 16.617 54.6453 16.9948 53.8197L17.2901 53.1748H18.5059C20.1031 53.1748 20.5732 53.0243 21.3251 52.2723C22.1551 51.442 22.2274 51.1298 22.2274 48.3713V46.074L23.2417 46.4149C24.4374 46.8168 25.9011 47.1277 27.104 47.2351L27.9679 47.3124L28.0283 52.43L28.0888 57.5477L28.3741 57.7787C28.7385 58.0738 29.2518 58.0738 29.6162 57.7787L29.9016 57.5477L29.962 52.43L30.0224 47.3124L31.0497 47.2212C32.1505 47.1237 34.2508 46.6425 35.1889 46.2729L35.7629 46.0467V48.3578C35.7629 51.131 35.8345 51.4414 36.6652 52.2723C37.4171 53.0243 37.8872 53.1748 39.4844 53.1748H40.7002L40.9955 53.8197C41.3733 54.6453 42.0294 55.2984 42.8829 55.6985C43.8218 56.1388 45.2122 56.1447 46.0959 55.7124C46.8669 55.3351 47.6738 54.5293 48.0078 53.8028C48.377 53.0002 48.377 51.4153 48.0078 50.6127C47.6739 49.8865 46.7864 48.9986 46.0592 48.6629C45.1895 48.2615 43.6588 48.297 42.8067 48.7384C41.9769 49.1683 41.3587 49.8023 40.9955 50.5958L40.7002 51.2408H39.495C38.3767 51.2408 38.2685 51.2194 37.9933 50.944L37.6966 50.6474V47.9193V45.1912L38.2611 44.8617C41.2118 43.1399 44.024 40.0621 45.5477 36.887L46.0843 35.7689H49.3284H52.5726L52.8692 36.0657C53.1558 36.3523 53.1659 36.4192 53.1659 38.0511V39.74L52.521 40.0354C51.7276 40.3986 51.0937 41.0169 50.6639 41.8468C50.3863 42.3829 50.3366 42.6314 50.3316 43.5049C50.3247 44.7287 50.6042 45.4214 51.4438 46.2613C52.2349 47.0525 52.8953 47.31 54.1327 47.31C55.369 47.31 56.0307 47.0524 56.8181 46.2644C57.6303 45.4515 57.9317 44.724 57.9358 43.5653C57.9387 42.7698 57.8833 42.4785 57.6228 41.9231C57.2228 41.0695 56.5698 40.4133 55.7444 40.0354L55.0995 39.74V38.0405C55.0995 36.0246 54.9876 35.5769 54.2897 34.8005C53.478 33.8976 53.1805 33.8349 49.7 33.8349C48.0834 33.8349 46.7606 33.7942 46.7607 33.7443C46.7607 33.6944 46.8461 33.2457 46.9501 32.7471C47.0543 32.2485 47.1766 31.4326 47.2219 30.934L47.3045 30.0274L52.4213 29.967L57.5381 29.9066L57.769 29.6212C57.8961 29.4643 58 29.1847 58 29C58 28.8153 57.8961 28.5357 57.769 28.3788L57.5381 28.0934L52.4213 28.033L47.3045 27.9726L47.2219 27.066C47.1766 26.5674 47.0543 25.7515 46.9501 25.2529C46.8461 24.7543 46.7607 24.3055 46.7607 24.2557C46.7606 24.2059 48.0834 24.1651 49.7 24.1651C53.1805 24.1651 53.478 24.1024 54.2897 23.1995C54.9876 22.4231 55.0995 21.9754 55.0995 19.9595V18.26L55.7444 17.9646C56.5698 17.5867 57.2228 16.9305 57.6228 16.0769C57.8833 15.5215 57.9387 15.2302 57.9358 14.4347C57.9317 13.276 57.6303 12.5485 56.8181 11.7356C56.0307 10.9476 55.369 10.69 54.1327 10.69C52.8953 10.69 52.2349 10.9475 51.4438 11.7387C50.6042 12.5786 50.3247 13.2713 50.3316 14.4952C50.3366 15.3686 50.3863 15.6171 50.6639 16.1532C51.0937 16.9831 51.7276 17.6014 52.521 17.9646L53.1659 18.26V19.9489C53.1659 21.5808 53.1558 21.6477 52.8692 21.9343L52.5726 22.2311H49.3284H46.0843L45.5477 21.113C44.024 17.9379 41.2118 14.8601 38.2611 13.1383L37.6966 12.8088V10.0807V7.3526L37.9933 7.05598C38.2685 6.78063 38.3767 6.75923 39.495 6.75923H40.7002L40.9955 7.40421C41.3733 8.22978 42.0294 8.88286 42.8829 9.28295C43.8218 9.7233 45.2122 9.72922 46.0959 9.29685C46.8669 8.91961 47.6738 8.11374 48.0078 7.38729C48.377 6.58469 48.377 4.99979 48.0078 4.19719C47.6739 3.47098 46.7864 2.58304 46.0592 2.24738C45.1895 1.84595 43.6588 1.88149 42.8067 2.32292C41.9769 2.75275 41.3587 3.38673 40.9955 4.18027L40.7002 4.82525H39.4844C37.8872 4.82525 37.4171 4.97574 36.6652 5.72769C35.8345 6.55858 35.7629 6.86898 35.7629 9.64219V11.9533L35.1889 11.7271C34.2508 11.3575 32.1505 10.8763 31.0497 10.7788L30.0224 10.6876L29.962 5.56995L29.9016 0.45228L29.6162 0.22129C29.2518 -0.0737632 28.7385 -0.0737632 28.3741 0.22129ZM14.2908 4.02313C15.5324 4.54204 15.8352 6.17021 14.8695 7.13611C14.0856 7.9201 12.9662 7.9201 12.1823 7.13611C10.6878 5.64127 12.3368 3.20663 14.2908 4.02313ZM45.2293 4.02313C46.4805 4.54603 46.7716 6.14386 45.7938 7.12185C44.9943 7.92143 43.9119 7.92723 43.1208 7.13611C41.6263 5.64127 43.2753 3.20663 45.2293 4.02313ZM4.6225 12.726C5.86415 13.245 6.16688 14.8731 5.20126 15.839C4.41729 16.623 3.29794 16.623 2.51397 15.839C1.01949 14.3442 2.66854 11.9095 4.6225 12.726ZM32.3186 12.9042C38.8758 14.3221 43.8362 19.374 45.156 25.9782C45.4498 27.4485 45.441 30.6216 45.139 32.0823C43.921 37.9728 39.9248 42.581 34.3652 44.5059C32.3907 45.1895 31.259 45.3716 28.9952 45.3702C27.6071 45.3693 26.6889 45.3065 25.9738 45.1636C19.2828 43.826 14.1791 38.7302 12.837 32.0472C12.5455 30.5957 12.5452 27.4059 12.8364 25.9562C14.2264 19.036 19.5728 13.8799 26.538 12.7424C27.9794 12.507 30.8536 12.5875 32.3186 12.9042ZM54.8976 12.726C56.1392 13.245 56.442 14.8731 55.4763 15.839C54.6924 16.623 53.573 16.623 52.789 15.839C51.2946 14.3442 52.9436 11.9095 54.8976 12.726ZM25.4245 14.7919C25.1387 15.0776 25.1278 15.1486 25.1278 16.7259V18.3631H22.524C19.9205 18.3631 19.9201 18.3631 19.6236 18.6599C19.4365 18.8468 19.3269 19.0946 19.3269 19.3301C19.3269 19.5656 19.4365 19.8134 19.6236 20.0003C19.9093 20.2862 19.9802 20.2971 21.5572 20.2971H23.1942V29V37.7029H21.5572C19.9802 37.7029 19.9093 37.7138 19.6236 37.9997C19.231 38.3921 19.231 38.9477 19.6236 39.3401C19.9201 39.6369 19.9205 39.6369 22.524 39.6369H25.1278V41.2741C25.1278 42.8514 25.1387 42.9224 25.4245 43.2081C25.6115 43.3952 25.8592 43.5049 26.0947 43.5049C26.3301 43.5049 26.5778 43.3952 26.7648 43.2081C27.0506 42.9224 27.0615 42.8514 27.0615 41.2741V39.6369H28.0283H28.9952V41.2741C28.9952 42.8514 29.006 42.9224 29.2918 43.2081C29.6843 43.6007 30.2397 43.6007 30.6321 43.2081C30.9174 42.9228 30.9288 42.8497 30.9288 41.301V39.6904L31.7866 39.5553C36.4985 38.8133 38.3629 32.962 34.9306 29.6877L34.2097 29L34.9306 28.3124C38.3746 25.0269 36.5019 19.1873 31.7651 18.4413L30.9288 18.3096V16.699C30.9288 15.1503 30.9174 15.0772 30.6321 14.7919C30.4452 14.6048 30.1974 14.4952 29.962 14.4952C29.7266 14.4952 29.4788 14.6048 29.2918 14.7919C29.006 15.0776 28.9952 15.1486 28.9952 16.7259V18.3631H28.0283H27.0615V16.7259C27.0615 15.1486 27.0506 15.0776 26.7648 14.7919C26.5778 14.6048 26.3301 14.4952 26.0947 14.4952C25.8592 14.4952 25.6115 14.6048 25.4245 14.7919ZM32.5037 20.6306C33.3656 21.0597 33.874 21.5477 34.319 22.3731C34.6968 23.0738 34.731 23.2234 34.7286 24.1651C34.7263 25.0381 34.6777 25.2852 34.4052 25.8098C33.9324 26.7197 33.5662 27.0994 32.7176 27.5595L31.9561 27.9726L28.542 28.0113L25.1278 28.0498V24.1651V20.2803L28.542 20.3191C31.8014 20.3562 31.9808 20.3703 32.5037 20.6306ZM32.5037 30.3005C33.3656 30.7296 33.874 31.2175 34.319 32.043C34.6968 32.7437 34.731 32.8933 34.7286 33.8349C34.7263 34.708 34.6777 34.9551 34.4052 35.4797C33.9324 36.3896 33.5662 36.7693 32.7176 37.2295L31.9561 37.6425L28.542 37.6812L25.1278 37.7197V33.8349V29.9502L28.542 29.989C31.8014 30.0261 31.9808 30.0402 32.5037 30.3005ZM4.6225 41.7357C5.86415 42.2547 6.16688 43.8828 5.20126 44.8487C3.84348 46.2067 1.61844 44.9904 1.97568 43.0853C2.18923 41.9474 3.5133 41.2722 4.6225 41.7357ZM54.8976 41.7357C56.1392 42.2547 56.442 43.8828 55.4763 44.8487C54.1185 46.2067 51.8935 44.9904 52.2508 43.0853C52.4643 41.9474 53.7884 41.2722 54.8976 41.7357ZM14.2908 50.4387C15.5324 50.9576 15.8352 52.5857 14.8695 53.5516C13.5118 54.9097 11.2867 53.6933 11.644 51.7882C11.8575 50.6503 13.1816 49.9751 14.2908 50.4387ZM45.2293 50.4387C46.4805 50.9616 46.7716 52.5594 45.7938 53.5374C44.9943 54.337 43.9119 54.3428 43.1208 53.5516C41.6263 52.0568 43.2753 49.6222 45.2293 50.4387Z" fill="white"/>
</svg>
