<svg width="247" height="59" viewBox="0 0 247 59" fill="none" xmlns="http://www.w3.org/2000/svg">
<path d="M73 2H59.9424L34.2759 35.7085V2H22V53H33.1033L73 2Z" fill="black"/>
<path d="M59.9424 39.5075V53H73L59.9424 39.5075Z" fill="#35682B"/>
<circle cx="15" cy="44" r="14" fill="#239FDB" stroke="#E0E0E0" stroke-width="2"/>
<path d="M23.9739 43.5672V38.3858C23.9739 38.1014 23.7393 37.8687 23.4525 37.8687C23.1657 37.8687 22.9311 38.1014 22.9311 38.3858V40.749C21.7735 38.9909 19.4635 37 15 37C10.5365 37 8.19525 39.027 7.04287 40.7904V38.3858C7.04287 38.1014 6.80823 37.8687 6.52144 37.8687C6.23465 37.8687 6 38.1014 6 38.3858V45.8839C6 46.3596 6.11472 46.8353 6.39629 47.2232C8.31518 49.8811 15 50 15 50C15 50 21.6848 49.8811 23.6037 47.2232C23.8801 46.8353 24 46.3596 24 45.8839V44.0533C24 43.893 23.9896 43.7275 23.9791 43.5672H23.9739Z" fill="white"/>
<path d="M19.8285 42.2589H10.4061C9.07279 42.2589 7.99189 43.3309 7.99189 44.6531C7.99189 45.9754 9.07279 47.0473 10.4061 47.0473H19.8285C21.1619 47.0473 22.2428 45.9754 22.2428 44.6531C22.2428 43.3309 21.1619 42.2589 19.8285 42.2589Z" fill="#1C9FDA"/>
<path d="M10.3227 45.6408C10.9044 45.6408 11.376 45.1732 11.376 44.5963C11.376 44.0194 10.9044 43.5517 10.3227 43.5517C9.74099 43.5517 9.26941 44.0194 9.26941 44.5963C9.26941 45.1732 9.74099 45.6408 10.3227 45.6408Z" fill="white"/>
<path d="M19.9328 45.6408C20.5145 45.6408 20.9861 45.1732 20.9861 44.5963C20.9861 44.0194 20.5145 43.5517 19.9328 43.5517C19.3511 43.5517 18.8795 44.0194 18.8795 44.5963C18.8795 45.1732 19.3511 45.6408 19.9328 45.6408Z" fill="white"/>
<path d="M98.4351 1.51752V25H94.387V1.51752H98.4351ZM112.547 1.51752L103.032 12.8233L97.6126 18.5649L96.9029 14.549L100.774 9.77509L107.612 1.51752H112.547ZM108.193 25L100.467 13.8716L103.257 11.1137L112.999 25H108.193ZM115.257 1.51752H123.563C125.347 1.51752 126.869 1.78632 128.127 2.32392C129.385 2.86152 130.347 3.65718 131.014 4.71088C131.691 5.75383 132.03 7.04407 132.03 8.58162C132.03 9.75359 131.815 10.7858 131.385 11.6782C130.955 12.5706 130.347 13.3233 129.562 13.9361C128.777 14.5383 127.842 15.006 126.756 15.3393L125.53 15.936H118.063L118.031 12.7265H123.627C124.595 12.7265 125.401 12.5545 126.046 12.2104C126.691 11.8664 127.175 11.3987 127.498 10.8073C127.831 10.2052 127.998 9.5278 127.998 8.77515C127.998 7.958 127.837 7.24836 127.514 6.64625C127.202 6.03338 126.718 5.56567 126.063 5.2431C125.407 4.90979 124.573 4.74313 123.563 4.74313H119.305V25H115.257V1.51752ZM128.659 25L123.143 14.4522L127.385 14.4361L132.981 24.7903V25H128.659ZM145.207 4.64637L138.191 25H133.949L142.787 1.51752H145.497L145.207 4.64637ZM151.077 25L144.045 4.64637L143.739 1.51752H146.465L155.335 25H151.077ZM150.738 16.2908V19.5003H137.965V16.2908H150.738ZM162.012 1.51752V25H157.964V1.51752H162.012ZM171.592 11.7911V15.0006H160.98V11.7911H171.592ZM172.931 1.51752V4.74313H160.98V1.51752H172.931ZM186.14 1.51752V25H182.124V1.51752H186.14ZM193.51 1.51752V4.74313H174.818V1.51752H193.51ZM211.977 21.7905V25H199.51V21.7905H211.977ZM200.655 1.51752V25H196.607V1.51752H200.655ZM210.348 11.3234V14.4845H199.51V11.3234H210.348ZM211.896 1.51752V4.74313H199.51V1.51752H211.896ZM218.363 1.51752L223.347 10.0815L228.331 1.51752H232.992L225.895 13.1459L233.169 25H228.46L223.347 16.2747L218.234 25H213.509L220.799 13.1459L213.686 1.51752H218.363ZM100.683 34.214V53H99.1093V34.214H100.683ZM107.122 34.214V35.5817H92.6838V34.214H107.122ZM113.921 53.258C113.01 53.258 112.171 53.0903 111.405 52.7549C110.648 52.4194 109.986 51.9463 109.418 51.3356C108.859 50.7249 108.425 50.0023 108.115 49.168C107.814 48.325 107.664 47.4046 107.664 46.4068V45.852C107.664 44.7768 107.823 43.8048 108.141 42.9361C108.459 42.0673 108.898 41.3233 109.457 40.704C110.016 40.0846 110.653 39.6115 111.367 39.2847C112.089 38.9492 112.846 38.7815 113.637 38.7815C114.523 38.7815 115.31 38.9406 115.999 39.2589C116.687 39.5685 117.263 40.0115 117.728 40.5878C118.201 41.1555 118.558 41.8308 118.798 42.6135C119.039 43.3877 119.16 44.2435 119.16 45.1811V46.123H108.593V44.8069H117.624V44.6263C117.607 43.8436 117.448 43.1124 117.147 42.4329C116.854 41.7448 116.416 41.1856 115.831 40.7556C115.246 40.3255 114.515 40.1104 113.637 40.1104C112.984 40.1104 112.382 40.2481 111.831 40.5233C111.289 40.7986 110.82 41.1942 110.425 41.7103C110.038 42.2178 109.737 42.8243 109.522 43.5296C109.315 44.2263 109.212 45.0005 109.212 45.852V46.4068C109.212 47.181 109.324 47.9035 109.547 48.5745C109.78 49.2368 110.106 49.8217 110.528 50.3292C110.958 50.8367 111.466 51.2324 112.05 51.5162C112.635 51.8001 113.28 51.942 113.986 51.942C114.812 51.942 115.543 51.7915 116.179 51.4904C116.816 51.1808 117.388 50.6948 117.895 50.0324L118.863 50.7808C118.562 51.2281 118.183 51.6409 117.728 52.0194C117.28 52.3979 116.743 52.6989 116.115 52.9226C115.487 53.1462 114.756 53.258 113.921 53.258ZM123.921 33.1818V53H122.385V33.1818H123.921ZM133.533 53.258C132.621 53.258 131.783 53.0903 131.017 52.7549C130.26 52.4194 129.598 51.9463 129.03 51.3356C128.471 50.7249 128.037 50.0023 127.727 49.168C127.426 48.325 127.275 47.4046 127.275 46.4068V45.852C127.275 44.7768 127.434 43.8048 127.753 42.9361C128.071 42.0673 128.51 41.3233 129.069 40.704C129.628 40.0846 130.264 39.6115 130.978 39.2847C131.701 38.9492 132.458 38.7815 133.249 38.7815C134.135 38.7815 134.922 38.9406 135.61 39.2589C136.298 39.5685 136.875 40.0115 137.339 40.5878C137.812 41.1555 138.169 41.8308 138.41 42.6135C138.651 43.3877 138.771 44.2435 138.771 45.1811V46.123H128.204V44.8069H137.236V44.6263C137.219 43.8436 137.06 43.1124 136.759 42.4329C136.466 41.7448 136.028 41.1856 135.443 40.7556C134.858 40.3255 134.127 40.1104 133.249 40.1104C132.595 40.1104 131.993 40.2481 131.443 40.5233C130.901 40.7986 130.432 41.1942 130.036 41.7103C129.649 42.2178 129.348 42.8243 129.133 43.5296C128.927 44.2263 128.824 45.0005 128.824 45.852V46.4068C128.824 47.181 128.935 47.9035 129.159 48.5745C129.391 49.2368 129.718 49.8217 130.14 50.3292C130.57 50.8367 131.077 51.2324 131.662 51.5162C132.247 51.8001 132.892 51.942 133.598 51.942C134.423 51.942 135.154 51.7915 135.791 51.4904C136.427 51.1808 136.999 50.6948 137.507 50.0324L138.475 50.7808C138.174 51.2281 137.795 51.6409 137.339 52.0194C136.892 52.3979 136.354 52.6989 135.726 52.9226C135.099 53.1462 134.367 53.258 133.533 53.258ZM151.003 39.0395H152.435V52.7549C152.435 53.9677 152.203 55.0085 151.738 55.8772C151.283 56.746 150.633 57.4126 149.79 57.8771C148.956 58.3416 147.971 58.5739 146.835 58.5739C146.259 58.5739 145.666 58.4835 145.055 58.3029C144.453 58.1309 143.881 57.8642 143.339 57.503C142.806 57.1503 142.35 56.7116 141.971 56.1869L142.836 55.245C143.403 55.9332 144.01 56.4364 144.655 56.7546C145.3 57.0815 145.997 57.2449 146.745 57.2449C147.631 57.2449 148.379 57.0686 148.99 56.7159C149.609 56.3632 150.078 55.8557 150.397 55.1934C150.723 54.5311 150.887 53.7354 150.887 52.8065V42.1103L151.003 39.0395ZM141.197 46.1617V45.8907C141.197 44.8069 141.318 43.8307 141.558 42.9619C141.808 42.0845 142.165 41.3362 142.629 40.7169C143.094 40.0889 143.657 39.6115 144.319 39.2847C144.99 38.9492 145.747 38.7815 146.59 38.7815C147.399 38.7815 148.117 38.9148 148.745 39.1815C149.373 39.4481 149.915 39.8309 150.371 40.3298C150.827 40.8287 151.192 41.4222 151.467 42.1103C151.751 42.7985 151.958 43.564 152.087 44.407V47.8519C151.984 48.6433 151.794 49.3701 151.519 50.0324C151.244 50.6862 150.878 51.2582 150.422 51.7485C149.966 52.2302 149.416 52.6043 148.771 52.871C148.134 53.129 147.399 53.258 146.565 53.258C145.73 53.258 144.982 53.086 144.319 52.742C143.657 52.3979 143.094 51.9119 142.629 51.284C142.165 50.6475 141.808 49.8948 141.558 49.026C141.318 48.1573 141.197 47.2025 141.197 46.1617ZM142.745 45.8907V46.1617C142.745 46.9789 142.827 47.7358 142.991 48.4325C143.154 49.1293 143.403 49.7357 143.739 50.2518C144.074 50.7679 144.5 51.1722 145.016 51.4646C145.532 51.7571 146.139 51.9033 146.835 51.9033C147.721 51.9033 148.465 51.7356 149.068 51.4001C149.67 51.056 150.147 50.6044 150.5 50.0453C150.852 49.4776 151.11 48.8583 151.274 48.1874V44.1747C151.179 43.7188 151.033 43.2543 150.835 42.7813C150.646 42.3082 150.379 41.8738 150.035 41.4781C149.7 41.0738 149.27 40.7513 148.745 40.5104C148.229 40.261 147.601 40.1362 146.861 40.1362C146.156 40.1362 145.541 40.2825 145.016 40.5749C144.5 40.8674 144.074 41.276 143.739 41.8007C143.403 42.3168 143.154 42.9232 142.991 43.6199C142.827 44.3166 142.745 45.0736 142.745 45.8907ZM158.009 41.3491V53H156.474V39.0395H157.97L158.009 41.3491ZM162.951 38.9363L162.912 40.3556C162.74 40.3298 162.572 40.3083 162.409 40.2911C162.245 40.2739 162.069 40.2653 161.88 40.2653C161.209 40.2653 160.62 40.39 160.112 40.6394C159.613 40.8803 159.192 41.2201 158.848 41.6587C158.504 42.0888 158.241 42.5963 158.061 43.1812C157.88 43.7575 157.777 44.3769 157.751 45.0392L157.183 45.2585C157.183 44.3467 157.278 43.4995 157.467 42.7167C157.656 41.934 157.944 41.2502 158.332 40.6652C158.727 40.0717 159.222 39.6115 159.815 39.2847C160.417 38.9492 161.123 38.7815 161.931 38.7815C162.129 38.7815 162.323 38.7987 162.512 38.8331C162.71 38.8589 162.856 38.8933 162.951 38.9363ZM173.35 50.4969V43.2973C173.35 42.635 173.212 42.063 172.937 41.5813C172.662 41.0996 172.258 40.7298 171.724 40.4717C171.191 40.2137 170.533 40.0846 169.75 40.0846C169.028 40.0846 168.383 40.2137 167.815 40.4717C167.256 40.7212 166.813 41.0609 166.486 41.491C166.168 41.9125 166.009 42.3813 166.009 42.8974L164.46 42.8845C164.46 42.3598 164.589 41.8523 164.847 41.362C165.105 40.8717 165.471 40.433 165.944 40.0459C166.417 39.6589 166.981 39.3535 167.634 39.1299C168.297 38.8976 169.023 38.7815 169.815 38.7815C170.813 38.7815 171.69 38.9492 172.447 39.2847C173.212 39.6201 173.81 40.1233 174.24 40.7943C174.67 41.4652 174.885 42.3082 174.885 43.3232V50.0711C174.885 50.5528 174.92 51.0517 174.989 51.5678C175.066 52.0839 175.174 52.5097 175.311 52.8452V53H173.673C173.569 52.6903 173.488 52.3033 173.427 51.8388C173.376 51.3657 173.35 50.9184 173.35 50.4969ZM173.711 44.8714L173.737 46.0585H170.705C169.914 46.0585 169.204 46.1316 168.576 46.2778C167.957 46.4154 167.432 46.6219 167.002 46.8971C166.572 47.1638 166.241 47.4863 166.009 47.8648C165.785 48.2433 165.673 48.6734 165.673 49.1551C165.673 49.654 165.798 50.1098 166.047 50.5227C166.305 50.9356 166.667 51.2668 167.131 51.5162C167.604 51.7571 168.163 51.8775 168.808 51.8775C169.669 51.8775 170.425 51.7184 171.079 51.4001C171.742 51.0818 172.288 50.6647 172.718 50.1486C173.148 49.6325 173.436 49.069 173.582 48.4583L174.253 49.3486C174.141 49.7787 173.935 50.2217 173.634 50.6776C173.341 51.1248 172.959 51.5463 172.486 51.942C172.012 52.3291 171.453 52.6473 170.808 52.8968C170.172 53.1376 169.449 53.258 168.641 53.258C167.729 53.258 166.933 53.086 166.254 52.742C165.583 52.3979 165.058 51.9291 164.68 51.3356C164.31 50.7335 164.125 50.0539 164.125 49.297C164.125 48.6089 164.271 47.9938 164.563 47.4519C164.856 46.9014 165.277 46.4369 165.828 46.0585C166.387 45.6714 167.058 45.3789 167.841 45.1811C168.632 44.9747 169.518 44.8714 170.499 44.8714H173.711ZM180.485 41.9297V53H178.937V39.0395H180.421L180.485 41.9297ZM180.201 45.1553L179.453 44.7682C179.504 43.9425 179.659 43.1683 179.917 42.4458C180.184 41.7232 180.554 41.0867 181.027 40.5362C181.5 39.9857 182.068 39.5556 182.73 39.246C183.392 38.9363 184.145 38.7815 184.988 38.7815C185.668 38.7815 186.283 38.8761 186.833 39.0653C187.392 39.246 187.865 39.5341 188.252 39.9298C188.648 40.3169 188.953 40.8244 189.168 41.4523C189.383 42.0802 189.491 42.8329 189.491 43.7102V53H187.956V43.7618C187.956 42.8329 187.809 42.106 187.517 41.5813C187.233 41.0566 186.833 40.6824 186.317 40.4588C185.809 40.2352 185.22 40.1233 184.549 40.1233C183.758 40.1233 183.087 40.2868 182.537 40.6136C181.995 40.9319 181.552 41.3491 181.208 41.8652C180.872 42.3727 180.623 42.9189 180.459 43.5038C180.296 44.0801 180.21 44.6306 180.201 45.1553ZM189.478 43.9425L188.446 43.9683C188.489 43.2887 188.644 42.6393 188.91 42.02C189.186 41.4007 189.56 40.8502 190.033 40.3685C190.506 39.8782 191.069 39.4911 191.723 39.2073C192.385 38.9234 193.129 38.7815 193.955 38.7815C194.678 38.7815 195.323 38.8804 195.891 39.0782C196.458 39.2675 196.936 39.5728 197.323 39.9943C197.718 40.4072 198.02 40.9362 198.226 41.5813C198.432 42.2264 198.536 43.0006 198.536 43.9038V53H196.987V43.8909C196.987 42.9017 196.841 42.1361 196.549 41.5942C196.265 41.0437 195.869 40.6609 195.362 40.4459C194.854 40.2309 194.261 40.1233 193.581 40.1233C192.91 40.1319 192.321 40.2567 191.813 40.4975C191.306 40.7298 190.88 41.0394 190.536 41.4265C190.201 41.805 189.943 42.2135 189.762 42.6522C189.59 43.0909 189.495 43.521 189.478 43.9425ZM215.735 43.9683H210.445L210.419 42.6264H214.973C215.902 42.6264 216.694 42.4931 217.347 42.2264C218.001 41.9598 218.496 41.5641 218.831 41.0394C219.175 40.5061 219.347 39.8524 219.347 39.0782C219.347 38.2869 219.18 37.6332 218.844 37.1171C218.509 36.5924 218.005 36.2053 217.335 35.9558C216.664 35.7064 215.821 35.5817 214.806 35.5817H210.857V53H209.27V34.214H214.806C215.76 34.214 216.616 34.3086 217.373 34.4979C218.13 34.6871 218.775 34.9839 219.309 35.3881C219.842 35.7924 220.246 36.3042 220.521 36.9235C220.805 37.5342 220.947 38.2654 220.947 39.117C220.947 39.8911 220.775 40.5921 220.431 41.2201C220.087 41.8394 219.601 42.3469 218.973 42.7425C218.354 43.1296 217.61 43.3705 216.741 43.4651L215.735 43.9683ZM215.618 53H209.941L210.754 51.6452H215.618C216.547 51.6452 217.339 51.4904 217.993 51.1808C218.655 50.8625 219.162 50.4109 219.515 49.826C219.868 49.2411 220.044 48.5443 220.044 47.7358C220.044 47.0219 219.889 46.381 219.58 45.8133C219.27 45.2456 218.797 44.7983 218.16 44.4715C217.524 44.136 216.715 43.9683 215.735 43.9683H212.444L212.47 42.6264H217.128L217.412 43.1038C218.255 43.1898 218.99 43.4522 219.618 43.8909C220.255 44.3209 220.745 44.8671 221.089 45.5295C221.442 46.1918 221.618 46.9186 221.618 47.71C221.618 48.8454 221.364 49.8088 220.857 50.6001C220.358 51.3829 219.657 51.9807 218.754 52.3936C217.859 52.7979 216.814 53 215.618 53ZM224.263 46.2391V45.8133C224.263 44.7983 224.409 43.8608 224.702 43.0006C224.994 42.1404 225.411 41.3964 225.953 40.7685C226.504 40.1405 227.162 39.6546 227.927 39.3105C228.693 38.9578 229.545 38.7815 230.482 38.7815C231.428 38.7815 232.284 38.9578 233.05 39.3105C233.815 39.6546 234.473 40.1405 235.024 40.7685C235.574 41.3964 235.996 42.1404 236.288 43.0006C236.581 43.8608 236.727 44.7983 236.727 45.8133V46.2391C236.727 47.2541 236.581 48.1917 236.288 49.0518C235.996 49.9034 235.574 50.6432 235.024 51.2711C234.482 51.899 233.828 52.3893 233.063 52.742C232.297 53.086 231.446 53.258 230.508 53.258C229.562 53.258 228.706 53.086 227.94 52.742C227.175 52.3893 226.517 51.899 225.966 51.2711C225.416 50.6432 224.994 49.9034 224.702 49.0518C224.409 48.1917 224.263 47.2541 224.263 46.2391ZM225.799 45.8133V46.2391C225.799 47.0047 225.902 47.7315 226.108 48.4196C226.315 49.0992 226.616 49.7056 227.011 50.2389C227.407 50.7636 227.897 51.1765 228.482 51.4775C229.067 51.7786 229.742 51.9291 230.508 51.9291C231.265 51.9291 231.932 51.7786 232.508 51.4775C233.093 51.1765 233.583 50.7636 233.979 50.2389C234.374 49.7056 234.671 49.0992 234.869 48.4196C235.075 47.7315 235.179 47.0047 235.179 46.2391V45.8133C235.179 45.0564 235.075 44.3381 234.869 43.6586C234.671 42.9791 234.37 42.3727 233.966 41.8394C233.57 41.3061 233.08 40.8846 232.495 40.5749C231.91 40.2653 231.239 40.1104 230.482 40.1104C229.725 40.1104 229.054 40.2653 228.469 40.5749C227.893 40.8846 227.403 41.3061 226.998 41.8394C226.603 42.3727 226.302 42.9791 226.095 43.6586C225.897 44.3381 225.799 45.0564 225.799 45.8133ZM245.204 39.0395V40.304H238.211V39.0395H245.204ZM240.778 35.4527H242.314V49.6067C242.314 50.2518 242.4 50.7378 242.572 51.0646C242.744 51.3915 242.967 51.6108 243.243 51.7227C243.518 51.8345 243.815 51.8904 244.133 51.8904C244.365 51.8904 244.589 51.8775 244.804 51.8517C245.019 51.8173 245.212 51.7829 245.384 51.7485L245.449 53.0516C245.26 53.1118 245.015 53.1591 244.714 53.1935C244.412 53.2365 244.111 53.258 243.81 53.258C243.217 53.258 242.692 53.1505 242.236 52.9355C241.78 52.7118 241.423 52.3334 241.165 51.8001C240.907 51.2582 240.778 50.5227 240.778 49.5938V35.4527Z" fill="black"/>
</svg>
