<svg width="1007" height="204" viewBox="0 0 1007 204" fill="none" xmlns="http://www.w3.org/2000/svg">
<mask id="path-1-inside-1_888_962" fill="white">
<path d="M212.193 201.136L140.469 84.7614L209.443 0H155.822L50.413 132.869V0H0V201.136H45.6009L108.503 123.935L154.791 201.136H212.193Z"/>
<path d="M315.196 97.0174C304.77 97.2465 295.489 98.8501 287.01 102.057C278.646 105.264 272.574 110.075 268.793 116.49V200.907H225.827V60.3638H265.241V88.7704C270.053 79.2633 276.24 71.8181 283.917 66.5491C291.479 61.1656 299.614 58.4166 308.207 58.1875H312.561C313.477 58.1875 314.394 58.1875 315.196 58.4166V97.0174Z"/>
<path d="M373.056 203.771C366.067 203.771 359.651 202.625 353.579 200.449C347.621 198.273 342.465 195.066 338.111 191.057C333.757 187.048 330.434 182.351 327.914 176.853C325.393 171.355 324.133 165.399 324.133 158.985C324.133 151.998 325.622 145.698 328.601 139.971C331.58 134.244 335.705 129.318 341.09 125.195C346.475 121.071 352.777 117.864 360.109 115.573C367.442 113.282 375.577 112.137 384.514 112.137C390.357 112.137 396.086 112.595 401.7 113.626C407.2 114.657 412.126 116.031 416.137 118.093V111.679C416.137 95.4138 406.741 87.2813 387.951 87.2813C380.275 87.2813 372.942 88.5413 365.953 91.1757C358.964 93.8102 351.631 97.7047 343.954 102.859L331.351 76.0561C340.632 69.9854 350.256 65.4037 360.339 62.4256C370.307 59.4475 380.962 57.8439 392.305 57.8439C413.616 57.8439 430 62.8838 441.687 72.849C453.373 82.8141 459.102 97.4756 459.102 116.833V153.029C459.102 157.381 459.79 160.359 461.05 161.963C462.425 163.681 464.716 164.712 468.154 165.056V201.251C464.373 202.167 461.05 202.74 457.956 202.969C454.863 203.198 452.113 203.427 449.592 203.427C441.572 203.427 435.5 201.824 431.375 198.731C427.25 195.638 424.73 191.171 423.584 185.444L422.782 179.03C416.48 187.048 409.033 193.233 400.325 197.586C391.617 201.824 382.451 204 372.827 204L373.056 203.771ZM385.66 172.959C390.357 172.959 394.826 172.157 399.179 170.554C403.533 168.95 407.2 166.774 410.064 164.139C414.189 160.932 416.251 157.496 416.251 153.945V140.544C412.47 139.169 408.46 138.024 403.992 137.222C399.523 136.42 395.513 135.962 391.732 135.962C383.826 135.962 377.41 137.794 372.254 141.345C367.213 144.896 364.578 149.592 364.578 155.319C364.578 160.474 366.526 164.712 370.421 168.034C374.317 171.355 379.358 172.959 385.43 172.959H385.66Z"/>
<path d="M499.433 201.136V104.348H481.444V71.9326H499.433V60.3638C499.433 51.6586 500.578 43.6407 502.87 36.539C505.161 29.4374 508.484 23.2521 512.838 18.3268C517.192 13.2869 522.348 9.50702 528.42 6.758C534.493 4.12353 541.253 2.74902 548.585 2.74902C560.043 2.74902 572.302 5.49803 585.364 11.1106L577.573 43.297C574.708 42.0371 571.5 41.0062 568.063 40.2044C564.626 39.4026 561.303 39.059 558.324 39.059C547.783 39.059 542.513 45.7024 542.513 58.8748V72.0472H575.281V104.463H542.513V201.251H499.547L499.433 201.136Z"/>
<path d="M697.647 193.577C691.804 196.097 685.044 198.387 677.368 200.564C669.806 202.74 662.129 203.771 654.453 203.771C649.068 203.771 644.026 203.084 639.329 201.709C634.631 200.335 630.392 198.273 626.84 195.295C623.288 192.317 620.424 188.422 618.362 183.611C616.299 178.801 615.268 172.959 615.268 166.201V92.6648H597.28V60.2493H615.268V15.5778H658.234V60.3638H686.877V92.7793H658.234V151.54C658.234 156.236 659.379 159.558 661.671 161.619C663.962 163.681 666.941 164.712 670.493 164.712C673.701 164.712 677.024 164.139 680.461 163.108C683.898 162.077 686.763 160.818 689.283 159.672L697.647 193.691V193.577Z"/>
<path d="M781.631 203.771C769.83 203.771 759.289 201.824 749.894 198.044C740.499 194.149 732.593 188.995 726.062 182.351C719.531 175.708 714.605 168.148 711.167 159.443C707.73 150.738 706.011 141.689 706.011 132.182C706.011 121.988 707.73 112.366 711.167 103.317C714.605 94.2684 719.531 86.365 725.947 79.607C732.364 72.849 740.269 67.4655 749.664 63.571C759.06 59.6766 769.715 57.7294 781.746 57.7294C793.776 57.7294 804.317 59.6766 813.712 63.571C822.993 67.4655 830.898 72.849 837.314 79.4924C843.731 86.1359 848.657 93.9248 851.98 102.63C855.303 111.335 856.907 120.613 856.907 130.235C856.907 132.755 856.907 135.16 856.678 137.565C856.448 139.971 856.219 142.033 855.876 143.865H751.841C752.529 153.372 755.966 160.588 762.153 165.399C768.34 170.325 775.329 172.73 783.235 172.73C789.537 172.73 795.495 171.241 801.338 168.148C807.181 165.056 811.077 161.047 813.024 155.778L849.459 165.972C843.96 177.083 835.367 186.131 823.68 193.004C811.993 199.876 798.13 203.427 781.86 203.427L781.631 203.771ZM811.42 117.406C810.504 108.472 807.296 101.37 801.796 96.2156C796.297 91.0612 789.422 88.4267 781.173 88.4267C772.923 88.4267 765.82 91.0612 760.435 96.3302C754.935 101.599 751.841 108.586 750.925 117.406H811.535H811.42Z"/>
<path d="M906.059 60.3638L931.495 99.9955L934.13 105.15L936.766 99.9955L961.972 60.3638H1005.97L957.16 130.922L1007 201.136H963.003L936.422 161.734L934.016 156.694L931.61 161.734L905.028 201.136H861.031L910.872 130.922L862.063 60.3638H906.059Z"/>
</mask>
<path d="M212.193 201.136L140.469 84.7614L209.443 0H155.822L50.413 132.869V0H0V201.136H45.6009L108.503 123.935L154.791 201.136H212.193Z" stroke="url(#paint0_linear_888_962)" stroke-width="2" mask="url(#path-1-inside-1_888_962)"/>
<path d="M315.196 97.0174C304.77 97.2465 295.489 98.8501 287.01 102.057C278.646 105.264 272.574 110.075 268.793 116.49V200.907H225.827V60.3638H265.241V88.7704C270.053 79.2633 276.24 71.8181 283.917 66.5491C291.479 61.1656 299.614 58.4166 308.207 58.1875H312.561C313.477 58.1875 314.394 58.1875 315.196 58.4166V97.0174Z" stroke="url(#paint1_linear_888_962)" stroke-width="2" mask="url(#path-1-inside-1_888_962)"/>
<path d="M373.056 203.771C366.067 203.771 359.651 202.625 353.579 200.449C347.621 198.273 342.465 195.066 338.111 191.057C333.757 187.048 330.434 182.351 327.914 176.853C325.393 171.355 324.133 165.399 324.133 158.985C324.133 151.998 325.622 145.698 328.601 139.971C331.58 134.244 335.705 129.318 341.09 125.195C346.475 121.071 352.777 117.864 360.109 115.573C367.442 113.282 375.577 112.137 384.514 112.137C390.357 112.137 396.086 112.595 401.7 113.626C407.2 114.657 412.126 116.031 416.137 118.093V111.679C416.137 95.4138 406.741 87.2813 387.951 87.2813C380.275 87.2813 372.942 88.5413 365.953 91.1757C358.964 93.8102 351.631 97.7047 343.954 102.859L331.351 76.0561C340.632 69.9854 350.256 65.4037 360.339 62.4256C370.307 59.4475 380.962 57.8439 392.305 57.8439C413.616 57.8439 430 62.8838 441.687 72.849C453.373 82.8141 459.102 97.4756 459.102 116.833V153.029C459.102 157.381 459.79 160.359 461.05 161.963C462.425 163.681 464.716 164.712 468.154 165.056V201.251C464.373 202.167 461.05 202.74 457.956 202.969C454.863 203.198 452.113 203.427 449.592 203.427C441.572 203.427 435.5 201.824 431.375 198.731C427.25 195.638 424.73 191.171 423.584 185.444L422.782 179.03C416.48 187.048 409.033 193.233 400.325 197.586C391.617 201.824 382.451 204 372.827 204L373.056 203.771ZM385.66 172.959C390.357 172.959 394.826 172.157 399.179 170.554C403.533 168.95 407.2 166.774 410.064 164.139C414.189 160.932 416.251 157.496 416.251 153.945V140.544C412.47 139.169 408.46 138.024 403.992 137.222C399.523 136.42 395.513 135.962 391.732 135.962C383.826 135.962 377.41 137.794 372.254 141.345C367.213 144.896 364.578 149.592 364.578 155.319C364.578 160.474 366.526 164.712 370.421 168.034C374.317 171.355 379.358 172.959 385.43 172.959H385.66Z" stroke="url(#paint2_linear_888_962)" stroke-width="2" mask="url(#path-1-inside-1_888_962)"/>
<path d="M499.433 201.136V104.348H481.444V71.9326H499.433V60.3638C499.433 51.6586 500.578 43.6407 502.87 36.539C505.161 29.4374 508.484 23.2521 512.838 18.3268C517.192 13.2869 522.348 9.50702 528.42 6.758C534.493 4.12353 541.253 2.74902 548.585 2.74902C560.043 2.74902 572.302 5.49803 585.364 11.1106L577.573 43.297C574.708 42.0371 571.5 41.0062 568.063 40.2044C564.626 39.4026 561.303 39.059 558.324 39.059C547.783 39.059 542.513 45.7024 542.513 58.8748V72.0472H575.281V104.463H542.513V201.251H499.547L499.433 201.136Z" stroke="url(#paint3_linear_888_962)" stroke-width="2" mask="url(#path-1-inside-1_888_962)"/>
<path d="M697.647 193.577C691.804 196.097 685.044 198.387 677.368 200.564C669.806 202.74 662.129 203.771 654.453 203.771C649.068 203.771 644.026 203.084 639.329 201.709C634.631 200.335 630.392 198.273 626.84 195.295C623.288 192.317 620.424 188.422 618.362 183.611C616.299 178.801 615.268 172.959 615.268 166.201V92.6648H597.28V60.2493H615.268V15.5778H658.234V60.3638H686.877V92.7793H658.234V151.54C658.234 156.236 659.379 159.558 661.671 161.619C663.962 163.681 666.941 164.712 670.493 164.712C673.701 164.712 677.024 164.139 680.461 163.108C683.898 162.077 686.763 160.818 689.283 159.672L697.647 193.691V193.577Z" stroke="url(#paint4_linear_888_962)" stroke-width="2" mask="url(#path-1-inside-1_888_962)"/>
<path d="M781.631 203.771C769.83 203.771 759.289 201.824 749.894 198.044C740.499 194.149 732.593 188.995 726.062 182.351C719.531 175.708 714.605 168.148 711.167 159.443C707.73 150.738 706.011 141.689 706.011 132.182C706.011 121.988 707.73 112.366 711.167 103.317C714.605 94.2684 719.531 86.365 725.947 79.607C732.364 72.849 740.269 67.4655 749.664 63.571C759.06 59.6766 769.715 57.7294 781.746 57.7294C793.776 57.7294 804.317 59.6766 813.712 63.571C822.993 67.4655 830.898 72.849 837.314 79.4924C843.731 86.1359 848.657 93.9248 851.98 102.63C855.303 111.335 856.907 120.613 856.907 130.235C856.907 132.755 856.907 135.16 856.678 137.565C856.448 139.971 856.219 142.033 855.876 143.865H751.841C752.529 153.372 755.966 160.588 762.153 165.399C768.34 170.325 775.329 172.73 783.235 172.73C789.537 172.73 795.495 171.241 801.338 168.148C807.181 165.056 811.077 161.047 813.024 155.778L849.459 165.972C843.96 177.083 835.367 186.131 823.68 193.004C811.993 199.876 798.13 203.427 781.86 203.427L781.631 203.771ZM811.42 117.406C810.504 108.472 807.296 101.37 801.796 96.2156C796.297 91.0612 789.422 88.4267 781.173 88.4267C772.923 88.4267 765.82 91.0612 760.435 96.3302C754.935 101.599 751.841 108.586 750.925 117.406H811.535H811.42Z" stroke="url(#paint5_linear_888_962)" stroke-width="2" mask="url(#path-1-inside-1_888_962)"/>
<path d="M906.059 60.3638L931.495 99.9955L934.13 105.15L936.766 99.9955L961.972 60.3638H1005.97L957.16 130.922L1007 201.136H963.003L936.422 161.734L934.016 156.694L931.61 161.734L905.028 201.136H861.031L910.872 130.922L862.063 60.3638H906.059Z" stroke="url(#paint6_linear_888_962)" stroke-width="2" mask="url(#path-1-inside-1_888_962)"/>
<defs>
<linearGradient id="paint0_linear_888_962" x1="-195.5" y1="-75.5" x2="1036.36" y2="213.458" gradientUnits="userSpaceOnUse">
<stop stop-color="#2B6849"/>
<stop offset="0.275886" stop-color="#A6F696" stop-opacity="0.861638"/>
<stop offset="0.636023" stop-color="#BDFFB0" stop-opacity="0.818558"/>
<stop offset="0.821426" stop-color="#3B6E31" stop-opacity="0.794096"/>
<stop offset="0.922735" stop-color="#274D20" stop-opacity="0.740653"/>
<stop offset="1" stop-opacity="0"/>
</linearGradient>
<linearGradient id="paint1_linear_888_962" x1="-195.5" y1="-75.5" x2="1036.36" y2="213.458" gradientUnits="userSpaceOnUse">
<stop stop-color="#2B6849"/>
<stop offset="0.275886" stop-color="#A6F696" stop-opacity="0.861638"/>
<stop offset="0.636023" stop-color="#BDFFB0" stop-opacity="0.818558"/>
<stop offset="0.821426" stop-color="#3B6E31" stop-opacity="0.794096"/>
<stop offset="0.922735" stop-color="#274D20" stop-opacity="0.740653"/>
<stop offset="1" stop-opacity="0"/>
</linearGradient>
<linearGradient id="paint2_linear_888_962" x1="-195.5" y1="-75.5" x2="1036.36" y2="213.458" gradientUnits="userSpaceOnUse">
<stop stop-color="#2B6849"/>
<stop offset="0.275886" stop-color="#A6F696" stop-opacity="0.861638"/>
<stop offset="0.636023" stop-color="#BDFFB0" stop-opacity="0.818558"/>
<stop offset="0.821426" stop-color="#3B6E31" stop-opacity="0.794096"/>
<stop offset="0.922735" stop-color="#274D20" stop-opacity="0.740653"/>
<stop offset="1" stop-opacity="0"/>
</linearGradient>
<linearGradient id="paint3_linear_888_962" x1="-195.5" y1="-75.5" x2="1036.36" y2="213.458" gradientUnits="userSpaceOnUse">
<stop stop-color="#2B6849"/>
<stop offset="0.275886" stop-color="#A6F696" stop-opacity="0.861638"/>
<stop offset="0.636023" stop-color="#BDFFB0" stop-opacity="0.818558"/>
<stop offset="0.821426" stop-color="#3B6E31" stop-opacity="0.794096"/>
<stop offset="0.922735" stop-color="#274D20" stop-opacity="0.740653"/>
<stop offset="1" stop-opacity="0"/>
</linearGradient>
<linearGradient id="paint4_linear_888_962" x1="-195.5" y1="-75.5" x2="1036.36" y2="213.458" gradientUnits="userSpaceOnUse">
<stop stop-color="#2B6849"/>
<stop offset="0.275886" stop-color="#A6F696" stop-opacity="0.861638"/>
<stop offset="0.636023" stop-color="#BDFFB0" stop-opacity="0.818558"/>
<stop offset="0.821426" stop-color="#3B6E31" stop-opacity="0.794096"/>
<stop offset="0.922735" stop-color="#274D20" stop-opacity="0.740653"/>
<stop offset="1" stop-opacity="0"/>
</linearGradient>
<linearGradient id="paint5_linear_888_962" x1="-195.5" y1="-75.5" x2="1036.36" y2="213.458" gradientUnits="userSpaceOnUse">
<stop stop-color="#2B6849"/>
<stop offset="0.275886" stop-color="#A6F696" stop-opacity="0.861638"/>
<stop offset="0.636023" stop-color="#BDFFB0" stop-opacity="0.818558"/>
<stop offset="0.821426" stop-color="#3B6E31" stop-opacity="0.794096"/>
<stop offset="0.922735" stop-color="#274D20" stop-opacity="0.740653"/>
<stop offset="1" stop-opacity="0"/>
</linearGradient>
<linearGradient id="paint6_linear_888_962" x1="-195.5" y1="-75.5" x2="1036.36" y2="213.458" gradientUnits="userSpaceOnUse">
<stop stop-color="#2B6849"/>
<stop offset="0.275886" stop-color="#A6F696" stop-opacity="0.861638"/>
<stop offset="0.636023" stop-color="#BDFFB0" stop-opacity="0.818558"/>
<stop offset="0.821426" stop-color="#3B6E31" stop-opacity="0.794096"/>
<stop offset="0.922735" stop-color="#274D20" stop-opacity="0.740653"/>
<stop offset="1" stop-opacity="0"/>
</linearGradient>
</defs>
</svg>
