<svg width="58" height="59" viewBox="0 0 58 59" fill="none" xmlns="http://www.w3.org/2000/svg">
<path fill-rule="evenodd" clip-rule="evenodd" d="M45.5343 0.157078C43.5076 0.610717 41.7411 1.93388 40.8103 3.69531L40.5029 4.27733L39.8472 4.01934C37.8348 3.2279 35.4062 2.58526 33.0677 2.22557C31.1543 1.9313 26.8405 1.9313 24.9271 2.22557C20.5732 2.89539 16.4597 4.44728 12.9602 6.74044L11.6449 7.60234L10.8297 7.06483C8.05827 5.23774 4.40127 5.593 2.02897 7.91972C0.613925 9.30745 -0.154951 11.3661 0.0261672 13.282C0.153625 14.6296 1.00005 16.6348 2.13291 18.2728L2.49665 18.7986L1.9992 20.0558C0.728499 23.2673 0.14562 26.0454 0.0194127 29.4906C-0.425752 41.6423 7.00571 52.7125 18.5541 57.1005C23.5341 58.9928 29.2297 59.4942 34.4631 58.5014C43.9688 56.6979 51.9902 50.3204 55.699 41.6176C59.0106 33.8467 58.7385 25.2751 54.942 17.7708C54.1295 16.1645 53.1486 14.5949 52.1969 13.3779L51.6652 12.6981L52.2729 11.7296C53.925 9.09705 54.367 6.80623 53.6326 4.68461C52.5036 1.4238 48.8929 -0.594765 45.5343 0.157078ZM49.0641 2.41494C50.1747 2.92589 50.925 3.64342 51.4523 4.69863C52.4597 6.71511 52.0728 8.4908 49.9498 11.5956C48.95 13.0577 47.214 15.1645 47.0091 15.1645C46.8042 15.1645 45.0682 13.0577 44.0685 11.5956C43.0498 10.1058 42.3719 8.7574 42.1304 7.74031C41.672 5.80967 42.7594 3.55156 44.6158 2.57874C45.6011 2.06251 46.1402 1.94569 47.2904 1.99955C48.0412 2.03472 48.4411 2.1283 49.0641 2.41494ZM33.4378 4.2734C35.2637 4.58402 37.2269 5.11944 38.7806 5.73072L39.942 6.18768L40.0213 7.06028C40.2594 9.67747 41.7999 12.4095 45.1633 16.1783C46.4041 17.5689 46.7211 17.7832 47.3181 17.6359C47.5799 17.5713 48.6477 16.4643 50.1573 14.6928L50.4545 14.3441L51.216 15.4307C56.7595 23.3404 57.5419 33.5055 53.2686 42.0951C52.1273 44.389 50.5624 46.6341 48.7686 48.5511L48.0207 49.3504L48.0153 47.0823L48.0098 44.8141L45.5081 42.344L43.0065 39.874V37.4268V34.9797L41.0052 32.999L39.0039 31.0184V29.4943V27.9703L40.0046 26.9624L41.0052 25.9545V22.5916V19.2286L38.219 16.4896L35.433 13.7504H32.936H30.4391L28.7176 12.0611L26.9961 10.372V7.21412C26.9961 4.80771 27.0332 4.03926 27.1525 3.98503C27.5167 3.81951 31.9703 4.02377 33.4378 4.2734ZM46.0085 4.07345C45.3946 4.26368 44.3475 5.32959 44.1593 5.95601C43.8128 7.10898 44.0571 8.02818 44.941 8.89722C46.2212 10.1558 47.9878 10.129 49.1729 8.83303C50.336 7.56114 50.2995 6.03249 49.0772 4.83082C48.197 3.9656 47.1726 3.71278 46.0085 4.07345ZM24.9948 7.75187V11.2221L27.2813 13.47L29.5678 15.7179H32.0644H34.561L36.7825 17.8994L39.0039 20.0808V22.5946V25.1083L38.0033 26.1163L37.0026 27.1242V29.4979V31.8717L39.0039 33.8524L41.0052 35.833V38.2808V40.7288L43.5068 43.1989L46.0085 45.6689V48.3896V51.1102L45.1642 51.7254C42.7876 53.4574 40.1432 54.8096 37.4291 55.6806C35.7759 56.211 33.3287 56.7363 31.9055 56.8659L30.9987 56.9484V55.246V53.5434L32.4997 52.0508L34.0007 50.5582V48.61V46.6619L35.0013 45.6539L36.002 44.646V42.2723V39.8985L34.0217 37.9226L32.0415 35.9466L32.3437 35.2213C33.0549 33.5146 33.1542 31.8019 32.6289 30.3014C32.489 29.902 32.3746 29.556 32.3746 29.5328C32.3746 29.5097 32.6109 29.4906 32.8997 29.4906C33.399 29.4906 33.4878 29.4285 34.7134 28.2238L36.002 26.9568V23.6067V20.2566L35.6949 19.9549L35.3879 19.653H31.9994H28.6108L28.3038 19.9549C28.0145 20.2393 27.9967 20.3358 27.9967 21.63V23.0032L28.9974 24.0111L29.9981 25.019V25.895V26.771L29.4665 26.4722C28.3731 25.8576 27.407 25.6205 25.9954 25.6206C24.0189 25.6207 22.4619 26.2313 21.116 27.534C19.0129 29.5698 18.4722 32.3985 19.6467 35.2213L19.9485 35.9466L18.469 37.4332L16.9896 38.9198V40.8085V42.6971L18.2782 43.964L19.5669 45.2309H21.2801H22.9935V46.906V48.5811L23.9941 49.589L24.9948 50.5969V53.6745V56.7521L24.1209 56.5897C18.3525 55.5174 12.7947 52.488 9.05054 48.3751L8.19311 47.4332L10.0897 45.5545L11.9863 43.6759V42.2151V40.7545L13.4873 39.2619L14.9883 37.7693V35.8809V33.9927L12.4867 31.5226L9.98502 29.0526V28.2879V27.5231H11.2008H12.4166L14.7031 25.2752L16.9896 23.0273V21.0681V19.109L18.9909 17.1284L20.9922 15.1477V12.7629V10.378L19.205 8.62103C17.7356 7.17649 17.3519 6.8623 17.0474 6.85468C16.7434 6.84705 16.8678 6.75692 17.7401 6.3532C19.6568 5.46609 23.4993 4.31902 24.6508 4.29025L24.9948 4.28164V7.75187ZM47.7027 6.18215C48.3232 6.79208 47.8836 7.84779 47.0091 7.84779C46.4949 7.84779 46.0085 7.36955 46.0085 6.86402C46.0085 6.35849 46.4949 5.88026 47.0091 5.88026C47.2528 5.88026 47.5092 5.99179 47.7027 6.18215ZM9.03803 8.31754C10.1486 8.82848 10.899 9.54601 11.4262 10.6012C12.4336 12.6177 12.0467 14.3934 9.92373 17.4982C8.92396 18.9603 7.18795 21.0671 6.98307 21.0671C6.77819 21.0671 5.04218 18.9603 4.04241 17.4982C3.02374 16.0084 2.3458 14.66 2.10439 13.6429C1.64597 11.7123 2.7333 9.45415 4.58976 8.48133C5.57503 7.9651 6.11413 7.84828 7.26438 7.90214C8.01512 7.93731 8.415 8.03089 9.03803 8.31754ZM17.7691 10.0282L18.9909 11.2248V12.7596V14.2944L16.9896 16.275L14.9883 18.2557V20.2132V22.1707L13.27 23.8631L11.5519 25.5556H10.0748C8.6733 25.5556 8.58199 25.5711 8.2908 25.8575C7.9916 26.1515 7.98372 26.2076 7.98372 28.0333V29.9074L10.4854 32.3775L12.987 34.8475V35.8829V36.9183L11.486 38.4109L9.98502 39.9035V41.3702V42.8368L8.48617 44.3065C7.54819 45.2262 6.94467 45.7316 6.87325 45.6572C6.50401 45.2727 5.35389 43.3629 4.7281 42.0951C3.52082 39.6496 2.59959 36.6966 2.21522 34.0405C1.96768 32.3299 1.99783 28.294 2.27125 26.5634C2.5727 24.6549 3.52995 21.1867 3.84878 20.8479C3.89869 20.7949 4.48582 21.3615 5.1535 22.1071C6.93041 24.0912 7.05086 24.0862 8.9521 21.9467C11.2899 19.316 12.8678 16.9138 13.5684 14.9186C13.8543 14.1043 13.9145 13.723 13.9171 12.7051C13.9203 11.4439 13.7494 10.7027 13.2126 9.65226C12.8289 8.9014 12.9732 8.83155 14.9076 8.83155H16.5473L17.7691 10.0282ZM5.98242 9.97604C5.36852 10.1663 4.32146 11.2322 4.13322 11.8586C3.78674 13.0116 4.03102 13.9308 4.91497 14.7998C6.19518 16.0584 7.96171 16.0316 9.14685 14.7356C10.31 13.4637 10.2735 11.9351 9.05117 10.7334C8.17097 9.8682 7.14655 9.61537 5.98242 9.97604ZM7.67665 12.0847C7.87027 12.275 7.98372 12.5271 7.98372 12.7666C7.98372 13.0062 7.87027 13.2583 7.67665 13.4485C7.48315 13.6388 7.22673 13.7504 6.98307 13.7504C6.73941 13.7504 6.483 13.6388 6.28949 13.4485C6.09587 13.2583 5.98242 13.0062 5.98242 12.7666C5.98242 12.5271 6.09587 12.275 6.28949 12.0847C6.483 11.8944 6.73941 11.7828 6.98307 11.7828C7.22673 11.7828 7.48315 11.8944 7.67665 12.0847ZM34.0007 23.8612V26.1018L33.2853 26.8124C32.83 27.2649 32.4663 27.5231 32.2847 27.5231C32.0016 27.5231 31.9994 27.5099 31.9994 25.848V24.1729L30.9987 23.165C30.3669 22.5286 29.9981 22.0582 29.9981 21.8888C29.9981 21.6242 30.0258 21.6205 31.9994 21.6205H34.0007V23.8612ZM28.0504 27.9928C29.161 28.5038 29.9114 29.2213 30.4386 30.2765C31.446 32.293 31.0591 34.0687 28.9361 37.1735C27.9363 38.6356 26.2003 40.7424 25.9954 40.7424C25.7906 40.7424 24.0546 38.6356 23.0548 37.1735C22.0361 35.6837 21.3582 34.3353 21.1168 33.3182C20.6583 31.3876 21.7457 29.1295 23.6021 28.1566C24.5874 27.6404 25.1265 27.5236 26.2768 27.5774C27.0275 27.6126 27.4274 27.7062 28.0504 27.9928ZM24.9948 29.6514C24.3809 29.8416 23.3338 30.9075 23.1456 31.5339C22.7991 32.6869 23.0434 33.6061 23.9274 34.4751C25.2076 35.7337 26.9741 35.7069 28.1592 34.4109C29.3224 33.139 29.2858 31.6104 28.0635 30.4087C27.1833 29.5435 26.1589 29.2907 24.9948 29.6514ZM26.689 31.76C27.3096 32.37 26.8699 33.4257 25.9954 33.4257C25.4812 33.4257 24.9948 32.9475 24.9948 32.4419C24.9948 31.9364 25.4812 31.4582 25.9954 31.4582C26.2391 31.4582 26.4955 31.5697 26.689 31.76ZM21.3824 38.307C21.8282 39.0162 23.4369 41.0079 24.4682 42.1277C25.4132 43.1538 25.746 43.3515 26.2985 43.2153C26.7667 43.0997 29.4773 39.9972 30.7697 38.098L30.9784 37.7911L32.4895 39.2648L34.0007 40.7386V42.2692V43.7999L33 44.8079L31.9994 45.8157V47.7615V49.7073L30.4984 51.1999L28.9974 52.6925V54.8643V57.0361H28.1946C26.885 57.0361 26.9961 57.3805 26.9961 53.3188V49.7508L25.9954 48.7429L24.9948 47.7349V45.801C24.9948 43.9116 24.9877 43.8601 24.6877 43.5652C24.3876 43.2701 24.3362 43.2633 22.4011 43.2633H20.4214L19.7062 42.5527L18.9909 41.842V40.8031V39.7641L19.9574 38.8084C20.4889 38.2827 20.9627 37.8526 21.0103 37.8526C21.058 37.8526 21.2253 38.0571 21.3824 38.307Z" fill="white"/>
</svg>
