<svg width="57" height="58" viewBox="0 0 57 58" fill="none" xmlns="http://www.w3.org/2000/svg">
<path fill-rule="evenodd" clip-rule="evenodd" d="M26.8053 0.159929C25.8029 0.446472 25.3178 0.683477 24.4614 1.30484C22.8424 2.47968 21.8823 4.21365 21.6406 6.39988L21.5627 7.10423L20.2125 7.6401C17.365 8.77005 14.8482 10.4642 12.5477 12.7994C10.2635 15.1181 8.58994 17.6895 7.47627 20.5914L6.9493 21.9644L6.25665 22.0436C4.06196 22.2945 2.37718 23.2784 1.18426 25.0058C0.271152 26.328 0 27.2469 0 29.0188C0 30.7907 0.271152 31.7096 1.18426 33.0318C2.37718 34.7592 4.06196 35.7431 6.25665 35.994L6.9493 36.0732L7.47627 37.4462C8.5887 40.3451 10.2596 42.9127 12.5483 45.2398C14.8368 47.5671 17.3618 49.2663 20.2125 50.3975L21.5627 50.9334L21.6406 51.6377C21.8874 53.8695 22.8549 55.5827 24.5536 56.7957C25.8539 57.7243 26.7575 58 28.5 58C30.2425 58 31.1461 57.7243 32.4464 56.7957C34.1463 55.5817 35.1125 53.87 35.3599 51.6333L35.4384 50.9246L36.204 50.6428C42.1136 48.4684 47.0162 43.6564 49.4189 37.6723L50.0615 36.0719L50.7487 35.9934C52.9374 35.7433 54.6239 34.7576 55.8157 33.0318C56.7289 31.7096 57 30.7907 57 29.0188C57 27.2469 56.7289 26.328 55.8157 25.0058C54.6228 23.2784 52.938 22.2945 50.7434 22.0436L50.0507 21.9644L49.5295 20.6063C47.8718 16.2871 44.8421 12.4824 40.9881 9.88064C39.6428 8.97248 37.5331 7.87471 36.204 7.3914L35.4384 7.11303L35.3599 6.40428C35.0454 3.56073 33.381 1.32823 30.8673 0.377697C29.8265 -0.0159696 27.8005 -0.124476 26.8053 0.159929ZM29.514 1.8763C30.8348 2.16133 32.2177 3.15725 32.8718 4.29437C33.7158 5.76166 33.79 7.64098 33.0657 9.2076L32.813 9.75453L31.9816 9.12399L31.1502 8.49344L31.5052 7.78607C31.8203 7.15829 31.8543 6.9795 31.8071 6.19846C31.6905 4.27073 30.3752 2.99782 28.5 2.99782C26.6248 2.99782 25.3095 4.27073 25.1929 6.19846C25.1455 6.98239 25.1792 7.15729 25.501 7.79865L25.8624 8.51871L25.4193 8.81997C25.1756 8.98555 24.8174 9.2726 24.6233 9.45755C24.2962 9.76937 24.2589 9.77817 24.1143 9.577C23.4361 8.63401 23.2694 6.292 23.7859 4.96817C24.3259 3.58474 25.8393 2.27675 27.3254 1.90924C28.1278 1.71083 28.7064 1.70216 29.514 1.8763ZM29.2296 4.93472C29.9123 5.29369 30.2409 6.19934 29.946 6.90834C29.6517 7.61571 29.312 7.83297 28.5 7.83297C27.688 7.83297 27.3483 7.61571 27.054 6.90834C26.5043 5.5869 27.9594 4.26684 29.2296 4.93472ZM38.1414 10.2935C38.941 10.7139 40.1729 11.4989 40.8789 12.0382C42.4207 13.2159 44.468 15.3448 45.5446 16.8899C46.3593 18.0592 47.9785 21.2422 48.1097 21.9324C48.1792 22.2973 48.1519 22.338 47.7482 22.4734C47.0777 22.6985 45.943 23.4945 45.2152 24.2504C44.4872 25.0064 43.7576 26.3731 43.5276 27.4116L43.3805 28.0758H40.8064H38.2324L38.0121 26.9694C37.7408 25.6068 36.9219 23.8557 36.0469 22.7668C34.6839 21.0708 32.5879 19.7705 30.5401 19.3504L29.4273 19.1221V16.5051V13.888L30.1513 13.7207C32.1846 13.2511 34.2972 11.3527 34.9192 9.43605L35.0878 8.91703L35.8877 9.22331C36.3277 9.39167 37.3419 9.87335 38.1414 10.2935ZM22.0675 9.45843C22.2865 10.133 23.1306 11.3791 23.8316 12.0626C24.5467 12.7598 25.9325 13.5115 26.9195 13.7375L27.5727 13.8871V16.5046V19.1221L26.4846 19.3461C25.1447 19.622 23.4227 20.4547 22.3518 21.3445C20.684 22.7304 19.4052 24.8618 18.9921 26.9442L18.7676 28.0758H16.1941H13.6204L13.456 27.3396C13.2257 26.3085 12.5299 25.0272 11.7718 24.2382C11.0616 23.499 9.92047 22.698 9.26442 22.4777C9.02195 22.3964 8.84056 22.2514 8.84056 22.1387C8.84056 21.8062 9.70867 19.8428 10.4233 18.5589C12.2023 15.3634 15.0213 12.4847 18.1509 10.6677C19.3738 9.95771 21.3874 9.03396 21.7208 9.02994C21.8478 9.02843 21.9817 9.19389 22.0675 9.45843ZM29.8953 9.9806C30.211 10.09 30.7069 10.394 30.9974 10.656L31.5255 11.1327L31.0947 11.4029C29.7002 12.2773 27.3073 12.2825 25.9234 11.4139C25.5726 11.1939 25.5343 11.1256 25.6689 10.9607C25.9383 10.6305 26.827 10.0584 27.2723 9.92829C27.9337 9.73517 29.2634 9.7617 29.8953 9.9806ZM27.6345 24.7439V28.1387H26.3797H25.125L25.201 27.1356C25.3189 25.5812 25.8349 23.7526 26.4669 22.649C26.8329 22.0099 27.3692 21.3491 27.5219 21.3491C27.5869 21.3491 27.6345 22.7854 27.6345 24.7439ZM29.9816 21.8206C30.8797 22.9154 31.6736 25.2404 31.8065 27.1642L31.8738 28.1387H30.6196H29.3655V24.7439C29.3655 22.7423 29.4125 21.3491 29.4801 21.3491C29.5432 21.3491 29.7688 21.5614 29.9816 21.8206ZM24.5691 22.4371C24.0278 23.5331 23.5244 25.531 23.3622 27.2271L23.275 28.1387H21.9309C21.1916 28.1387 20.5868 28.0911 20.5868 28.0331C20.5868 27.975 20.6967 27.4904 20.831 26.9563C21.1465 25.702 21.6806 24.6955 22.5488 23.7198C23.2194 22.9661 24.6463 21.789 24.7551 21.8997C24.7841 21.9293 24.7004 22.1711 24.5691 22.4371ZM34.0752 23.3635C34.9029 24.1961 35.2396 24.645 35.5859 25.3772C35.9493 26.1452 36.403 27.6115 36.4114 28.0444C36.4124 28.0962 35.8115 28.1387 35.0759 28.1387H33.7386L33.596 26.9128C33.3858 25.1033 33.0481 23.8743 32.2436 21.9898C32.0779 21.6017 33.0444 22.3267 34.0752 23.3635ZM7.94921 23.9944C9.18788 24.285 10.3334 25.1044 11.0597 26.2194C12.0023 27.6664 12.0995 29.841 11.2934 31.4477L11.0518 31.9292L10.5335 31.4484C10.2484 31.184 9.8856 30.8824 9.72734 30.778L9.4395 30.5886L9.7674 29.9458C10.8756 27.7738 9.21038 24.9954 6.80043 24.9954C5.61481 24.9954 4.28848 25.8575 3.75718 26.9735C3.25407 28.0305 3.36053 29.102 4.11278 30.5516C4.13751 30.5995 4.00125 30.7221 3.80997 30.8243C3.61857 30.9264 3.25184 31.2075 2.99491 31.4491L2.52766 31.8882L2.22807 31.287C1.2838 29.3921 1.6368 27.0923 3.1193 25.4807C3.42927 25.1436 3.87452 24.7474 4.1087 24.6003C5.1279 23.9597 6.72637 23.7075 7.94921 23.9944ZM51.6299 24.0661C54.0869 24.8063 55.6738 27.362 55.2225 29.8523C55.1394 30.3107 54.9366 30.9563 54.7719 31.287L54.4723 31.8882L54.0051 31.4491C53.7482 31.2075 53.3814 30.9264 53.19 30.8243C52.9987 30.7221 52.8625 30.5995 52.8872 30.5516C53.6395 29.102 53.7459 28.0305 53.2428 26.9735C52.7115 25.8575 51.3852 24.9954 50.1996 24.9954C47.7896 24.9954 46.1244 27.7738 47.2326 29.9458L47.5605 30.5886L47.2727 30.778C47.1144 30.8824 46.7484 31.1869 46.4596 31.4548L45.9343 31.9422L45.5941 31.2034C45.2846 30.5317 45.2538 30.3337 45.2538 29.0188C45.2538 27.7085 45.2853 27.5045 45.5896 26.8441C45.9782 26.0007 47.1158 24.7868 47.8503 24.4315C49.0541 23.8492 50.4592 23.7134 51.6299 24.0661ZM7.61401 27.0958C8.31038 27.5142 8.53825 28.5081 8.10364 29.2327C7.50805 30.2262 6.24737 30.2679 5.51305 29.3187C5.01847 28.6793 5.26452 27.466 5.96744 27.0781C6.42406 26.8262 7.17854 26.8343 7.61401 27.0958ZM51.0073 27.0721C51.7315 27.4529 51.9908 28.6674 51.4869 29.3187C50.7526 30.2679 49.492 30.2262 48.8964 29.2327C48.2732 28.1935 48.9812 26.8932 50.1748 26.8847C50.4331 26.8829 50.8078 26.9672 51.0073 27.0721ZM18.988 31.0682C19.4052 33.1646 20.689 35.3113 22.3518 36.6931C23.4227 37.5829 25.1447 38.4156 26.4846 38.6915L27.5727 38.9155V41.533V44.1505L26.9195 44.3001C25.8983 44.534 24.5543 45.2759 23.8108 46.0162C23.0674 46.7563 22.2847 47.9101 22.0633 48.592C21.9336 48.9919 21.8842 49.0289 21.5657 48.964C20.5138 48.7502 17.6876 47.2011 16.0252 45.9275C12.9719 43.588 10.3342 40.0461 9.03839 36.5454L8.73213 35.7178L9.21372 35.5711C9.95806 35.3442 11.4402 34.2705 12.0373 33.5254C12.6878 32.7137 13.2317 31.6521 13.4211 30.8248C13.4981 30.4885 13.5826 30.1413 13.6089 30.0536C13.6461 29.9296 14.2305 29.9014 16.2124 29.9278L18.7678 29.9618L18.988 31.0682ZM23.404 31.1248C23.6142 32.9343 23.9519 34.1632 24.7564 36.0478C24.9232 36.4386 23.9534 35.7084 22.9353 34.6767C21.733 33.4584 21.1998 32.5473 20.831 31.0813C20.6967 30.5472 20.5868 30.0626 20.5868 30.0045C20.5868 29.9464 21.1885 29.8989 21.9241 29.8989H23.2614L23.404 31.1248ZM27.6345 33.2937C27.6345 35.2953 27.5875 36.6884 27.5199 36.6884C27.306 36.6884 26.6335 35.7492 26.2143 34.8653C25.6998 33.7805 25.3008 32.2188 25.2007 30.8977L25.125 29.8989H26.3797H27.6345V33.2937ZM31.8065 30.8733C31.7181 32.1532 31.3041 33.7721 30.7857 34.8653C30.3665 35.7492 29.694 36.6884 29.4801 36.6884C29.4125 36.6884 29.3655 35.2953 29.3655 33.2937V29.8989H30.6196H31.8738L31.8065 30.8733ZM36.3425 30.3704C36.0529 32.0364 35.3328 33.4044 34.0725 34.6831C33.1882 35.5802 32.0955 36.3893 32.2491 36.0331C33.0319 34.2187 33.3868 32.9254 33.596 31.1248L33.7386 29.8989H35.0815H36.4245L36.3425 30.3704ZM43.521 30.5965C43.7231 31.5093 44.3315 32.7489 44.9585 33.5254C45.5367 34.2412 46.9904 35.3098 47.7188 35.5542C47.9611 35.6356 48.1594 35.7685 48.1593 35.8496C48.1591 36.5587 46.3981 39.9829 45.1987 41.6067C44.0459 43.1673 41.9459 45.2579 40.4549 46.3293C39.2922 47.1649 37.1377 48.3359 35.8707 48.8208L35.0878 49.1206L34.9192 48.6015C34.3041 46.7061 32.162 44.7812 30.1513 44.3168L29.4273 44.1496V41.5325V38.9155L30.5211 38.6903C32.8758 38.2055 35.1498 36.6776 36.4947 34.6767C37.3349 33.4267 38.1443 31.3252 38.1443 30.3939C38.1443 30.2139 38.1825 30.0277 38.2291 29.9803C38.2758 29.9327 39.454 29.9092 40.8472 29.9278L43.3806 29.9618L43.521 30.5965ZM8.40781 32.1454C8.95951 32.4011 9.70607 32.9993 9.70607 33.1857C9.70607 33.2523 9.34441 33.479 8.90226 33.6894C7.78106 34.223 6.48502 34.313 5.30088 33.9398C4.8335 33.7925 4.31284 33.5624 4.14369 33.4283L3.83619 33.1848L4.1338 32.8627C4.29738 32.6855 4.71097 32.3988 5.05285 32.2256C5.58044 31.9583 5.84367 31.911 6.79376 31.9134C7.60919 31.9154 8.04751 31.9784 8.40781 32.1454ZM51.9472 32.2256C52.289 32.3988 52.7026 32.6855 52.8662 32.8627L53.1638 33.1848L52.8563 33.4283C52.6872 33.5624 52.1665 33.7925 51.6991 33.9398C50.515 34.313 49.2189 34.223 48.0977 33.6894C47.6556 33.479 47.2939 33.2523 47.2939 33.1857C47.2939 32.9993 48.0405 32.4011 48.5922 32.1454C48.9525 31.9784 49.3908 31.9154 50.2062 31.9134C51.1563 31.911 51.4196 31.9583 51.9472 32.2256ZM29.9178 46.1323C32.5532 46.8442 34.1675 49.9015 33.3381 52.6096C33.1924 53.0849 32.9899 53.5839 32.888 53.7186C32.7079 53.9566 32.6897 53.9511 32.2396 53.5209C31.9849 53.2776 31.6216 52.9809 31.4322 52.8616L31.0879 52.6448L31.3206 52.3048C32.3651 50.779 31.8048 48.5343 30.1291 47.5327C29.621 47.2289 29.4237 47.1871 28.5 47.1871C27.5763 47.1871 27.379 47.2289 26.8709 47.5327C25.1952 48.5343 24.6349 50.779 25.6794 52.3048L25.9121 52.6448L25.5678 52.8616C25.3784 52.9809 25.0151 53.2776 24.7604 53.5209C24.3104 53.9509 24.2921 53.9566 24.1127 53.7186C24.0112 53.5839 23.8162 53.1141 23.6794 52.6746C22.4513 48.7302 25.9505 45.0606 29.9178 46.1323ZM29.209 49.0954C29.8266 49.3934 30.1928 50.2363 29.9955 50.9058C29.5499 52.4183 27.4501 52.4183 27.0045 50.9058C26.8857 50.5027 26.9014 50.3463 27.1084 49.8707C27.4961 48.9794 28.3304 48.6714 29.209 49.0954ZM30.1835 54.2632C30.8486 54.6123 31.4869 55.1631 31.3972 55.3106C31.2584 55.5389 30.1576 56.0242 29.4329 56.1765C28.2884 56.4169 26.7917 56.13 25.8227 55.4844C25.5233 55.2848 25.5198 55.268 25.7304 55.0313C26.0122 54.7147 26.6809 54.2957 27.249 54.0798C27.9176 53.8258 29.5439 53.9274 30.1835 54.2632Z" fill="white"/>
</svg>
