<svg width="55" height="58" viewBox="0 0 55 58" fill="none" xmlns="http://www.w3.org/2000/svg">
<path fill-rule="evenodd" clip-rule="evenodd" d="M25.846 0.106377C23.6176 0.436379 21.2489 1.56791 19.5602 3.10929C16.9651 5.47805 15.4933 9.4188 15.9165 12.8653C16.2512 15.5915 17.2665 17.7404 19.1484 19.7067C20.5854 21.2079 22.2453 22.207 24.3959 22.8649C25.3184 23.1471 25.5435 23.1698 27.4341 23.1714C29.1759 23.1729 29.6038 23.1375 30.3465 22.9306C33.8381 21.9587 36.5535 19.6932 38.0476 16.5057C40.6803 10.8891 38.3104 4.05405 32.7655 1.27125C30.6676 0.218419 28.0572 -0.221017 25.846 0.106377ZM29.8729 2.09898C30.8042 2.33769 32.2524 3.00518 33.126 3.59828C34.0003 4.19172 35.3731 5.66017 35.9154 6.58191C36.9892 8.40679 37.4852 10.6244 37.2609 12.5963C37.1346 13.7066 36.7316 15.1543 36.3523 15.8593L36.1449 16.245L36.063 15.5191C35.9185 14.2385 35.2171 13.2883 34.0082 12.735C31.4545 11.5662 25.9982 11.3326 22.4491 12.24C20.1442 12.8294 19.2073 13.6888 18.9303 15.4678L18.8076 16.2557L18.4961 15.5617C17.9278 14.2958 17.7117 13.2331 17.7057 11.6746C17.7021 10.7236 17.7622 10.0023 17.8884 9.48264C18.8275 5.61923 21.8427 2.73109 25.7326 1.96902C26.7336 1.77295 28.8614 1.83974 29.8729 2.09898ZM26.2771 3.71406C25.1157 4.12844 24.4452 4.76372 23.8903 5.97554C23.4908 6.84795 23.4791 8.02655 23.8603 9.00964C24.2135 9.92072 25.1717 10.8716 26.0924 11.2249C27.1147 11.617 28.2586 11.5881 29.1989 11.1461C30.0888 10.7278 30.782 10.054 31.2022 9.19834C31.4764 8.64006 31.5177 8.42221 31.5177 7.5337C31.5177 6.60731 31.4828 6.44027 31.1448 5.75361C30.7292 4.90876 30.06 4.24536 29.2168 3.84221C28.4703 3.48533 27.0871 3.42511 26.2771 3.71406ZM28.4303 5.48065C28.8751 5.6714 29.4758 6.28763 29.6391 6.7206C29.9497 7.54425 29.631 8.69517 28.9494 9.21082C27.963 9.95701 26.7406 9.83283 25.9244 8.90349C24.7034 7.5134 25.7109 5.33607 27.5795 5.32654C27.8466 5.32518 28.2295 5.39447 28.4303 5.48065ZM11.8056 13.1553C7.68418 16.4414 4.78754 20.7564 3.28364 25.85C2.77988 27.5561 2.30856 30.3795 2.30856 31.6909C2.30856 32.5187 3.25811 32.9632 3.82142 32.399C4.04069 32.1794 4.09537 31.9399 4.21402 30.6801C4.65198 26.0262 6.53623 21.4743 9.47586 17.9685C10.4669 16.7866 11.8792 15.4036 13.0614 14.4577C14.1877 13.5565 14.3304 13.2383 13.8705 12.6538C13.6914 12.4261 13.5361 12.3558 13.2183 12.3582C12.8747 12.3609 12.6258 12.5013 11.8056 13.1553ZM41.1111 12.6538C40.6501 13.2397 40.8048 13.5842 41.9277 14.4715C47.0946 18.5548 50.304 24.5665 50.814 31.1174C50.8798 31.963 50.9365 32.1758 51.1539 32.3932C51.7102 32.9493 52.673 32.5245 52.673 31.723C52.673 31.5171 52.5957 30.6856 52.5012 29.8751C51.8492 24.2864 49.3843 19.1767 45.4133 15.1823C43.6561 13.4147 42.282 12.355 41.747 12.355C41.449 12.355 41.2858 12.4317 41.1111 12.6538ZM31.4626 13.8597C32.871 14.1593 33.5106 14.4272 33.9565 14.9044C34.2301 15.1972 34.2415 15.2707 34.278 16.9892L34.3159 18.7706L33.6541 19.2879C33.2901 19.5724 32.8775 19.8658 32.7371 19.9398L32.4819 20.0744V18.1508V16.2272L32.183 15.9922C31.6816 15.5979 31.1039 15.6949 30.8329 16.2189C30.7039 16.4683 30.6669 17.0322 30.6669 18.7523V20.9649L30.2312 21.0822C28.4762 21.5546 26.5054 21.5546 24.7504 21.0822L24.3147 20.9649V18.7523C24.3147 17.0322 24.2777 16.4683 24.1487 16.2189C23.8777 15.6949 23.3 15.5979 22.7986 15.9922L22.4997 16.2272V18.1508V20.0744L22.2445 19.9398C22.1041 19.8658 21.6915 19.5724 21.3275 19.2879L20.6657 18.7706L20.7036 16.9875L20.7415 15.2045L21.0668 14.8653C21.5205 14.3922 22.2405 14.1114 23.6916 13.8416C25.5302 13.4999 25.4382 13.5064 27.8878 13.5455C29.7689 13.5756 30.3796 13.6292 31.4626 13.8597ZM26.8618 24.6541L26.5833 24.9324L26.5827 27.5743L26.582 30.216L23.8319 32.0992C21.9043 33.4192 21.051 34.0689 20.9786 34.2716C20.7547 34.8986 21.4303 35.6279 22.0522 35.4305C22.1897 35.3869 23.4447 34.5658 24.8412 33.6058C26.2377 32.6458 27.43 31.8603 27.4908 31.8603C27.5516 31.8603 28.7439 32.6458 30.1404 33.6058C31.5369 34.5658 32.7919 35.3869 32.9294 35.4305C33.5534 35.6285 34.2256 34.8998 34.0028 34.2667C33.9288 34.0563 33.1172 33.4396 31.1488 32.0979L28.3983 30.2231V27.5778V24.9324L28.1198 24.6541C27.9443 24.4786 27.7118 24.3757 27.4908 24.3757C27.2698 24.3757 27.0373 24.4786 26.8618 24.6541ZM10.2555 31.8742C6.15849 32.3488 2.55222 35.0286 0.92127 38.8104C0.192573 40.5004 -0.0070704 41.5133 0.000189341 43.4841C0.00563415 44.9495 0.0481717 45.3422 0.306687 46.3192C1.09891 49.312 3.16464 52.0236 5.80141 53.5317C7.03953 54.2399 8.91595 54.842 10.3927 55.0048C16.743 55.7049 22.6137 50.8946 23.1559 44.5471C23.4629 40.953 22.2285 37.5798 19.7072 35.1225C18.7138 34.1544 17.9269 33.6031 16.6614 32.9888C15.342 32.3483 14.2348 32.0258 12.8012 31.864C11.6565 31.7348 11.4512 31.7356 10.2555 31.8742ZM42.0169 31.8742C40.7582 32.0199 39.5913 32.3718 38.3202 32.9888C35.9104 34.1586 34.1066 35.9631 32.9302 38.381C30.7781 42.804 31.6774 48.1673 35.1539 51.6428C39.5745 56.0623 46.6289 56.2159 51.2794 51.9939C52.8237 50.5919 54.115 48.4305 54.6746 46.3111C55.0807 44.7732 55.1108 42.2948 54.7417 40.8059C53.5263 35.9039 49.5706 32.429 44.5625 31.864C43.4179 31.7348 43.2126 31.7356 42.0169 31.8742ZM12.7474 33.6811C17.328 34.252 20.9501 37.9396 21.3443 42.4334C21.5042 44.2583 21.2235 46.0026 20.5454 47.3965L20.1868 48.1336L20.1198 47.279C20.044 46.3125 19.816 45.8484 19.0993 45.201C18.2859 44.4664 17.1884 44.0662 15.0131 43.7113C10.9388 43.0464 5.74718 43.732 4.06156 45.1577C3.52049 45.6153 3.11678 46.4653 3.01866 47.3531L2.93245 48.1336L2.61812 47.4338C2.01715 46.0955 1.82023 45.1069 1.82023 43.4274C1.82023 42.2113 1.87082 41.7099 2.06615 40.9893C3.14218 37.0207 6.35179 34.2108 10.4159 33.6795C11.4173 33.5486 11.6853 33.5488 12.7474 33.6811ZM45.7206 33.9037C49.188 34.7162 51.9527 37.4388 52.9155 40.9893C53.1108 41.7099 53.1614 42.2113 53.1614 43.4274C53.1614 45.1069 52.9645 46.0955 52.3635 47.4338L52.0492 48.1336L51.963 47.3531C51.7288 45.234 50.4273 44.3259 46.7178 43.6934C45.1526 43.4264 41.5904 43.4264 40.0252 43.6934C37.7528 44.0809 36.6972 44.4651 35.8823 45.201C35.1656 45.8484 34.9376 46.3125 34.8618 47.279L34.7948 48.1336L34.4362 47.3965C33.2288 44.9147 33.306 41.6513 34.6344 39.0103C35.6234 37.044 37.0266 35.6498 39.0202 34.6526C41.1214 33.6016 43.3622 33.3512 45.7206 33.9037ZM10.6459 35.4214C9.5412 35.7716 8.60106 36.5287 8.10876 37.4645C7.42146 38.7709 7.56541 40.5059 8.45757 41.6679C10.3251 44.0999 13.9552 43.7369 15.3052 40.9831C15.5913 40.3997 15.6359 40.179 15.6364 39.3449C15.6371 38.2727 15.461 37.7051 14.8745 36.8886C13.9722 35.6327 12.066 34.9713 10.6459 35.4214ZM42.456 35.4103C40.6653 35.9179 39.5022 37.445 39.5022 39.2882C39.5022 40.8825 40.312 42.1725 41.7601 42.8852C42.4356 43.2177 42.6191 43.2573 43.4849 43.2573C44.3511 43.2573 44.5342 43.2177 45.2112 42.8846C46.0498 42.4719 46.7093 41.8097 47.1311 40.9571C47.3546 40.5054 47.396 40.246 47.397 39.2882C47.3983 38.2125 47.3785 38.1177 47.0128 37.4434C46.5543 36.5981 45.9454 36.018 45.1195 35.64C44.3825 35.3028 43.1965 35.2004 42.456 35.4103ZM12.8618 37.4629C14.306 38.4183 14.1464 40.5747 12.5789 41.2864C10.8955 42.0509 9.0793 40.48 9.56445 38.6788C9.71872 38.1061 10.4166 37.3624 10.9534 37.1985C11.5207 37.0255 12.3807 37.1446 12.8618 37.4629ZM44.3357 37.2919C45.1939 37.6891 45.6402 38.372 45.6402 39.2882C45.6402 40.2044 45.1939 40.8873 44.3357 41.2846C43.7102 41.5741 43.1796 41.5513 42.4847 41.2051C41.7045 40.8164 41.3135 40.1813 41.3135 39.3028C41.3135 38.6149 41.4916 38.1908 41.9718 37.7352C42.6571 37.085 43.5336 36.9206 44.3357 37.2919ZM15.4476 45.6391C16.2169 45.7978 17.0894 46.0509 17.3866 46.2015C18.258 46.6428 18.3027 46.7726 18.3027 48.8577V50.6672L17.537 51.2421C17.1158 51.5583 16.733 51.8175 16.6863 51.8181C16.6395 51.8188 16.6012 50.9886 16.6012 49.9734C16.6012 47.958 16.5371 47.7172 15.9626 47.5731C15.6052 47.4834 15.0684 47.6784 14.9368 47.9456C14.8858 48.049 14.8183 49.1766 14.7868 50.4514L14.7295 52.7691L13.9355 52.984C12.8181 53.2863 10.3922 53.2926 9.28472 52.9959L8.49069 52.7832L8.43397 50.4201L8.37725 48.0569L8.05896 47.7835C7.66864 47.4479 7.31098 47.4359 6.91793 47.745L6.61904 47.98V49.8997C6.61904 50.9631 6.57343 51.8192 6.51683 51.8192C6.39478 51.8192 5.12103 50.8737 4.92513 50.6377C4.82701 50.5195 4.79831 49.9658 4.8244 48.6944L4.86082 46.9165L5.30729 46.5309C5.89442 46.0238 7.2934 45.623 9.41801 45.3532C10.8384 45.1729 13.8892 45.3175 15.4476 45.6391ZM46.3208 45.4644C48.5995 45.8329 49.8104 46.3326 50.0683 47.0108C50.1284 47.1687 50.1775 48.025 50.1775 48.9136V50.5294L49.8656 50.8196C49.463 51.1942 48.5835 51.8192 48.459 51.8192C48.4059 51.8192 48.3626 50.9555 48.3626 49.8997V47.98L48.0637 47.745C47.6706 47.4359 47.3131 47.4479 46.9226 47.7833L46.6044 48.0569L46.5476 50.42L46.4909 52.7832L45.6969 52.9959C44.5894 53.2926 42.1635 53.2863 41.0461 52.984L40.2521 52.7691L40.1948 50.4514C40.1633 49.1766 40.0958 48.049 40.0448 47.9456C39.9132 47.6784 39.3764 47.4834 39.0191 47.5731C38.4445 47.7172 38.3804 47.958 38.3804 49.9734C38.3804 50.9886 38.3422 51.8188 38.2953 51.8181C38.2485 51.8175 37.8657 51.5583 37.4446 51.2421L36.6789 50.6672V48.8303C36.6789 46.731 36.7058 46.6519 37.5698 46.2142C38.1414 45.9246 39.8247 45.5301 41.2163 45.3596C42.2346 45.2347 45.2885 45.2976 46.3208 45.4644ZM18.5593 54.9895C17.961 55.5507 18.1724 56.2094 19.0756 56.5987C19.8458 56.9306 22.3579 57.5556 23.865 57.7904C25.653 58.0688 29.3121 58.0701 31.1207 57.793C32.7197 57.5479 35.3083 56.8878 35.998 56.5492C36.6577 56.2252 36.8863 55.8352 36.6916 55.3655C36.614 55.1781 36.4239 54.9571 36.2691 54.8743C35.9653 54.7117 36.0385 54.6983 34.1372 55.264C29.832 56.5446 25.2389 56.546 20.9117 55.2677C19.0447 54.7161 18.8723 54.6958 18.5593 54.9895Z" fill="white"/>
</svg>
