<svg width="33" height="33" viewBox="0 0 33 33" fill="none" xmlns="http://www.w3.org/2000/svg">
<path d="M1.47851 10.5884C0.829275 11.2376 0.834733 12.2957 1.4907 12.9517C2.14666 13.6076 3.20473 13.6131 3.85396 12.9638L13.2582 3.55956C13.9075 2.91033 13.902 1.85226 13.2461 1.1963C12.5901 0.540332 11.532 0.534875 10.8828 1.1841L1.47851 10.5884Z" fill="#35682B"/>
<path d="M4.71079 26.3597C4.06156 27.009 4.06702 28.067 4.72298 28.723C5.37895 29.3789 6.43701 29.3844 7.08625 28.7352L29.0296 6.79184C29.6788 6.14261 29.6733 5.08455 29.0174 4.42858C28.3614 3.77262 27.3034 3.76716 26.6541 4.41639L4.71079 26.3597Z" fill="#35682B"/>
<path d="M20.4821 29.592C19.8329 30.2412 19.8384 31.2993 20.4943 31.9553C21.1503 32.6112 22.2083 32.6167 22.8576 31.9675L32.2619 22.5632C32.9111 21.9139 32.9056 20.8559 32.2497 20.1999C31.5937 19.544 30.5356 19.5385 29.8864 20.1877L20.4821 29.592Z" fill="#35682B"/>
</svg>
