<svg width="28" height="28" viewBox="0 0 28 28" fill="none" xmlns="http://www.w3.org/2000/svg">
<path fill-rule="evenodd" clip-rule="evenodd" d="M14 0C6.2692 0 0 6.2692 0 14C0 21.7308 6.2692 28 14 28C21.7308 28 28 21.7308 28 14C28 6.2692 21.7308 0 14 0ZM20.4904 9.52C20.2804 11.7348 19.3676 17.1052 18.9028 19.586C18.7068 20.636 18.3204 20.986 17.9452 21.0224C17.1332 21.098 16.5144 20.4848 15.7276 19.9696C14.4956 19.1632 13.7984 18.6592 12.6028 17.8696C11.2196 16.9596 12.1156 16.4584 12.9052 15.6408C13.1124 15.4252 16.6936 12.1688 16.7636 11.872C16.772 11.8356 16.7804 11.6984 16.6992 11.6256C16.618 11.5528 16.4976 11.578 16.4108 11.5976C16.2876 11.6256 14.3192 12.9276 10.5056 15.5008C9.9456 15.8844 9.4416 16.072 8.988 16.0608C8.4868 16.0496 7.5264 15.778 6.8124 15.5456C5.936 15.26 5.2388 15.1088 5.3004 14.6272C5.3312 14.3752 5.6784 14.1176 6.342 13.8544C10.4244 12.0764 13.146 10.9032 14.5068 10.3376C18.396 8.7192 19.2024 8.4392 19.7288 8.4308C19.8436 8.428 20.104 8.4588 20.272 8.5932C20.412 8.708 20.454 8.862 20.4708 8.9712C20.4848 9.0804 20.5072 9.3268 20.4904 9.52Z" fill="white"/>
</svg>
