<svg width="58" height="57" viewBox="0 0 58 57" fill="none" xmlns="http://www.w3.org/2000/svg">
<path fill-rule="evenodd" clip-rule="evenodd" d="M51.9726 0.41748C51.693 0.64715 50.5758 1.64498 49.4898 2.63514L47.5153 4.4352L45.1178 3.48513C43.4158 2.8107 42.6402 2.55487 42.4445 2.60319C42.1964 2.6643 39.0191 5.41088 37.363 6.99575C36.6928 7.63711 36.5644 7.98234 36.8207 8.45303C36.9832 8.7515 37.5206 8.93776 37.8519 8.81017C38.0036 8.75184 39.1684 7.77271 40.4405 6.63427C41.7127 5.49594 42.8137 4.56445 42.8875 4.56445C42.9612 4.56445 44.021 4.96523 45.2426 5.45508C46.4642 5.94492 47.5942 6.3457 47.7536 6.3457C48.0749 6.3457 48.0535 6.36352 51.3037 3.40608C52.5087 2.30984 53.5399 1.29541 53.5955 1.15169C53.7888 0.651938 53.2969 0 52.7264 0C52.5914 0 52.2521 0.187922 51.9726 0.41748ZM52.136 5.60136L51.8898 5.85909V12.3367V18.8145H50.2474H48.605V14.6346V10.4547L48.3269 10.1815C48.1517 10.0092 47.9195 9.9082 47.6988 9.9082C47.4782 9.9082 47.246 10.0092 47.0707 10.1815L46.7927 10.4547V14.6346V18.8145H45.1503H43.5079V13.6014V8.38846L43.2458 8.14632C42.9874 7.90786 42.5693 7.83806 42.2104 7.97343C41.7174 8.15935 41.6956 8.40383 41.6956 13.7435V18.8145H40.1098H38.524L38.5223 16.0034C38.5205 12.9583 38.4854 12.7541 37.9176 12.4866C37.5466 12.3117 37.0052 12.4718 36.8207 12.8106C36.759 12.9241 36.7117 14.2678 36.7117 15.9126V18.8145H34.8581C33.1808 18.8145 32.9772 18.8355 32.7187 19.0353C32.218 19.4224 32.2266 20.0675 32.7374 20.453C32.8761 20.5576 35.7198 20.5895 45.1837 20.5921L57.4503 20.5957L57.7282 20.3224C58.0299 20.026 58.0897 19.5428 57.8611 19.2501C57.5676 18.8743 57.2383 18.8145 55.4652 18.8145H53.7021V12.4632C53.7021 5.75522 53.691 5.60292 53.1873 5.41288C52.811 5.27094 52.3776 5.34876 52.136 5.60136ZM16.4366 13.1844C13.8938 13.7049 11.5922 14.9601 9.8783 16.7607C8.98461 17.6997 8.36978 18.603 7.73208 19.914C7.2192 20.9687 7.21036 21.0057 7.16789 22.292C7.11997 23.7416 7.25205 24.6991 7.66808 25.921L7.94616 26.7375L7.57566 27.4775C7.2593 28.1094 7.2064 28.3317 7.21342 28.9989C7.22475 30.0585 7.55663 30.7848 8.35914 31.5056C8.95131 32.0376 9.75993 32.396 10.369 32.3967C10.538 32.3969 10.6944 32.5686 10.931 33.0137C11.3944 33.8853 12.2539 34.9682 12.9216 35.5215L13.4916 35.9938V37.3576V38.7213L8.70597 40.2942C6.07394 41.1592 3.64987 42.0038 3.31935 42.1709C2.01381 42.8306 0.878174 44.123 0.337881 45.564C0.0834792 46.2424 0.0772494 46.3632 0.0390778 51.349L0 56.4411L0.284305 56.7206L0.56861 57H18.7586H36.9486L37.2265 56.7267L37.5046 56.4535V51.5734C37.5046 46.2711 37.4838 46.0536 36.8524 44.7755C36.4667 43.9946 35.346 42.8116 34.5406 42.3347C34.1628 42.1111 32.0926 41.3706 29.0644 40.376L24.1955 38.7769L24.1639 37.3126L24.1323 35.8484L24.8007 35.2056C25.4502 34.581 26.4013 33.2682 26.6269 32.6847C26.7032 32.4878 26.8225 32.3965 27.0039 32.3965C28.0741 32.3965 29.4387 31.4471 29.9214 30.367C30.3337 29.4441 30.2972 28.4136 29.8184 27.4576L29.4444 26.7108L29.7444 25.1283C30.1827 22.8169 30.2341 21.5993 29.9342 20.6385C29.4361 19.0433 28.0277 17.0719 26.4592 15.7743C25.0775 14.6313 23.5434 13.8504 21.7036 13.3537C20.5529 13.0431 17.5921 12.9479 16.4366 13.1844ZM20.7051 14.9681C22.769 15.3997 24.2653 16.1729 25.7656 17.5831C27.1978 18.9291 28.2061 20.5946 28.3024 21.7729C28.3564 22.4342 27.9464 25.4668 27.7823 25.6204C27.7408 25.6592 27.4846 25.6592 27.2131 25.6204L26.7192 25.5498L26.3527 24.5397C25.3582 21.7995 24.3344 20.4561 23.019 20.1656C21.9455 19.9285 20.8998 20.4545 19.9345 21.7172C18.1476 24.0546 16.0671 25.0263 12.43 25.2224C11.6368 25.2651 10.9576 25.357 10.823 25.4397C10.6946 25.5184 10.3407 25.6005 10.0364 25.6221L9.4831 25.6611L9.26416 24.9932C9.11883 24.5503 9.02652 23.8747 8.99016 22.9879C8.93817 21.7206 8.95142 21.6128 9.24366 20.9284C9.90945 19.3689 11.3156 17.6495 12.7553 16.6342C13.8288 15.8773 15.2339 15.2771 16.6631 14.9654C17.5459 14.7728 19.7783 14.7742 20.7051 14.9681ZM23.2334 22.3391C23.7466 22.9136 24.1913 23.8603 24.8863 25.8583C25.4221 27.3981 25.5238 27.8213 25.5752 28.7227C25.6896 30.7299 25.0333 32.4115 23.5732 33.853C22.213 35.1957 20.6207 35.8477 18.702 35.8477C18.1674 35.8477 17.4263 35.7717 17.055 35.679C14.5786 35.0603 12.5936 33.1093 11.9641 30.6754C11.7686 29.9193 11.7372 28.0882 11.9092 27.4795L12.0245 27.0712L12.8996 27.0052C15.178 26.8332 17.0846 26.2912 18.673 25.364C19.4252 24.9248 20.7075 23.7137 21.4578 22.7338C22.2296 21.7258 22.61 21.6412 23.2334 22.3391ZM39.012 22.1554C38.711 22.2745 38.4586 22.6458 38.3591 23.1156C38.2981 23.4037 38.1935 23.499 37.7592 23.662C37.2425 23.8559 37.2257 23.8552 36.8085 23.6192C36.0605 23.1961 35.8774 23.2655 34.7078 24.4151C33.5374 25.5654 33.4659 25.7482 33.894 26.4968C34.1282 26.9063 34.1294 26.9308 33.9393 27.42C33.7649 27.8688 33.6916 27.9355 33.2543 28.0438C32.4304 28.2476 32.2942 28.5284 32.2942 30.0235C32.2942 31.6096 32.4137 31.8941 33.1622 32.0909C33.6109 32.2088 33.7161 32.2946 33.9211 32.7094L34.1592 33.1911L33.9064 33.623C33.4721 34.3645 33.5377 34.537 34.6937 35.6957C35.6084 36.6123 35.7812 36.7383 36.1245 36.7383C36.3393 36.7383 36.681 36.6374 36.8839 36.5143C37.2494 36.2922 37.2573 36.2921 37.7589 36.5035C38.2088 36.693 38.2795 36.7729 38.3946 37.2222C38.5928 37.996 38.7828 38.0742 40.4623 38.0742C42.1179 38.0742 42.2848 38.0026 42.5206 37.1907C42.6477 36.7534 42.7247 36.6725 43.1935 36.4833C43.7215 36.2704 43.7239 36.2705 44.0577 36.504C44.7235 36.97 45.039 36.8525 46.2003 35.7064C47.3583 34.5634 47.434 34.3703 47.0124 33.6331C46.7793 33.2253 46.7793 33.225 47.0022 32.7138C47.1953 32.2708 47.2814 32.1921 47.6446 32.1251C47.8752 32.0825 48.1856 31.9281 48.3345 31.7818C48.5898 31.5308 48.605 31.4406 48.605 30.1677C48.605 28.456 48.5217 28.2729 47.6408 28.0469C47.2509 27.9468 47.1567 27.86 46.9783 27.4358C46.7732 26.9484 46.7735 26.936 47.008 26.5454C47.4547 25.8013 47.3657 25.5693 46.1914 24.4151C45.0218 23.2655 44.8387 23.1961 44.0907 23.6192C43.6738 23.8551 43.6564 23.8558 43.1417 23.6627C42.6795 23.4892 42.609 23.4179 42.5462 23.0606C42.4571 22.5541 42.2738 22.3069 41.8771 22.1586C41.5045 22.0194 39.3617 22.0169 39.012 22.1554ZM40.9366 24.2139C41.0883 24.6823 41.4364 25.0243 41.8514 25.1125C42.046 25.1539 42.4969 25.3318 42.8533 25.5079C43.614 25.8838 43.789 25.8977 44.2441 25.6186C44.583 25.4108 44.5847 25.4109 44.8874 25.6881L45.1908 25.966L44.9549 26.4433L44.7189 26.9206L45.0033 27.4598C45.1597 27.7563 45.3735 28.2562 45.4785 28.5704C45.6915 29.208 45.9331 29.4742 46.4124 29.5993C46.6804 29.6692 46.7419 29.7508 46.77 30.0745C46.8021 30.4437 46.7788 30.4727 46.3493 30.5992C45.9057 30.7299 45.5467 31.0737 45.5467 31.3679C45.5467 31.4485 45.3621 31.9115 45.1363 32.3967L44.7261 33.279L44.9655 33.7547L45.205 34.2303L44.9304 34.5C44.6674 34.7585 44.6438 34.7621 44.369 34.5851C43.9528 34.317 43.5091 34.3566 42.6969 34.7343C42.3019 34.918 41.8964 35.0682 41.7958 35.0682C41.47 35.0685 41.0445 35.4962 40.9671 35.9013C40.897 36.2686 40.8653 36.293 40.4571 36.293C40.0502 36.293 40.0169 36.2677 39.9483 35.9081C39.872 35.509 39.4289 35.0685 39.1034 35.0682C39.0028 35.0682 38.5973 34.918 38.2023 34.7343C37.4151 34.3682 37.0294 34.3272 36.5984 34.5636C36.3392 34.7058 36.2897 34.695 36.013 34.4361L35.7106 34.1534L35.9276 33.8038C36.2034 33.3594 36.2003 33.2174 35.9032 32.6731C35.77 32.4291 35.5657 31.9574 35.4492 31.625C35.1852 30.8714 34.9911 30.6569 34.4892 30.5644C34.1166 30.4957 34.0957 30.4685 34.1284 30.097C34.1589 29.7508 34.2161 29.6846 34.5961 29.5569C35.0479 29.405 35.3428 29.1207 35.3489 28.8309C35.3509 28.7372 35.5309 28.2948 35.7489 27.8476C35.967 27.4005 36.1454 26.9753 36.1454 26.9028C36.1454 26.8303 36.0485 26.5964 35.9302 26.383L35.7148 25.9951L35.9991 25.698L36.2835 25.4008L36.6391 25.614C37.1001 25.8904 37.2867 25.8833 37.9331 25.5652C38.2269 25.4206 38.74 25.2145 39.0732 25.1073C39.6848 24.9104 39.732 24.8568 40.0356 24.0119C40.0893 23.8627 40.2022 23.8191 40.4684 23.8449C40.7551 23.8728 40.8507 23.948 40.9366 24.2139ZM39.5354 26.4191C38.3803 26.7399 37.4732 27.4975 36.9822 28.5515C36.3301 29.9517 36.5854 31.4436 37.6753 32.6007C38.5252 33.5029 39.1806 33.7829 40.4496 33.7859C41.2573 33.7878 41.5155 33.7407 42.0521 33.4933C42.8668 33.1179 43.5622 32.4343 43.9442 31.6337C44.3407 30.8024 44.3587 29.4042 43.9835 28.5825C43.2442 26.9636 41.1836 25.9613 39.5354 26.4191ZM10.0369 29.0012C10.0369 29.8278 10.004 30.504 9.96393 30.504C9.75472 30.5038 9.19132 29.819 9.0682 29.4153C8.94746 29.019 8.95527 28.8804 9.1228 28.4492C9.29191 28.0139 9.75019 27.4978 9.96722 27.4982C10.0055 27.4983 10.0369 28.1746 10.0369 29.0012ZM27.796 27.7219C27.9551 27.8451 28.1735 28.1723 28.2811 28.4492C28.4486 28.8804 28.4565 29.019 28.3357 29.4153C28.2126 29.8191 27.6488 30.5042 27.44 30.5038C27.3999 30.5037 27.367 29.8274 27.367 29.0008C27.367 28.1743 27.3984 27.498 27.4367 27.498C27.475 27.498 27.6367 27.5988 27.796 27.7219ZM41.4167 28.3425C42.8526 29.0122 42.7851 31.192 41.3081 31.8514C40.6909 32.1268 40.1499 32.1148 39.54 31.812C38.3232 31.2078 38.0647 29.6402 39.0286 28.7103C39.7029 28.0598 40.5357 27.9316 41.4167 28.3425ZM22.3266 37.896V38.831L20.5574 40.0734L18.7884 41.3158L18.2584 40.9475C17.967 40.7449 17.1848 40.2034 16.5205 39.7441L15.3125 38.9092L15.3082 37.9907C15.3058 37.4855 15.3422 37.0729 15.3888 37.0737C15.4355 37.0745 15.8051 37.1845 16.21 37.3182C16.8394 37.5259 17.2013 37.5614 18.702 37.5632C20.31 37.5651 20.5242 37.5412 21.2505 37.2788C21.6866 37.1213 22.1072 36.9852 22.185 36.9766C22.2883 36.9652 22.3266 37.2138 22.3266 37.896ZM15.7106 41.3586C16.4525 41.8792 17.0596 42.3527 17.0596 42.4108C17.0596 42.4993 16.2756 43.0648 13.0102 45.3321L12.6987 45.5483V43.2121V40.876L13.35 40.6528C13.7082 40.5301 14.0824 40.4257 14.1815 40.4209C14.2805 40.4161 14.9686 40.8381 15.7106 41.3586ZM24.1169 40.645L24.8185 40.8779V43.2V45.5222L22.6146 43.997C21.4025 43.158 20.4096 42.4466 20.4081 42.416C20.4042 42.3296 23.1608 40.4201 23.2957 40.4159C23.3615 40.4138 23.731 40.5169 24.1169 40.645ZM10.8864 44.5659C10.8864 47.4664 10.8969 47.6176 11.1161 47.8487C11.4149 48.164 11.8197 48.2582 12.1436 48.0878C12.2859 48.0129 12.9297 47.5829 13.5739 47.1321C14.2182 46.6813 14.7884 46.3125 14.8412 46.3125C14.8938 46.3125 15.028 46.8831 15.1393 47.5803L15.3416 48.8481L14.7806 52.0056L14.2194 55.1631L11.0804 55.1927L7.9414 55.2223V53.1002C7.9414 50.9956 7.93914 50.9759 7.66333 50.7049C7.35965 50.4064 7.08146 50.365 6.65659 50.5552C6.19377 50.7625 6.1291 51.0895 6.1291 53.2201V55.2188H3.97098H1.81276L1.84719 50.8491L1.88151 46.4795L2.18281 45.8477C2.52816 45.1236 3.26237 44.2933 3.91729 43.8862C4.3083 43.6432 10.3623 41.5575 10.7448 41.5341C10.8548 41.5273 10.8864 42.203 10.8864 44.5659ZM30.046 42.5886C33.5998 43.753 34.1687 44.0371 34.8705 44.9989C35.67 46.0944 35.6923 46.2573 35.6923 50.9855V55.2188H33.5402H31.3881V53.0985C31.3881 50.9957 31.3858 50.9759 31.11 50.7049C30.9348 50.5326 30.7026 50.4316 30.4819 50.4316C30.2613 50.4316 30.0291 50.5326 29.8538 50.7049C29.578 50.9759 29.5758 50.9957 29.5758 53.0985V55.2188H26.4689H23.3621L23.2442 54.6343C23.1793 54.3129 22.9162 52.856 22.6596 51.3971L22.193 48.7444L22.3761 47.7233C22.4766 47.1616 22.5836 46.5917 22.6136 46.4567C22.6639 46.2306 22.7818 46.2906 24.1084 47.217C25.3606 48.0916 25.5935 48.2145 25.8915 48.158C26.6165 48.0207 26.6308 47.9514 26.6308 44.5746C26.6308 42.8975 26.669 41.5254 26.7157 41.5254C26.7624 41.5254 28.2611 42.0039 30.046 42.5886ZM19.8969 44.2771C20.4857 44.6884 20.9673 45.105 20.9673 45.2029C20.9673 45.3772 20.7895 46.4564 20.6789 46.9526C20.6239 47.2 20.5999 47.2031 18.7681 47.2031H16.9129L16.7837 46.4517C16.513 44.8758 16.4147 45.1234 17.6463 44.2808C18.2505 43.8675 18.7631 43.5293 18.7857 43.5293C18.8082 43.5293 19.3083 43.8658 19.8969 44.2771ZM20.458 49.3462C20.495 49.5452 20.7433 50.9354 21.0097 52.4355L21.4943 55.1631L18.8354 55.1929C17.373 55.2094 16.1526 55.1994 16.1234 55.1708C16.0943 55.142 16.3145 53.7384 16.6126 52.0515L17.1549 48.9844H18.7729H20.3907L20.458 49.3462Z" fill="white"/>
</svg>
