<svg width="58" height="58" viewBox="0 0 58 58" fill="none" xmlns="http://www.w3.org/2000/svg">
<path fill-rule="evenodd" clip-rule="evenodd" d="M4.47547 0.175282C2.3163 0.697857 0.521842 2.60857 0.0896904 4.84537C-0.0824676 5.73597 0.0086549 6.98122 0.30843 7.83772C0.57443 8.59767 5.09111 15.8849 5.45333 16.1386C5.80139 16.3824 6.15783 16.3541 6.48504 16.0569C6.81756 15.7549 10.8668 9.29803 11.3239 8.34103C12.6452 5.57462 11.3869 2.03217 8.57757 0.608911C7.42029 0.022657 5.80989 -0.147531 4.47547 0.175282ZM50.6572 0.174716C48.3394 0.797908 46.7361 2.50421 46.2472 4.86803C46.0908 5.62402 46.0834 5.89868 46.1981 6.68583C46.2725 7.19583 46.461 7.89199 46.6171 8.23271C47.0179 9.10801 51.171 15.749 51.5101 16.0569C51.8374 16.3541 52.1938 16.3824 52.5419 16.1386C52.8971 15.8899 57.3641 8.68152 57.6656 7.87046C58.4255 5.8265 57.863 3.38767 56.2555 1.7566C54.8212 0.301281 52.5614 -0.337208 50.6572 0.174716ZM7.52524 2.1389C9.68259 3.09296 10.6254 5.58278 9.61788 7.66526C9.19389 8.54158 6.0709 13.5077 5.93388 13.5235C5.87472 13.5303 4.97392 12.1703 3.93225 10.5012C2.4081 8.05935 2.01188 7.34052 1.90409 6.82123C1.46355 4.69955 2.67274 2.65525 4.77604 1.96554C5.44676 1.7455 6.83354 1.83297 7.52524 2.1389ZM53.752 2.18615C55.5722 3.01919 56.55 5.05273 56.0388 6.94134C55.8938 7.4766 55.3933 8.37604 54.0065 10.5937C52.9945 12.2118 52.1187 13.5303 52.0602 13.5235C51.9194 13.5071 48.786 8.51462 48.37 7.64385C47.9361 6.7358 47.8481 5.90945 48.0859 4.98078C48.473 3.4705 49.6261 2.28824 51.0662 1.92498C51.7808 1.74471 53.0593 1.86901 53.752 2.18615ZM5.42364 3.27459C4.12469 3.53554 3.24191 4.61581 3.24191 5.94423C3.24191 6.77636 3.51166 7.3693 4.15393 7.94955C4.73252 8.47201 5.27358 8.64288 6.16917 8.58589C6.74299 8.5494 6.99165 8.47009 7.37314 8.202C8.14961 7.65642 8.5218 7.03074 8.57598 6.17968C8.63321 5.28127 8.46219 4.74385 7.93166 4.15499C7.3006 3.45441 6.29146 3.10021 5.42364 3.27459ZM51.5196 3.29362C50.924 3.43141 50.5356 3.65213 50.1123 4.09335C49.6181 4.60822 49.3977 5.18937 49.4007 5.96893C49.4065 7.50776 50.53 8.61036 52.0863 8.60447C53.6237 8.59869 54.7476 7.44873 54.7476 5.8818C54.7476 4.2113 53.1366 2.91959 51.5196 3.29362ZM6.32217 5.14688C6.84046 5.41486 6.96377 6.16076 6.557 6.56742C6.10593 7.01839 5.10947 6.73342 5.0706 6.14252C5.03048 5.5327 5.25216 5.14518 5.69043 5.05952C5.82417 5.03335 5.94895 5.00502 5.96766 4.99652C5.98624 4.98803 6.14582 5.05567 6.32217 5.14688ZM28.7103 5.08774C28.1882 5.30212 28.1505 5.46698 28.0909 7.80248L28.0342 10.0233L27.1407 10.1043C23.2734 10.4547 19.5789 12.0542 16.4659 14.7259C12.9327 17.7581 10.5192 22.463 10.0948 27.1459L10.0138 28.0392L8.39872 28.0706L6.78368 28.1021V23.3483V18.5945L6.48504 18.3597C6.09233 18.0508 5.73498 18.0628 5.34499 18.3982L5.02696 18.6717V24.0039V29.3359L5.2848 29.594C5.53131 29.8408 5.64068 29.8546 7.7782 29.9088L10.0138 29.9655L10.0948 30.8588C10.6653 37.1531 14.5613 42.9087 20.2564 45.8709C22.4376 47.0054 25.1646 47.7745 27.6376 47.9528L28.0342 47.9814L28.0656 49.596L28.0971 51.2107H21.0754H14.0536L13.8188 51.5092C13.5099 51.9018 13.5219 52.2591 13.8573 52.649L14.1309 52.9669H21.7312H29.3313L29.5894 52.7091C29.8363 52.4627 29.8501 52.3534 29.9043 50.2164L29.961 47.9814L30.9243 47.8978C35.4809 47.5022 40.2699 45.0293 43.2991 41.5077C45.9228 38.4574 47.5551 34.6837 47.8995 30.8719L47.9814 29.9655L49.5965 29.9341L51.2115 29.9026V34.6564V39.4102L51.5102 39.645C51.9029 39.9539 52.2602 39.9419 52.6502 39.6065L52.9683 39.333V34.0008V28.6688L52.7104 28.4107C52.4639 28.1639 52.3545 28.15 50.217 28.0959L47.9814 28.0392L47.8995 27.1328C47.5551 23.321 45.9228 19.5473 43.2991 16.497C40.2614 12.9657 35.5143 10.5149 30.9243 10.1086L29.961 10.0233L29.9296 8.40867L29.8981 6.79404H36.9198H43.9416L44.1764 6.49547C44.4854 6.10286 44.4734 5.7456 44.1379 5.35571L43.8644 5.03777L36.4027 5.01533C32.2988 5.0031 28.8371 5.03562 28.7103 5.08774ZM52.6684 5.24524C52.9315 5.45644 53.0241 5.85619 52.8953 6.22569C52.5877 7.1079 51.2115 6.93171 51.2115 6.01018C51.2115 5.50766 51.3251 5.31039 51.7102 5.14383C52.0676 4.98927 52.392 5.02361 52.6684 5.24524ZM29.627 12.0409C28.3039 13.0257 27.8642 13.6853 27.8642 14.6852C27.8642 15.9295 28.5661 16.8314 30.6238 18.2317C32.63 19.597 33.578 20.748 33.2994 21.4804C33.2333 21.6542 32.9571 22.0338 32.6857 22.324C32.0467 23.0069 31.7287 23.6429 31.6244 24.4464C31.2852 27.0606 33.4133 29.2407 35.4166 28.3313C36.1347 28.0052 36.7156 27.4134 37.7391 25.9649C39.2326 23.851 41.1555 21.9901 43.1899 20.6893L43.8386 20.2746L44.0903 20.7577C45.418 23.3059 46.0507 25.5453 46.191 28.1942L46.2609 29.5122L45.5137 28.815C44.0143 27.4159 42.3196 27.1976 40.3717 28.1527C38.6764 28.9838 37.6666 30.4487 37.2792 32.6392C36.9725 34.3727 36.6404 34.928 35.5974 35.4515C35.1207 35.6907 33.6398 35.9487 33.3598 35.8414C33.1011 35.742 31.8004 36.0391 31.2311 36.3275C29.159 37.3773 28.603 39.8211 29.6904 43.0988C29.8746 43.6539 30.2588 44.5364 30.5441 45.0596C30.8295 45.5829 31.0275 46.0464 30.9842 46.0897C30.8427 46.2312 27.0473 46.1688 26.1642 46.0105C24.953 45.7935 23.5781 45.3802 22.2918 44.8465L21.1792 44.3849L22.0718 43.5203C23.117 42.5083 23.7563 41.5628 24.2353 40.321C25.0041 38.328 24.7227 35.963 23.4852 34.0163C22.4405 32.3731 21.9702 31.0812 21.9719 29.8599C21.974 28.3237 22.8186 27.1868 24.6669 26.2325C26.7866 25.138 28.1502 23.238 27.9362 21.677C27.7303 20.1753 26.4601 19.3424 23.9065 19.0346C22.2807 18.8385 21.4678 18.2535 21.1059 17.0196C20.9414 16.4588 20.9327 16.2271 21.0424 15.3482C21.2197 13.9282 21.3434 13.628 21.86 13.3645C23.6542 12.4495 26.4977 11.8102 28.8276 11.798L29.961 11.7922L29.627 12.0409ZM34.4697 12.694C35.628 13.0794 37.4744 14.0068 38.6847 14.8111C39.7868 15.5434 42.0076 17.606 42.5766 18.4256L42.8248 18.7831L42.3307 19.0725C40.1804 20.3324 37.7688 22.6767 36.1386 25.0921C35.1095 26.6167 34.551 26.9873 34.0241 26.4951C33.5948 26.0942 33.3915 25.6258 33.3915 25.0366C33.3915 24.3967 33.6135 23.9417 34.2167 23.3447C35.1786 22.3925 35.414 21.1149 34.8532 19.8904C34.4533 19.017 33.1662 17.7504 31.568 16.6577C29.649 15.3456 29.2893 14.7259 30.04 14.0249C30.6451 13.4598 32.8322 12.4747 33.5064 12.4636C33.6485 12.4613 34.082 12.5649 34.4697 12.694ZM19.1688 15.5471C19.1042 16.3672 19.2438 17.2287 19.5914 18.1576C20.1159 19.5587 21.7054 20.6257 23.5811 20.8357C24.771 20.9689 25.3073 21.1075 25.7959 21.4077C26.2495 21.6864 26.2656 21.9559 25.8754 22.7388C25.4903 23.5113 24.8186 24.1077 23.6625 24.7029C22.402 25.3519 21.164 26.5674 20.6104 27.6993C20.2636 28.4086 20.2178 28.6131 20.1778 29.6347C20.11 31.365 20.5743 32.7933 21.8726 34.8485C22.565 35.9444 22.7932 36.7041 22.8057 37.9537C22.819 39.2761 22.625 39.8981 21.8605 40.9867C21.3293 41.7429 20.1599 42.8916 19.6358 43.1719C19.4112 43.2921 19.3037 43.2466 18.6653 42.7608C15.1846 40.1127 12.8968 36.4015 12.0349 32.005C11.7591 30.5989 11.7576 27.4198 12.0318 25.9997C12.8386 21.8233 15.0639 18.1057 18.2843 15.5548C18.7814 15.161 19.1962 14.8389 19.2063 14.8389C19.2163 14.8389 19.1995 15.1576 19.1688 15.5471ZM43.6128 29.6796C44.1766 29.9672 44.9554 30.8461 45.4223 31.7217C45.8659 32.554 45.8555 32.8554 45.3288 34.427C44.4752 36.9746 43.0974 39.1745 41.1331 41.1273C38.9572 43.2902 36.5208 44.7391 33.7066 45.5437L32.9722 45.7536L32.3372 44.57C30.9818 42.0438 30.5747 39.6942 31.3045 38.6108C31.7346 37.9725 32.349 37.7192 33.6147 37.6585C35.5461 37.5659 36.5359 37.2071 37.5783 36.2215C38.3773 35.466 38.8004 34.5694 39.0296 33.1452C39.2453 31.8056 39.5357 31.15 40.2143 30.4721C41.2758 29.4116 42.519 29.1217 43.6128 29.6796ZM4.57362 41.8433C0.856411 42.7974 -1.07246 46.8779 0.617611 50.2121C1.16503 51.2921 5.20762 57.6639 5.45571 57.8375C5.8015 58.0796 6.15851 58.0507 6.48515 57.7542C6.88659 57.3897 11.0823 50.6161 11.4118 49.8008C12.6606 46.7097 11.0341 43.1486 7.86037 42.0251C7.01681 41.7266 5.38103 41.636 4.57362 41.8433ZM50.6572 41.8719C47.7297 42.6591 45.7938 45.456 46.1956 48.3181C46.2574 48.7586 46.4319 49.4257 46.5834 49.8008C46.9129 50.6161 51.1086 57.3897 51.5101 57.7542C51.8367 58.0507 52.1937 58.0796 52.5395 57.8375C52.7876 57.6639 56.8302 51.2921 57.3776 50.2121C58.26 48.4711 58.1707 46.3137 57.1437 44.5616C55.8861 42.4163 53.033 41.2332 50.6572 41.8719ZM7.52524 43.8361C9.68259 44.7902 10.6254 47.28 9.61788 49.3625C9.18029 50.267 6.06762 55.207 5.93082 55.214C5.87007 55.2171 4.99421 53.8988 3.98461 52.2842C1.9339 49.005 1.70734 48.4718 1.83745 47.2281C2.01086 45.5692 3.13991 44.1992 4.77604 43.6628C5.44676 43.4427 6.83354 43.5302 7.52524 43.8361ZM53.731 43.8738C55.5726 44.7166 56.5527 46.7402 56.0388 48.6386C55.8938 49.1738 55.3933 50.0733 54.0065 52.2909C52.9945 53.9091 52.1187 55.2275 52.0602 55.2207C51.9194 55.2043 48.786 50.2118 48.37 49.3411C47.9361 48.433 47.8481 47.6067 48.0859 46.678C48.4788 45.1451 49.6067 43.9893 51.0681 43.6223C51.8115 43.4357 53.024 43.5501 53.731 43.8738ZM5.39871 44.9751C4.68786 45.1103 3.95446 45.6499 3.58204 46.3118C2.9571 47.4228 3.18559 48.776 4.14396 49.639C4.73297 50.1694 5.27052 50.3403 6.16917 50.2831C7.02044 50.229 7.64628 49.8569 8.19199 49.0806C8.46015 48.6992 8.53948 48.4506 8.57598 47.8769C8.63299 46.9816 8.46208 46.4406 7.93948 45.8622C7.2649 45.1157 6.34631 44.7951 5.39871 44.9751ZM51.5515 44.9733C50.9674 45.0885 50.5082 45.3615 50.055 45.8631C49.5331 46.4406 49.3622 46.9819 49.4192 47.8769C49.4734 48.728 49.8456 49.3537 50.6221 49.8992C51.0036 50.1673 51.2522 50.2466 51.826 50.2831C52.7247 50.3403 53.2622 50.1694 53.8513 49.639C55.237 48.3912 55.0052 46.154 53.4016 45.2988C52.7869 44.9711 52.1399 44.8572 51.5515 44.9733ZM6.22629 46.7917C6.47404 46.7917 6.78368 47.2637 6.78368 47.6415C6.78368 48.3321 6.0675 48.7224 5.42806 48.3803C5.10834 48.2092 4.94173 47.6185 5.11276 47.262C5.26871 46.9368 5.73702 46.65 5.97128 46.7361C6.05424 46.7667 6.16905 46.7917 6.22629 46.7917ZM52.6684 46.9425C52.9315 47.1537 53.0241 47.5534 52.8953 47.9229C52.5877 48.8051 51.2115 48.6289 51.2115 47.7074C51.2115 47.2049 51.3251 47.0076 51.7102 46.8411C52.0676 46.6865 52.392 46.7208 52.6684 46.9425Z" fill="white"/>
</svg>
