<svg width="57" height="58" viewBox="0 0 57 58" fill="none" xmlns="http://www.w3.org/2000/svg">
<path fill-rule="evenodd" clip-rule="evenodd" d="M24.0378 0.296646C23.7624 0.576858 23.7464 0.669054 23.7464 1.97478V3.35639L23.3011 3.43795C22.9319 3.5055 22.2197 3.70463 20.183 4.30976C20.0588 4.34674 19.8113 4.02774 19.3796 3.27446C18.7442 2.16582 18.4115 1.8125 18.0031 1.8125C17.6786 1.8125 11.1691 5.63615 10.7749 6.05834C10.5954 6.25059 10.4484 6.50397 10.4484 6.6213C10.4484 6.73863 10.7426 7.35875 11.1021 7.99917L11.756 9.16376L10.3802 10.564L9.00438 11.9641L7.86004 11.2986C7.23077 10.9328 6.62143 10.6333 6.50615 10.6333C6.39086 10.6333 6.14188 10.7828 5.95297 10.9656C5.53813 11.3668 1.78098 17.9915 1.78098 18.3217C1.78098 18.7261 2.12447 19.0775 3.06494 19.6353C3.56682 19.9329 4.04709 20.2228 4.1321 20.2795C4.25463 20.3611 4.20227 20.6671 3.87826 21.761C3.65361 22.5192 3.43254 23.3706 3.38671 23.6531L3.30359 24.1667H1.94328C0.657181 24.1667 0.566944 24.1829 0.291487 24.4633L0 24.7598V29V33.2402L0.291487 33.5367C0.566944 33.8171 0.657181 33.8333 1.94328 33.8333H3.30359L3.38671 34.3469C3.43254 34.6293 3.65361 35.4808 3.87826 36.239C4.20227 37.3329 4.25463 37.6389 4.1321 37.7205C4.04709 37.7772 3.56682 38.0671 3.06494 38.3647C2.12447 38.9225 1.78098 39.2739 1.78098 39.6783C1.78098 40.0085 5.53813 46.6332 5.95297 47.0344C6.14188 47.2172 6.39086 47.3667 6.50615 47.3667C6.62143 47.3667 7.23077 47.0672 7.86004 46.7014L9.00438 46.0359L10.3802 47.436L11.756 48.8362L11.1021 50.0008C10.7426 50.6412 10.4484 51.2614 10.4484 51.3787C10.4484 51.496 10.5953 51.7494 10.7749 51.9417C11.1691 52.3638 17.6786 56.1875 18.0031 56.1875C18.4005 56.1875 18.7457 55.8379 19.2938 54.8808C19.5862 54.37 19.8723 53.8793 19.9294 53.7905C20.0138 53.6591 20.2072 53.6844 20.9696 53.9271C21.4846 54.091 22.3202 54.3232 22.8262 54.443L23.7464 54.6609V56.0338C23.7464 57.3305 23.7626 57.4233 24.0378 57.7034C24.3268 57.9976 24.3476 58 26.5959 58C28.8442 58 28.865 57.9976 29.154 57.7034L29.4455 57.4068V52.2V46.9932L29.1734 46.7163C28.9338 46.4724 28.7393 46.4294 27.5426 46.3554C23.2936 46.0927 19.5365 44.3814 16.4991 41.325C15.1772 39.995 14.3713 38.9234 13.5454 37.3979C11.0265 32.7452 10.7163 27.284 12.6933 22.3974C13.605 20.144 14.7246 18.4604 16.4991 16.675C19.5389 13.6162 23.3145 11.8952 27.541 11.6418C28.7413 11.5699 28.9338 11.5276 29.1736 11.2835L29.4455 11.0068V5.8V0.593171L29.154 0.296646C28.865 0.00241667 28.8442 0 26.5959 0C24.3476 0 24.3268 0.00241667 24.0378 0.296646ZM27.5458 5.79263V9.6518L26.9818 9.72104C24.3093 10.0486 22.1796 10.6446 20.2337 11.6094C14.8105 14.2983 11.0264 19.3257 9.82719 25.4351C9.45378 27.337 9.45378 30.663 9.82719 32.5649C10.5965 36.4842 12.3767 39.9041 15.0789 42.6542C18.2612 45.8927 22.0249 47.6713 26.9818 48.279L27.5458 48.3482V52.2074V56.0667H26.5959H25.6461V54.8047C25.6461 53.1253 25.5747 53.0406 23.8651 52.6888C23.1794 52.5476 21.9333 52.2076 21.0959 51.9333C19.1601 51.2991 19.1487 51.3023 18.3163 52.7459C17.972 53.3428 17.6384 53.8181 17.575 53.8021C17.5116 53.7861 16.3947 53.1437 15.0929 52.3746L12.7263 50.9763L13.309 49.9688C13.6653 49.3527 13.8916 48.8173 13.8916 48.5902C13.8916 48.2701 13.5948 47.9171 11.7314 46.0207C10.0289 44.2881 9.50519 43.8223 9.25989 43.8223C9.08868 43.8223 8.48742 44.0985 7.92368 44.4361L6.89879 45.05L5.52768 42.6453C4.77361 41.3227 4.14303 40.1857 4.1264 40.1186C4.10978 40.0514 4.57616 39.7099 5.1627 39.3595C6.58118 38.5124 6.58439 38.5008 5.96117 36.5307C5.69165 35.6785 5.35753 34.4103 5.21886 33.7125C4.87311 31.9726 4.78988 31.9 3.13974 31.9H1.89971V29V26.1H3.13974C4.78988 26.1 4.87311 26.0274 5.21886 24.2875C5.35753 23.5897 5.69165 22.3215 5.96117 21.4693C6.58439 19.4992 6.58118 19.4876 5.1627 18.6405C4.57616 18.2901 4.1099 17.9482 4.12676 17.8806C4.1435 17.813 4.75105 16.7121 5.4771 15.434C6.20302 14.1561 6.81805 13.0732 6.84382 13.0278C6.8697 12.9823 7.33869 13.2134 7.88605 13.5413C8.49562 13.9063 9.02279 14.1375 9.24612 14.1375C9.56052 14.1375 9.90567 13.8375 11.7512 11.9592C13.5968 10.081 13.8916 9.72974 13.8916 9.40977C13.8916 9.18273 13.6653 8.64732 13.309 8.03119L12.7263 7.02368L15.0929 5.6254C16.3947 4.85629 17.5116 4.21394 17.575 4.19787C17.6384 4.18192 17.972 4.65716 18.3163 5.25407C19.1487 6.69767 19.1601 6.70093 21.0959 6.06668C21.9333 5.79239 23.1794 5.45236 23.8651 5.31123C25.5747 4.95936 25.6461 4.87466 25.6461 3.19532V1.93333H26.5959H27.5458V5.79263ZM42.769 2.08522C42.2593 2.25149 41.3907 3.03533 41.2016 3.50006L41.0523 3.86667H39.3968C38.4725 3.86667 37.6387 3.92249 37.5093 3.99294C37.3764 4.06532 36.6949 5.30398 35.9136 6.89294L34.55 9.66667H32.9476H31.3452V10.6333V11.6H33.3715C34.5534 11.6 35.4943 11.5474 35.6295 11.4737C35.7624 11.4014 36.4439 10.1627 37.2251 8.57373L38.5888 5.8H39.835C40.8866 5.8 41.0812 5.82948 41.0812 5.9891C41.0812 6.09314 41.3618 6.46205 41.7045 6.80884C42.5721 7.68645 43.4473 7.92401 44.57 7.5864C45.2222 7.39029 46.2058 6.3893 46.3985 5.72557C46.7274 4.59263 46.4955 3.6894 45.6564 2.83547C44.8273 1.9917 43.8412 1.73553 42.769 2.08522ZM44.3517 4.16331C44.9407 4.76265 44.5234 5.8 43.6933 5.8C43.2052 5.8 42.7434 5.33008 42.7434 4.83333C42.7434 4.33659 43.2052 3.86667 43.6933 3.86667C43.9246 3.86667 44.168 3.97626 44.3517 4.16331ZM51.3177 10.7852C50.8079 10.9515 49.9394 11.7353 49.7503 12.2001L49.601 12.5667H47.4705C46.2987 12.5667 45.246 12.6179 45.1311 12.6804C45.0162 12.743 44.5315 13.3955 44.0541 14.1304L43.186 15.4667H42.0148H40.8437V16.4333V17.4H42.3951C43.2483 17.4 44.0404 17.3488 44.1552 17.2863C44.2701 17.2237 44.7548 16.5712 45.2322 15.8363L46.1003 14.5H47.8507H49.601L49.7503 14.8666C49.953 15.3644 50.8189 16.1177 51.388 16.2912C52.473 16.6221 53.3712 16.3797 54.2051 15.5312C55.3653 14.3504 55.4 12.8483 54.2959 11.5985C53.5337 10.7357 52.4102 10.4289 51.3177 10.7852ZM52.9004 12.8633C53.4894 13.4626 53.072 14.5 52.242 14.5C51.7539 14.5 51.2921 14.0301 51.2921 13.5333C51.2921 13.0366 51.7539 12.5667 52.242 12.5667C52.4733 12.5667 52.7167 12.6763 52.9004 12.8633ZM26.8334 13.6086C24.3667 13.9282 22.0048 14.8262 19.9469 16.2271C18.8028 17.006 16.7102 19.1356 15.9448 20.3C14.8144 22.0201 14.014 23.9446 13.583 25.9792C13.2788 27.4153 13.2788 30.5847 13.583 32.0208C14.2406 35.125 15.5904 37.6476 17.7945 39.8906C19.9985 42.1336 22.4771 43.5074 25.5273 44.1765C26.9385 44.4861 30.0528 44.4861 31.4639 44.1765C34.5141 43.5074 36.9928 42.1336 39.1968 39.8906C41.4008 37.6476 42.7507 35.125 43.4082 32.0208C43.7124 30.5847 43.7124 27.4153 43.4082 25.9792C42.7507 22.875 41.4008 20.3524 39.1968 18.1094C37.034 15.9083 34.6591 14.5692 31.7014 13.883C30.7102 13.6531 27.7698 13.4873 26.8334 13.6086ZM31.1836 15.7541C32.8891 16.1302 34.5339 16.8443 35.9164 17.8091L36.6288 18.3062L34.7032 18.3667C33.1437 18.4156 32.7412 18.4642 32.5862 18.6223C32.4033 18.8089 31.3543 22.7465 31.3482 23.2696C31.3435 23.6605 34.5153 27.8988 34.8827 27.9926C35.0715 28.0408 35.5476 27.9496 36.1513 27.7495C36.6829 27.5733 37.1718 27.4292 37.2377 27.4292C37.3037 27.4292 37.4815 27.9629 37.6328 28.6151L37.9079 29.8011L37.0012 31.182C36.3865 32.1181 36.0945 32.677 36.0945 32.9169C36.0945 33.2103 36.3804 33.5644 37.7645 34.9851L39.4345 36.6993L38.7101 37.6157C36.8931 39.9144 33.8517 41.7535 31.0187 42.2667L30.3953 42.3795V41.3813V40.3831L32.0279 39.9781C34.2768 39.4201 34.1948 39.5253 34.1948 37.1966V35.3529L32.4983 33.6265C31.048 32.1506 30.7487 31.9 30.4352 31.9C30.1408 31.9 29.6313 32.2561 27.8485 33.7077L25.6284 35.5155L23.8969 34.191C22.9446 33.4626 22.0523 32.8667 21.914 32.8667C21.7758 32.8667 20.4784 33.2693 19.0309 33.7614L16.3992 34.6562L16.0413 33.6494C15.8444 33.0956 15.6097 32.2717 15.5194 31.8182L15.3556 30.9937L17.8848 30.9333C19.9434 30.8842 20.4478 30.8385 20.5958 30.6876C20.6959 30.5856 20.9562 29.9603 21.1742 29.298L21.5705 28.0938L23.367 28.0333C24.7539 27.9867 25.2013 27.9316 25.3291 27.7917C25.6974 27.3883 28.4956 22.4797 28.4956 22.237C28.4956 21.7113 28.2111 21.4859 26.3541 20.5394L24.4603 19.5744L23.7471 18.1263L23.0337 16.6784L23.4791 16.487C24.1503 16.1987 25.8517 15.7194 26.6553 15.5925C27.6345 15.4378 30.1568 15.5278 31.1836 15.7541ZM22.2025 19.3327L23.0349 21.0238L24.578 21.8107C25.4267 22.2435 26.121 22.6356 26.121 22.6821C26.121 22.7285 25.6813 23.5166 25.1438 24.4333L24.1668 26.1H22.3668C20.8276 26.1 20.5305 26.1306 20.3155 26.3115C20.1683 26.4353 19.9003 27.0233 19.6685 27.7312L19.2728 28.9396L17.2179 28.9727L15.163 29.0058L15.2433 28.027C15.5109 24.7615 16.8651 21.7402 19.0646 19.5018C19.6974 18.8577 21.175 17.6417 21.3246 17.6417C21.3496 17.6417 21.7448 18.4027 22.2025 19.3327ZM39.3081 21.176C40.3886 22.7338 41.1666 24.5667 41.5774 26.5229C41.6644 26.9371 41.7277 28.0248 41.7251 29.0604C41.7201 31.069 41.5264 32.1336 40.8333 33.9627L40.4599 34.9483L39.4052 33.8797C38.8251 33.2921 38.3504 32.7682 38.3504 32.7155C38.3504 32.6627 38.6977 32.091 39.1221 31.4451C39.5466 30.7991 39.8926 30.1614 39.8909 30.028C39.8894 29.8945 39.6517 28.8339 39.3628 27.671C38.6664 24.8677 38.6392 24.845 36.7475 25.4958C36.168 25.6952 35.635 25.8583 35.5633 25.8583C35.4547 25.8583 33.7715 23.6793 33.4414 23.1114C33.3804 23.0063 33.4668 22.4238 33.6628 21.6195L33.9845 20.3H36.3424H38.7004L39.3081 21.176ZM53.2174 26.2519C52.7077 26.4182 51.8391 27.202 51.65 27.6667L51.5007 28.0333H48.5469H45.593V29V29.9667H48.5469H51.5007L51.65 30.3333C51.8527 30.8311 52.7186 31.5844 53.2877 31.7579C54.3727 32.0887 55.271 31.8463 56.1048 30.9979C57.2651 29.8171 57.2997 28.315 56.1956 27.0652C55.4334 26.2023 54.3099 25.8955 53.2174 26.2519ZM54.8001 28.33C54.9839 28.5169 55.0915 28.7646 55.0915 29C55.0915 29.2354 54.9839 29.4831 54.8001 29.67C54.6164 29.8571 54.373 29.9667 54.1417 29.9667C53.9104 29.9667 53.667 29.8571 53.4833 29.67C52.8943 29.0707 53.3116 28.0333 54.1417 28.0333C54.373 28.0333 54.6164 28.1429 54.8001 28.33ZM31.313 35.19L32.295 36.1843V37.0505V37.9169L30.6625 38.3219C28.4371 38.8741 28.4956 38.8042 28.4956 40.9139V42.5681L27.5368 42.4867C24.346 42.2159 21.4054 40.8565 19.1894 38.6279C18.2493 37.6825 17.3826 36.5127 17.5243 36.3804C17.5833 36.3253 18.4865 35.9935 19.5314 35.6432C20.5762 35.2928 21.4868 34.9855 21.5549 34.9601C21.6231 34.9349 22.5004 35.5409 23.5045 36.307C24.788 37.2863 25.4262 37.7 25.653 37.7C25.8912 37.7 26.5309 37.2436 28.0965 35.9561C29.2629 34.9971 30.2429 34.2086 30.2741 34.204C30.3055 34.1996 30.7729 34.6433 31.313 35.19ZM41.7936 40.6V41.5667H42.901H44.0084L44.8848 43.8128C45.418 45.1792 45.8548 46.1258 46.0004 46.2295C46.1681 46.3491 46.5995 46.4 47.4453 46.4H48.6512L48.8004 46.7666C49.131 47.5788 50.331 48.3333 51.2921 48.3333C52.7633 48.3333 54.1417 46.9306 54.1417 45.4333C54.1417 43.9273 52.7827 42.5333 51.3145 42.5333C50.3311 42.5333 49.1347 43.279 48.8004 44.1001C48.6569 44.4526 48.623 44.4667 47.9145 44.4667H47.1776L46.3012 42.2205C45.768 40.8541 45.3312 39.9075 45.1856 39.8038C45.009 39.6778 44.5349 39.6333 43.37 39.6333H41.7936V40.6ZM51.9505 44.7633C52.1343 44.9502 52.242 45.1979 52.242 45.4333C52.242 45.6687 52.1343 45.9164 51.9505 46.1034C51.7668 46.2904 51.5234 46.4 51.2921 46.4C51.0608 46.4 50.8174 46.2904 50.6338 46.1034C50.45 45.9164 50.3423 45.6687 50.3423 45.4333C50.3423 45.1979 50.45 44.9502 50.6338 44.7633C50.8174 44.5763 51.0608 44.4667 51.2921 44.4667C51.5234 44.4667 51.7668 44.5763 51.9505 44.7633ZM31.3452 47.3667V48.3333H33.3586H35.372L35.6077 49.149C35.7373 49.5975 36.1397 51.0249 36.5018 52.3208C36.979 54.0281 37.2298 54.7353 37.4124 54.8885C37.6262 55.0681 37.9201 55.1 39.3583 55.1H41.0523L41.2016 55.4666C41.5321 56.2788 42.7322 57.0333 43.6933 57.0333C45.1645 57.0333 46.5429 55.6306 46.5429 54.1333C46.5429 52.6273 45.1839 51.2333 43.7156 51.2333C42.7323 51.2333 41.5358 51.979 41.2016 52.8001L41.0523 53.1667H39.8845H38.7167L38.481 52.351C38.3513 51.9025 37.9489 50.4751 37.5868 49.1792C37.1096 47.4719 36.8589 46.7647 36.6763 46.6115C36.4537 46.4246 36.1283 46.4 33.8847 46.4H31.3452V47.3667ZM44.3517 53.4633C44.5355 53.6502 44.6432 53.8979 44.6432 54.1333C44.6432 54.3687 44.5355 54.6164 44.3517 54.8034C44.168 54.9904 43.9246 55.1 43.6933 55.1C43.462 55.1 43.2186 54.9904 43.0349 54.8034C42.8511 54.6164 42.7434 54.3687 42.7434 54.1333C42.7434 53.8979 42.8511 53.6502 43.0349 53.4633C43.2186 53.2763 43.462 53.1667 43.6933 53.1667C43.9246 53.1667 44.168 53.2763 44.3517 53.4633Z" fill="white"/>
</svg>
