<svg width="28" height="28" viewBox="0 0 28 28" fill="none" xmlns="http://www.w3.org/2000/svg">
<path fill-rule="evenodd" clip-rule="evenodd" d="M12.5816 0.0431786C6.87944 0.645079 2.08845 4.63297 0.514312 10.0877C0.0979415 11.5304 -0.00131778 12.2839 1.31453e-05 13.9918C0.00134407 15.7003 0.102705 16.4694 0.514312 17.8958C1.95599 22.8914 6.12095 26.7059 11.2476 27.726C15.1968 28.5117 19.2094 27.5934 22.484 25.1544C23.2749 24.5653 24.5877 23.2559 25.1751 22.4702C26.6507 20.4965 27.5632 18.2993 27.9123 15.8795C28.0285 15.0738 28.0294 12.9191 27.9138 12.104C27.2129 7.16027 23.9943 2.98109 19.412 1.06492C18.4778 0.674233 17.3832 0.357657 16.3432 0.177206C15.4219 0.0173799 13.4811 -0.0517662 12.5816 0.0431786ZM18.6723 4.56292L18.935 4.60647V6.13545V7.66443L17.7967 7.66484C16.5051 7.66526 16.1977 7.72574 15.8809 8.04197C15.5567 8.36547 15.5034 8.65981 15.503 10.1289L15.5026 11.4398H17.1899H18.8773L18.8357 11.702C18.7695 12.1198 18.4446 14.6713 18.4446 14.7732C18.4446 14.847 18.1469 14.8657 16.9736 14.8657H15.5026V19.2004V23.5352H13.7163H11.9301V19.2004V14.8657H10.4941H9.0581V13.1528V11.4398H10.4856H11.9131L11.9486 9.70944C11.9793 8.21592 12.0047 7.90892 12.134 7.46664C12.6207 5.80279 13.7661 4.78539 15.4592 4.51293C15.8385 4.45196 18.2269 4.48909 18.6723 4.56292Z" fill="white"/>
</svg>
