<svg width="28" height="28" viewBox="0 0 28 28" fill="none" xmlns="http://www.w3.org/2000/svg">
<path fill-rule="evenodd" clip-rule="evenodd" d="M9.03817 0.0778615C7.14809 0.142938 6.18092 0.277612 5.20121 0.611951C2.76815 1.44226 1.06787 3.29153 0.431871 5.79924C0.0333389 7.37089 0 8.00204 0 13.9749C0 19.9519 0.0374317 20.6656 0.433491 22.2372C1.09336 24.8556 3.00698 26.8233 5.58141 27.531C7.18842 27.9726 7.76942 28.0057 13.8131 27.9994C20.5386 27.9923 21.4796 27.92 23.1278 27.2832C24.1686 26.881 24.838 26.4446 25.6224 25.6568C26.7224 24.5519 27.3594 23.2752 27.7133 21.466C27.9749 20.129 28.0831 14.1022 27.9291 9.45454C27.8734 7.77628 27.8149 7.07664 27.6729 6.39065C27.3059 4.61703 26.72 3.46953 25.6228 2.37542C24.5301 1.28583 23.3135 0.660994 21.6172 0.31804C20.1798 0.0273694 13.9545 -0.0914404 9.03817 0.0778615ZM22.1938 5.01116C22.856 5.35078 23.185 5.92385 23.1327 6.64669C23.0265 8.11429 21.3289 8.74654 20.2887 7.70591C19.4195 6.83655 19.7169 5.39821 20.8605 4.93985C21.2027 4.80271 21.8557 4.83768 22.1938 5.01116ZM15.2151 6.90103C15.9033 7.01267 17.1017 7.45874 17.7409 7.8411C18.4537 8.26755 19.4842 9.27159 19.9863 10.0291C22.6932 14.1119 20.6193 19.6406 15.8793 20.9784C14.9573 21.2386 13.1004 21.2604 12.2358 21.0211C10.9264 20.6588 9.81759 20.0198 8.90627 19.1024C7.58243 17.7697 6.90517 16.2401 6.80515 14.357C6.72065 12.7668 7.10588 11.372 8.00117 10.026C9.05753 8.43796 10.7366 7.30445 12.5767 6.93719C13.265 6.79979 14.4883 6.78307 15.2151 6.90103ZM12.8418 9.5041C10.8528 10.0392 9.48241 11.7148 9.35988 13.7617C9.22729 15.9764 10.7567 18.0232 12.9266 18.5348C15.1962 19.07 17.5454 17.8036 18.3558 15.6079C18.6372 14.8455 18.7037 13.7138 18.512 12.9515C18.0804 11.2358 16.7882 9.92995 15.0955 9.49872C14.4652 9.33812 13.4497 9.34059 12.8418 9.5041Z" fill="white"/>
</svg>
